Lato-Hairline.ufo
<glyph name="exclam" format="2">
  <advance width="484"/>
  <unicode hex="0021"/>
  <outline>
    <contour>
      <point x="229" y="1400" type="line"/>
      <point x="229" y="828" type="line" smooth="yes"/>
      <point x="229" y="710"/>
      <point x="231" y="634"/>
      <point x="235" y="476" type="curve"/>
      <point x="251" y="476" type="line"/>
      <point x="255" y="634"/>
      <point x="257" y="710"/>
      <point x="257" y="828" type="curve" smooth="yes"/>
      <point x="257" y="1400" type="line"/>
    </contour>
    <contour>
      <point x="175" y="48" type="curve" smooth="yes"/>
      <point x="175" y="12"/>
      <point x="203" y="-16"/>
      <point x="239" y="-16" type="curve" smooth="yes"/>
      <point x="275" y="-16"/>
      <point x="305" y="12"/>
      <point x="305" y="48" type="curve" smooth="yes"/>
      <point x="305" y="84"/>
      <point x="275" y="114"/>
      <point x="239" y="114" type="curve" smooth="yes"/>
      <point x="203" y="114"/>
      <point x="175" y="84"/>
    </contour>
  </outline>
  <guideline angle="90" x="342" y="0"/>
</glyph>
<glyph name="numbersign" format="2">
  <advance width="1160"/>
  <unicode hex="0023"/>
  <outline>
    <contour>
      <point x="333" y="474" type="line"/>
      <point x="333" y="464" type="line"/>
      <point x="229" y="0" type="line"/>
      <point x="239" y="0" type="line" smooth="yes"/>
      <point x="247" y="0"/>
      <point x="253" y="4"/>
      <point x="255" y="16" type="curve"/>
      <point x="355" y="464" type="line"/>
      <point x="355" y="474" type="line"/>
      <point x="455" y="926" type="line"/>
      <point x="455" y="934" type="line"/>
      <point x="559" y="1400" type="line"/>
      <point x="551" y="1400" type="line" smooth="yes"/>
      <point x="541" y="1400"/>
      <point x="535" y="1396"/>
      <point x="533" y="1384" type="curve"/>
      <point x="433" y="934" type="line"/>
      <point x="433" y="926" type="line"/>
    </contour>
    <contour>
      <point x="697" y="474" type="line"/>
      <point x="697" y="464" type="line"/>
      <point x="597" y="16" type="line"/>
      <point x="593" y="2"/>
      <point x="599" y="0"/>
      <point x="609" y="0" type="curve" smooth="yes"/>
      <point x="615" y="0" type="line"/>
      <point x="719" y="464" type="line"/>
      <point x="719" y="474" type="line"/>
      <point x="819" y="926" type="line"/>
      <point x="819" y="934" type="line"/>
      <point x="919" y="1380" type="line"/>
      <point x="923" y="1394"/>
      <point x="919" y="1400"/>
      <point x="911" y="1400" type="curve"/>
      <point x="901" y="1400" type="line"/>
      <point x="797" y="934" type="line"/>
      <point x="797" y="926" type="line"/>
    </contour>
    <contour>
      <point x="999" y="460" type="line"/>
      <point x="999" y="466" type="line" smooth="yes"/>
      <point x="999" y="474"/>
      <point x="993" y="478"/>
      <point x="985" y="478" type="curve" smooth="yes"/>
      <point x="103" y="478" type="line"/>
      <point x="103" y="472" type="line" smooth="yes"/>
      <point x="103" y="464"/>
      <point x="109" y="460"/>
      <point x="117" y="460" type="curve" smooth="yes"/>
    </contour>
    <contour>
      <point x="159" y="922" type="line"/>
      <point x="1041" y="922" type="line" smooth="yes"/>
      <point x="1049" y="922"/>
      <point x="1055" y="926"/>
      <point x="1055" y="934" type="curve" smooth="yes"/>
      <point x="1055" y="940" type="line"/>
      <point x="173" y="940" type="line"/>
      <point x="165" y="940"/>
      <point x="159" y="936"/>
      <point x="159" y="928" type="curve" smooth="yes"/>
    </contour>
  </outline>
</glyph>
<glyph name="dollar" format="2">
  <advance width="1160"/>
  <unicode hex="0024"/>
  <outline>
    <contour>
      <point x="941" y="1276" type="line"/>
      <point x="849" y="1372"/>
      <point x="749" y="1414"/>
      <point x="613" y="1414" type="curve" smooth="yes"/>
      <point x="371" y="1414"/>
      <point x="235" y="1252"/>
      <point x="235" y="1074" type="curve" smooth="yes"/>
      <point x="235" y="612"/>
      <point x="965" y="832"/>
      <point x="965" y="390" type="curve" smooth="yes"/>
      <point x="965" y="180"/>
      <point x="815" y="4"/>
      <point x="557" y="4" type="curve" smooth="yes"/>
      <point x="293" y="4"/>
      <point x="207" y="176"/>
      <point x="183" y="176" type="curve" smooth="yes"/>
      <point x="177" y="176"/>
      <point x="175" y="174"/>
      <point x="171" y="170" type="curve" smooth="yes"/>
      <point x="167" y="166" type="line"/>
      <point x="263" y="52"/>
      <point x="369" y="-16"/>
      <point x="557" y="-16" type="curve" smooth="yes"/>
      <point x="829" y="-16"/>
      <point x="987" y="166"/>
      <point x="987" y="394" type="curve" smooth="yes"/>
      <point x="987" y="846"/>
      <point x="257" y="640"/>
      <point x="257" y="1074" type="curve" smooth="yes"/>
      <point x="257" y="1242"/>
      <point x="383" y="1394"/>
      <point x="613" y="1394" type="curve" smooth="yes"/>
      <point x="837" y="1394"/>
      <point x="901" y="1264"/>
      <point x="927" y="1264" type="curve" smooth="yes"/>
      <point x="931" y="1264"/>
      <point x="935" y="1266"/>
      <point x="937" y="1270" type="curve"/>
    </contour>
    <contour>
      <point x="545" y="-274" type="line"/>
      <point x="555" y="-274" type="line" smooth="yes"/>
      <point x="563" y="-274"/>
      <point x="567" y="-268"/>
      <point x="567" y="-258" type="curve"/>
      <point x="633" y="1618" type="line"/>
      <point x="623" y="1618" type="line" smooth="yes"/>
      <point x="615" y="1618"/>
      <point x="611" y="1612"/>
      <point x="611" y="1602" type="curve"/>
    </contour>
  </outline>
</glyph>
<glyph name="percent" format="2">
  <advance width="1522"/>
  <unicode hex="0025"/>
  <outline>
    <contour>
      <point x="671" y="1064" type="curve" smooth="yes"/>
      <point x="671" y="1306"/>
      <point x="543" y="1416"/>
      <point x="391" y="1416" type="curve" smooth="yes"/>
      <point x="237" y="1416"/>
      <point x="111" y="1306"/>
      <point x="111" y="1064" type="curve" smooth="yes"/>
      <point x="111" y="824"/>
      <point x="237" y="714"/>
      <point x="391" y="714" type="curve" smooth="yes"/>
      <point x="543" y="714"/>
      <point x="671" y="824"/>
    </contour>
    <contour>
      <point x="649" y="1064" type="curve" smooth="yes"/>
      <point x="649" y="832"/>
      <point x="531" y="732"/>
      <point x="391" y="732" type="curve" smooth="yes"/>
      <point x="251" y="732"/>
      <point x="133" y="832"/>
      <point x="133" y="1064" type="curve" smooth="yes"/>
      <point x="133" y="1296"/>
      <point x="251" y="1398"/>
      <point x="391" y="1398" type="curve" smooth="yes"/>
      <point x="531" y="1398"/>
      <point x="649" y="1296"/>
    </contour>
    <contour>
      <point x="247" y="0" type="line"/>
      <point x="261" y="0" type="line" smooth="yes"/>
      <point x="267" y="0"/>
      <point x="273" y="2"/>
      <point x="277" y="8" type="curve"/>
      <point x="1265" y="1400" type="line"/>
      <point x="1251" y="1400" type="line" smooth="yes"/>
      <point x="1243" y="1400"/>
      <point x="1239" y="1398"/>
      <point x="1235" y="1392" type="curve"/>
    </contour>
    <contour>
      <point x="1411" y="334" type="curve" smooth="yes"/>
      <point x="1411" y="576"/>
      <point x="1283" y="686"/>
      <point x="1131" y="686" type="curve" smooth="yes"/>
      <point x="977" y="686"/>
      <point x="851" y="576"/>
      <point x="851" y="334" type="curve" smooth="yes"/>
      <point x="851" y="94"/>
      <point x="977" y="-16"/>
      <point x="1131" y="-16" type="curve" smooth="yes"/>
      <point x="1283" y="-16"/>
      <point x="1411" y="94"/>
    </contour>
    <contour>
      <point x="1389" y="334" type="curve" smooth="yes"/>
      <point x="1389" y="102"/>
      <point x="1271" y="2"/>
      <point x="1131" y="2" type="curve" smooth="yes"/>
      <point x="991" y="2"/>
      <point x="873" y="102"/>
      <point x="873" y="334" type="curve" smooth="yes"/>
      <point x="873" y="566"/>
      <point x="991" y="668"/>
      <point x="1131" y="668" type="curve" smooth="yes"/>
      <point x="1271" y="668"/>
      <point x="1389" y="566"/>
    </contour>
  </outline>
</glyph>
<glyph name="ampersand" format="2">
  <advance width="1374"/>
  <unicode hex="0026"/>
  <outline>
    <contour>
      <point x="503" y="782" type="line"/>
      <point x="291" y="720"/>
      <point x="123" y="550"/>
      <point x="123" y="344" type="curve" smooth="yes"/>
      <point x="123" y="110"/>
      <point x="321" y="-16"/>
      <point x="511" y="-16" type="curve" smooth="yes"/>
      <point x="917" y="-16"/>
      <point x="1151" y="386"/>
      <point x="1159" y="622" type="curve"/>
      <point x="1151" y="622" type="line" smooth="yes"/>
      <point x="1141" y="622"/>
      <point x="1139" y="616"/>
      <point x="1137" y="606" type="curve"/>
      <point x="1107" y="360"/>
      <point x="895" y="4"/>
      <point x="511" y="4" type="curve" smooth="yes"/>
      <point x="353" y="4"/>
      <point x="147" y="112"/>
      <point x="147" y="344" type="curve" smooth="yes"/>
      <point x="147" y="538"/>
      <point x="305" y="704"/>
      <point x="515" y="766" type="curve"/>
    </contour>
    <contour>
      <point x="655" y="1416" type="curve"/>
      <point x="459" y="1416"/>
      <point x="321" y="1288"/>
      <point x="321" y="1110" type="curve" smooth="yes"/>
      <point x="321" y="968"/>
      <point x="391" y="870"/>
      <point x="529" y="736" type="curve" smooth="yes"/>
      <point x="1283" y="10" type="line"/>
      <point x="1295" y="0"/>
      <point x="1301" y="0"/>
      <point x="1313" y="0" type="curve" smooth="yes"/>
      <point x="1329" y="0" type="line"/>
      <point x="543" y="752" type="line" smooth="yes"/>
      <point x="411" y="878"/>
      <point x="345" y="986"/>
      <point x="345" y="1110" type="curve" smooth="yes"/>
      <point x="345" y="1280"/>
      <point x="473" y="1396"/>
      <point x="655" y="1396" type="curve" smooth="yes"/>
      <point x="843" y="1396"/>
      <point x="931" y="1240"/>
      <point x="937" y="1168" type="curve"/>
      <point x="939" y="1156"/>
      <point x="947" y="1152"/>
      <point x="953" y="1152" type="curve" smooth="yes"/>
      <point x="959" y="1152" type="line"/>
      <point x="959" y="1294"/>
      <point x="809" y="1416"/>
    </contour>
  </outline>
</glyph>
<glyph name="quotesingle" format="2">
  <advance width="376"/>
  <unicode hex="0027"/>
  <outline>
    <contour>
      <point x="178" y="1400" type="line"/>
      <point x="178" y="1106" type="line"/>
      <point x="180" y="954" type="line"/>
      <point x="180" y="950"/>
      <point x="182" y="946"/>
      <point x="188" y="946" type="curve" smooth="yes"/>
      <point x="194" y="946"/>
      <point x="196" y="950"/>
      <point x="196" y="954" type="curve"/>
      <point x="198" y="1106" type="line"/>
      <point x="198" y="1400" type="line"/>
    </contour>
  </outline>
  <guideline angle="90" x="248" y="0"/>
</glyph>
<glyph name="parenleft" format="2">
  <advance width="501"/>
  <unicode hex="0028"/>
  <outline>
    <contour>
      <point x="150" y="632" type="curve"/>
      <point x="150" y="942"/>
      <point x="238" y="1218"/>
      <point x="414" y="1482" type="curve"/>
      <point x="420" y="1490"/>
      <point x="418" y="1496"/>
      <point x="414" y="1498" type="curve"/>
      <point x="404" y="1504" type="line"/>
      <point x="196" y="1186"/>
      <point x="128" y="932"/>
      <point x="128" y="632" type="curve"/>
      <point x="128" y="332"/>
      <point x="196" y="78"/>
      <point x="404" y="-240" type="curve"/>
      <point x="414" y="-234" type="line"/>
      <point x="418" y="-232"/>
      <point x="420" y="-226"/>
      <point x="414" y="-218" type="curve"/>
      <point x="238" y="46"/>
      <point x="150" y="322"/>
    </contour>
  </outline>
</glyph>
<glyph name="parenright" format="2">
  <advance width="501"/>
  <unicode hex="0029"/>
  <outline>
    <contour>
      <point x="351" y="632" type="curve"/>
      <point x="351" y="322"/>
      <point x="263" y="46"/>
      <point x="87" y="-218" type="curve"/>
      <point x="81" y="-226"/>
      <point x="83" y="-232"/>
      <point x="87" y="-234" type="curve"/>
      <point x="97" y="-240" type="line"/>
      <point x="305" y="78"/>
      <point x="373" y="332"/>
      <point x="373" y="632" type="curve" smooth="yes"/>
      <point x="373" y="932"/>
      <point x="305" y="1186"/>
      <point x="97" y="1504" type="curve"/>
      <point x="87" y="1498" type="line"/>
      <point x="83" y="1496"/>
      <point x="81" y="1490"/>
      <point x="87" y="1482" type="curve"/>
      <point x="263" y="1218"/>
      <point x="351" y="942"/>
    </contour>
  </outline>
</glyph>
<glyph name="asterisk" format="2">
  <advance width="850"/>
  <unicode hex="002A"/>
  <outline>
    <contour>
      <point x="184" y="1052" type="line"/>
      <point x="386" y="1170" type="line" smooth="yes"/>
      <point x="400" y="1178"/>
      <point x="404" y="1180"/>
      <point x="422" y="1198" type="curve"/>
      <point x="420" y="1204" type="line"/>
      <point x="396" y="1196"/>
      <point x="390" y="1196"/>
      <point x="376" y="1188" type="curve" smooth="yes"/>
      <point x="174" y="1070" type="line"/>
    </contour>
    <contour>
      <point x="434" y="926" type="line"/>
      <point x="434" y="1154" type="line" smooth="yes"/>
      <point x="434" y="1170"/>
      <point x="432" y="1174"/>
      <point x="428" y="1200" type="curve"/>
      <point x="422" y="1200" type="line"/>
      <point x="416" y="1176"/>
      <point x="414" y="1170"/>
      <point x="414" y="1154" type="curve" smooth="yes"/>
      <point x="414" y="926" type="line"/>
    </contour>
    <contour>
      <point x="678" y="1070" type="line"/>
      <point x="474" y="1188" type="line" smooth="yes"/>
      <point x="460" y="1196"/>
      <point x="456" y="1196"/>
      <point x="430" y="1204" type="curve"/>
      <point x="428" y="1198" type="line"/>
      <point x="448" y="1178"/>
      <point x="450" y="1178"/>
      <point x="464" y="1170" type="curve" smooth="yes"/>
      <point x="668" y="1052" type="line"/>
    </contour>
    <contour>
      <point x="414" y="1482" type="line"/>
      <point x="414" y="1254" type="line" smooth="yes"/>
      <point x="414" y="1238"/>
      <point x="416" y="1232"/>
      <point x="422" y="1206" type="curve"/>
      <point x="428" y="1206" type="line"/>
      <point x="434" y="1232"/>
      <point x="434" y="1238"/>
      <point x="434" y="1254" type="curve" smooth="yes"/>
      <point x="434" y="1482" type="line"/>
    </contour>
    <contour>
      <point x="172" y="1338" type="line"/>
      <point x="376" y="1220" type="line" smooth="yes"/>
      <point x="390" y="1212"/>
      <point x="394" y="1212"/>
      <point x="420" y="1202" type="curve"/>
      <point x="422" y="1208" type="line"/>
      <point x="400" y="1226"/>
      <point x="400" y="1230"/>
      <point x="386" y="1238" type="curve" smooth="yes"/>
      <point x="182" y="1356" type="line"/>
    </contour>
    <contour>
      <point x="666" y="1356" type="line"/>
      <point x="464" y="1238" type="line" smooth="yes"/>
      <point x="450" y="1230"/>
      <point x="446" y="1226"/>
      <point x="428" y="1208" type="curve"/>
      <point x="430" y="1202" type="line"/>
      <point x="454" y="1208"/>
      <point x="460" y="1212"/>
      <point x="474" y="1220" type="curve" smooth="yes"/>
      <point x="676" y="1338" type="line"/>
    </contour>
    <contour>
      <point x="416" y="1206" type="line"/>
      <point x="418" y="1200" type="line"/>
      <point x="424" y="1196" type="line"/>
      <point x="430" y="1200" type="line"/>
      <point x="432" y="1208" type="line"/>
      <point x="424" y="1208" type="line"/>
    </contour>
  </outline>
</glyph>
<glyph name="plus" format="2">
  <advance width="1160"/>
  <unicode hex="002B"/>
  <outline>
    <contour>
      <point x="120" y="660" type="line"/>
      <point x="1042" y="660" type="line"/>
      <point x="1042" y="680" type="line"/>
      <point x="120" y="680" type="line"/>
    </contour>
    <contour>
      <point x="570" y="1150" type="line"/>
      <point x="570" y="188" type="line"/>
      <point x="590" y="188" type="line"/>
      <point x="590" y="1150" type="line"/>
    </contour>
  </outline>
</glyph>
<glyph name="comma" format="2">
  <advance width="424"/>
  <unicode hex="002C"/>
  <outline>
    <contour>
      <point x="155" y="52" type="curve" smooth="yes"/>
      <point x="155" y="16"/>
      <point x="179" y="-8"/>
      <point x="211" y="-8" type="curve" smooth="yes"/>
      <point x="235" y="-8"/>
      <point x="249" y="0"/>
      <point x="261" y="16" type="curve"/>
      <point x="257" y="16" type="line"/>
      <point x="257" y="-101"/>
      <point x="177" y="-196"/>
      <point x="156" y="-221" type="curve"/>
      <point x="154" y="-224"/>
      <point x="153" y="-226"/>
      <point x="153" y="-228" type="curve"/>
      <point x="153" y="-230"/>
      <point x="153" y="-232"/>
      <point x="156" y="-235" type="curve" smooth="yes"/>
      <point x="159" y="-238" type="line"/>
      <point x="227" y="-166"/>
      <point x="277" y="-66"/>
      <point x="277" y="36" type="curve" smooth="yes"/>
      <point x="277" y="86"/>
      <point x="251" y="114"/>
      <point x="215" y="114" type="curve" smooth="yes"/>
      <point x="179" y="114"/>
      <point x="155" y="84"/>
    </contour>
  </outline>
</glyph>
<glyph name="hyphen" format="2">
  <advance width="738"/>
  <unicode hex="002D"/>
  <unicode hex="00AD"/>
  <unicode hex="2010"/>
  <outline>
    <contour>
      <point x="149" y="578" type="line"/>
      <point x="589" y="578" type="line"/>
      <point x="589" y="598" type="line"/>
      <point x="149" y="598" type="line"/>
    </contour>
  </outline>
</glyph>
<glyph name="period" format="2">
  <advance width="464"/>
  <unicode hex="002E"/>
  <outline>
    <contour>
      <point x="167" y="48" type="curve" smooth="yes"/>
      <point x="167" y="12"/>
      <point x="195" y="-16"/>
      <point x="231" y="-16" type="curve" smooth="yes"/>
      <point x="267" y="-16"/>
      <point x="297" y="12"/>
      <point x="297" y="48" type="curve" smooth="yes"/>
      <point x="297" y="84"/>
      <point x="267" y="114"/>
      <point x="231" y="114" type="curve" smooth="yes"/>
      <point x="195" y="114"/>
      <point x="167" y="84"/>
    </contour>
  </outline>
</glyph>
<glyph name="slash" format="2">
  <advance width="840"/>
  <unicode hex="002F"/>
  <outline>
    <contour>
      <point x="755" y="1440" type="line"/>
      <point x="745" y="1440" type="line" smooth="yes"/>
      <point x="735" y="1440"/>
      <point x="729" y="1436"/>
      <point x="725" y="1428" type="curve"/>
      <point x="85" y="-78" type="line"/>
      <point x="93" y="-78" type="line" smooth="yes"/>
      <point x="101" y="-78"/>
      <point x="111" y="-76"/>
      <point x="115" y="-66" type="curve" smooth="yes"/>
    </contour>
  </outline>
</glyph>
<glyph name="zero" format="2">
  <advance width="1160"/>
  <unicode hex="0030"/>
  <outline>
    <contour>
      <point x="1076" y="700" type="curve" smooth="yes"/>
      <point x="1076" y="1190"/>
      <point x="850" y="1416"/>
      <point x="580" y="1416" type="curve" smooth="yes"/>
      <point x="310" y="1416"/>
      <point x="84" y="1190"/>
      <point x="84" y="700" type="curve" smooth="yes"/>
      <point x="84" y="210"/>
      <point x="310" y="-14"/>
      <point x="580" y="-14" type="curve" smooth="yes"/>
      <point x="850" y="-14"/>
      <point x="1076" y="210"/>
    </contour>
    <contour>
      <point x="1050" y="700" type="curve" smooth="yes"/>
      <point x="1050" y="220"/>
      <point x="836" y="6"/>
      <point x="580" y="6" type="curve" smooth="yes"/>
      <point x="324" y="6"/>
      <point x="108" y="220"/>
      <point x="108" y="700" type="curve" smooth="yes"/>
      <point x="108" y="1180"/>
      <point x="324" y="1396"/>
      <point x="580" y="1396" type="curve" smooth="yes"/>
      <point x="836" y="1396"/>
      <point x="1050" y="1180"/>
    </contour>
  </outline>
</glyph>
<glyph name="one" format="2">
  <advance width="1160"/>
  <unicode hex="0031"/>
  <outline>
    <contour>
      <point x="633" y="1408" type="line"/>
      <point x="627" y="1378"/>
      <point x="623" y="1346"/>
      <point x="623" y="1316" type="curve" smooth="yes"/>
      <point x="623" y="0" type="line"/>
      <point x="647" y="0" type="line"/>
      <point x="647" y="1408" type="line"/>
    </contour>
    <contour>
      <point x="283" y="0" type="line"/>
      <point x="979" y="0" type="line"/>
      <point x="979" y="20" type="line"/>
      <point x="283" y="20" type="line"/>
    </contour>
    <contour>
      <point x="239" y="1054" type="line"/>
      <point x="245" y="1046" type="line"/>
      <point x="251" y="1040"/>
      <point x="259" y="1040"/>
      <point x="265" y="1046" type="curve"/>
      <point x="639" y="1384" type="line"/>
      <point x="633" y="1408" type="line"/>
    </contour>
  </outline>
</glyph>
<glyph name="two" format="2">
  <advance width="1160"/>
  <unicode hex="0032"/>
  <outline>
    <contour>
      <point x="586" y="1416" type="curve" smooth="yes"/>
      <point x="364" y="1416"/>
      <point x="204" y="1276"/>
      <point x="174" y="1052" type="curve"/>
      <point x="184" y="1052" type="line" smooth="yes"/>
      <point x="192" y="1052"/>
      <point x="198" y="1056"/>
      <point x="200" y="1068" type="curve" smooth="yes"/>
      <point x="232" y="1262"/>
      <point x="378" y="1396"/>
      <point x="586" y="1396" type="curve" smooth="yes"/>
      <point x="768" y="1396"/>
      <point x="948" y="1292"/>
      <point x="948" y="1050" type="curve" smooth="yes"/>
      <point x="948" y="850"/>
      <point x="810" y="704"/>
      <point x="646" y="536" type="curve"/>
      <point x="142" y="24" type="line"/>
      <point x="140" y="22"/>
      <point x="134" y="16"/>
      <point x="134" y="10" type="curve"/>
      <point x="134" y="0" type="line"/>
      <point x="1010" y="0" type="line"/>
      <point x="1010" y="12" type="line" smooth="yes"/>
      <point x="1010" y="18"/>
      <point x="1006" y="22"/>
      <point x="1000" y="22" type="curve" smooth="yes"/>
      <point x="276" y="22" type="line" smooth="yes"/>
      <point x="220" y="22"/>
      <point x="176" y="20"/>
      <point x="146" y="16" type="curve"/>
      <point x="160" y="12" type="line"/>
      <point x="660" y="522" type="line" smooth="yes"/>
      <point x="826" y="690"/>
      <point x="972" y="836"/>
      <point x="972" y="1050" type="curve" smooth="yes"/>
      <point x="972" y="1308"/>
      <point x="778" y="1416"/>
    </contour>
  </outline>
</glyph>
<glyph name="three" format="2">
  <advance width="1160"/>
  <unicode hex="0033"/>
  <outline>
    <contour>
      <point x="591" y="1416" type="curve" smooth="yes"/>
      <point x="369" y="1416"/>
      <point x="209" y="1276"/>
      <point x="179" y="1052" type="curve"/>
      <point x="189" y="1052" type="line" smooth="yes"/>
      <point x="197" y="1052"/>
      <point x="201" y="1056"/>
      <point x="203" y="1068" type="curve" smooth="yes"/>
      <point x="235" y="1262"/>
      <point x="383" y="1396"/>
      <point x="591" y="1396" type="curve" smooth="yes"/>
      <point x="773" y="1396"/>
      <point x="945" y="1298"/>
      <point x="945" y="1066" type="curve" smooth="yes"/>
      <point x="945" y="870"/>
      <point x="787" y="736"/>
      <point x="541" y="728" type="curve"/>
      <point x="541" y="712" type="line"/>
      <point x="855" y="710"/>
      <point x="985" y="562"/>
      <point x="985" y="370" type="curve" smooth="yes"/>
      <point x="985" y="208"/>
      <point x="847" y="4"/>
      <point x="573" y="4" type="curve" smooth="yes"/>
      <point x="211" y="4"/>
      <point x="167" y="298"/>
      <point x="159" y="324" type="curve" smooth="yes"/>
      <point x="153" y="344"/>
      <point x="139" y="340"/>
      <point x="135" y="338" type="curve" smooth="yes"/>
      <point x="131" y="336" type="line"/>
      <point x="163" y="202"/>
      <point x="235" y="-16"/>
      <point x="573" y="-16" type="curve" smooth="yes"/>
      <point x="827" y="-16"/>
      <point x="1009" y="164"/>
      <point x="1009" y="370" type="curve" smooth="yes"/>
      <point x="1009" y="572"/>
      <point x="869" y="718"/>
      <point x="613" y="724" type="curve"/>
      <point x="613" y="718" type="line"/>
      <point x="789" y="728"/>
      <point x="969" y="862"/>
      <point x="969" y="1066" type="curve" smooth="yes"/>
      <point x="969" y="1314"/>
      <point x="783" y="1416"/>
    </contour>
  </outline>
</glyph>
<glyph name="four" format="2">
  <advance width="1160"/>
  <unicode hex="0034"/>
  <outline>
    <contour>
      <point x="794" y="1402" type="line"/>
      <point x="780" y="1402" type="line"/>
      <point x="56" y="450" type="line"/>
      <point x="58" y="442" type="line"/>
      <point x="60" y="436"/>
      <point x="62" y="432"/>
      <point x="76" y="432" type="curve" smooth="yes"/>
      <point x="1074" y="432" type="line" smooth="yes"/>
      <point x="1086" y="432"/>
      <point x="1090" y="436"/>
      <point x="1090" y="444" type="curve" smooth="yes"/>
      <point x="1090" y="452" type="line"/>
      <point x="70" y="452" type="line"/>
      <point x="80" y="446" type="line"/>
      <point x="788" y="1378" type="line"/>
      <point x="778" y="1382" type="line"/>
      <point x="774" y="1362"/>
      <point x="772" y="1342"/>
      <point x="772" y="1322" type="curve" smooth="yes"/>
      <point x="772" y="0" type="line"/>
      <point x="794" y="0" type="line"/>
    </contour>
  </outline>
</glyph>
<glyph name="five" format="2">
  <advance width="1160"/>
  <unicode hex="0035"/>
  <outline>
    <contour>
      <point x="944" y="1400" type="line"/>
      <point x="344" y="1400" type="line"/>
      <point x="238" y="810" type="line"/>
      <point x="256" y="802" type="line"/>
      <point x="362" y="829"/>
      <point x="455" y="841"/>
      <point x="535" y="841" type="curve" smooth="yes"/>
      <point x="821" y="841"/>
      <point x="950" y="675"/>
      <point x="950" y="448" type="curve" smooth="yes"/>
      <point x="950" y="162"/>
      <point x="748" y="8"/>
      <point x="510" y="8" type="curve" smooth="yes"/>
      <point x="316" y="8"/>
      <point x="208" y="102"/>
      <point x="188" y="102" type="curve" smooth="yes"/>
      <point x="182" y="102"/>
      <point x="178" y="100"/>
      <point x="176" y="96" type="curve"/>
      <point x="170" y="88" type="line"/>
      <point x="242" y="36"/>
      <point x="366" y="-16"/>
      <point x="510" y="-16" type="curve" smooth="yes"/>
      <point x="758" y="-16"/>
      <point x="976" y="152"/>
      <point x="976" y="446" type="curve" smooth="yes"/>
      <point x="976" y="691"/>
      <point x="825" y="861"/>
      <point x="535" y="861" type="curve" smooth="yes"/>
      <point x="454" y="861"/>
      <point x="363" y="849"/>
      <point x="260" y="822" type="curve"/>
      <point x="260" y="806" type="line"/>
      <point x="368" y="1396" type="line"/>
      <point x="348" y="1378" type="line"/>
      <point x="930" y="1378" type="line" smooth="yes"/>
      <point x="938" y="1378"/>
      <point x="944" y="1384"/>
      <point x="944" y="1390" type="curve" smooth="yes"/>
    </contour>
  </outline>
</glyph>
<glyph name="six" format="2">
  <advance width="1160"/>
  <unicode hex="0036"/>
  <outline>
    <contour>
      <point x="185" y="414" type="curve"/>
      <point x="185" y="590"/>
      <point x="339" y="798"/>
      <point x="611" y="798" type="curve" smooth="yes"/>
      <point x="841" y="798"/>
      <point x="1001" y="646"/>
      <point x="1001" y="404" type="curve" smooth="yes"/>
      <point x="1001" y="174"/>
      <point x="843" y="4"/>
      <point x="579" y="4" type="curve" smooth="yes"/>
      <point x="341" y="4"/>
      <point x="185" y="178"/>
    </contour>
    <contour>
      <point x="181" y="426" type="line"/>
      <point x="185" y="560"/>
      <point x="241" y="666"/>
      <point x="365" y="836" type="curve"/>
      <point x="783" y="1400" type="line"/>
      <point x="763" y="1400" type="line" smooth="yes"/>
      <point x="759" y="1400"/>
      <point x="755" y="1400"/>
      <point x="751" y="1394" type="curve"/>
      <point x="345" y="846" type="line"/>
      <point x="213" y="666"/>
      <point x="161" y="528"/>
      <point x="161" y="430" type="curve" smooth="yes"/>
      <point x="161" y="144"/>
      <point x="335" y="-16"/>
      <point x="579" y="-16" type="curve" smooth="yes"/>
      <point x="839" y="-16"/>
      <point x="1025" y="154"/>
      <point x="1025" y="404" type="curve" smooth="yes"/>
      <point x="1025" y="644"/>
      <point x="863" y="818"/>
      <point x="609" y="818" type="curve" smooth="yes"/>
      <point x="383" y="818"/>
      <point x="177" y="658"/>
      <point x="177" y="420" type="curve"/>
    </contour>
  </outline>
</glyph>
<glyph name="seven" format="2">
  <advance width="1160"/>
  <unicode hex="0037"/>
  <outline>
    <contour>
      <point x="141" y="1400" type="line"/>
      <point x="141" y="1390" type="line" smooth="yes"/>
      <point x="141" y="1382"/>
      <point x="145" y="1378"/>
      <point x="153" y="1378" type="curve" smooth="yes"/>
      <point x="1037" y="1378" type="line"/>
      <point x="1033" y="1384" type="line"/>
      <point x="1027" y="1378"/>
      <point x="1023" y="1372"/>
      <point x="1019" y="1364" type="curve" smooth="yes"/>
      <point x="321" y="0" type="line"/>
      <point x="333" y="0" type="line" smooth="yes"/>
      <point x="343" y="0"/>
      <point x="351" y="4"/>
      <point x="355" y="12" type="curve" smooth="yes"/>
      <point x="1051" y="1374" type="line" smooth="yes"/>
      <point x="1053" y="1378"/>
      <point x="1055" y="1384"/>
      <point x="1055" y="1388" type="curve"/>
      <point x="1055" y="1400" type="line"/>
    </contour>
  </outline>
</glyph>
<glyph name="eight" format="2">
  <advance width="1160"/>
  <unicode hex="0038"/>
  <outline>
    <contour>
      <point x="580" y="-16" type="curve"/>
      <point x="838" y="-16"/>
      <point x="1020" y="126"/>
      <point x="1020" y="358" type="curve" smooth="yes"/>
      <point x="1020" y="628"/>
      <point x="806" y="732"/>
      <point x="596" y="738" type="curve"/>
      <point x="596" y="722" type="line"/>
      <point x="830" y="732"/>
      <point x="968" y="878"/>
      <point x="968" y="1068" type="curve" smooth="yes"/>
      <point x="968" y="1260"/>
      <point x="824" y="1416"/>
      <point x="580" y="1416" type="curve"/>
      <point x="336" y="1416"/>
      <point x="192" y="1260"/>
      <point x="192" y="1068" type="curve" smooth="yes"/>
      <point x="192" y="878"/>
      <point x="330" y="732"/>
      <point x="564" y="722" type="curve"/>
      <point x="564" y="738" type="line"/>
      <point x="354" y="732"/>
      <point x="140" y="628"/>
      <point x="140" y="358" type="curve" smooth="yes"/>
      <point x="140" y="126"/>
      <point x="322" y="-16"/>
    </contour>
    <contour>
      <point x="580" y="740" type="curve"/>
      <point x="336" y="740"/>
      <point x="216" y="898"/>
      <point x="216" y="1068" type="curve" smooth="yes"/>
      <point x="216" y="1256"/>
      <point x="354" y="1396"/>
      <point x="580" y="1396" type="curve"/>
      <point x="806" y="1396"/>
      <point x="944" y="1256"/>
      <point x="944" y="1068" type="curve" smooth="yes"/>
      <point x="944" y="898"/>
      <point x="824" y="740"/>
    </contour>
    <contour>
      <point x="580" y="4" type="curve"/>
      <point x="338" y="4"/>
      <point x="164" y="142"/>
      <point x="164" y="358" type="curve" smooth="yes"/>
      <point x="164" y="650"/>
      <point x="418" y="720"/>
      <point x="580" y="720" type="curve"/>
      <point x="742" y="720"/>
      <point x="996" y="650"/>
      <point x="996" y="358" type="curve" smooth="yes"/>
      <point x="996" y="142"/>
      <point x="822" y="4"/>
    </contour>
  </outline>
</glyph>
<glyph name="nine" format="2">
  <advance width="1160"/>
  <unicode hex="0039"/>
  <outline>
    <contour>
      <point x="962" y="1002" type="curve"/>
      <point x="962" y="834"/>
      <point x="814" y="634"/>
      <point x="554" y="634" type="curve" smooth="yes"/>
      <point x="332" y="634"/>
      <point x="178" y="780"/>
      <point x="178" y="1012" type="curve" smooth="yes"/>
      <point x="178" y="1240"/>
      <point x="346" y="1396"/>
      <point x="584" y="1396" type="curve" smooth="yes"/>
      <point x="802" y="1396"/>
      <point x="962" y="1230"/>
    </contour>
    <contour>
      <point x="972" y="1000" type="line"/>
      <point x="966" y="844"/>
      <point x="896" y="754"/>
      <point x="790" y="596" type="curve"/>
      <point x="386" y="0" type="line"/>
      <point x="406" y="0" type="line" smooth="yes"/>
      <point x="410" y="0"/>
      <point x="414" y="0"/>
      <point x="418" y="6" type="curve" smooth="yes"/>
      <point x="808" y="586" type="line" smooth="yes"/>
      <point x="922" y="754"/>
      <point x="986" y="858"/>
      <point x="986" y="988" type="curve" smooth="yes"/>
      <point x="986" y="1246"/>
      <point x="814" y="1416"/>
      <point x="584" y="1416" type="curve" smooth="yes"/>
      <point x="340" y="1416"/>
      <point x="154" y="1246"/>
      <point x="154" y="1012" type="curve" smooth="yes"/>
      <point x="154" y="782"/>
      <point x="310" y="614"/>
      <point x="556" y="614" type="curve" smooth="yes"/>
      <point x="772" y="614"/>
      <point x="974" y="772"/>
      <point x="974" y="1000" type="curve"/>
    </contour>
  </outline>
</glyph>
<glyph name="less" format="2">
  <advance width="1160"/>
  <unicode hex="003C"/>
  <outline>
    <contour>
      <point x="185" y="676" type="line"/>
      <point x="185" y="666" type="line"/>
      <point x="209" y="668"/>
      <point x="231" y="679"/>
      <point x="253" y="690" type="curve" smooth="yes"/>
      <point x="896" y="1016" type="line" smooth="yes"/>
      <point x="910" y="1023"/>
      <point x="915" y="1028"/>
      <point x="915" y="1037" type="curve" smooth="yes"/>
      <point x="915" y="1048" type="line"/>
    </contour>
    <contour>
      <point x="185" y="664" type="line"/>
      <point x="915" y="292" type="line"/>
      <point x="915" y="303" type="line"/>
      <point x="915" y="312"/>
      <point x="910" y="317"/>
      <point x="896" y="324" type="curve"/>
      <point x="253" y="650" type="line"/>
      <point x="231" y="662"/>
      <point x="209" y="672"/>
      <point x="185" y="674" type="curve"/>
    </contour>
  </outline>
</glyph>
<glyph name="equal" format="2">
  <advance width="1160"/>
  <unicode hex="003D"/>
  <outline>
    <contour>
      <point x="180" y="520" type="line"/>
      <point x="980" y="520" type="line"/>
      <point x="980" y="540" type="line"/>
      <point x="180" y="540" type="line"/>
    </contour>
    <contour>
      <point x="180" y="814" type="line"/>
      <point x="980" y="814" type="line"/>
      <point x="980" y="834" type="line"/>
      <point x="180" y="834" type="line"/>
    </contour>
  </outline>
</glyph>
<glyph name="greater" format="2">
  <advance width="1160"/>
  <unicode hex="003E"/>
  <outline>
    <contour>
      <point x="975" y="664" type="line"/>
      <point x="975" y="674" type="line"/>
      <point x="951" y="672"/>
      <point x="929" y="661"/>
      <point x="907" y="650" type="curve" smooth="yes"/>
      <point x="264" y="324" type="line" smooth="yes"/>
      <point x="250" y="317"/>
      <point x="245" y="312"/>
      <point x="245" y="303" type="curve" smooth="yes"/>
      <point x="245" y="292" type="line"/>
    </contour>
    <contour>
      <point x="975" y="676" type="line"/>
      <point x="245" y="1048" type="line"/>
      <point x="245" y="1037" type="line" smooth="yes"/>
      <point x="245" y="1028"/>
      <point x="250" y="1023"/>
      <point x="264" y="1016" type="curve" smooth="yes"/>
      <point x="907" y="690" type="line"/>
      <point x="929" y="678"/>
      <point x="951" y="668"/>
      <point x="975" y="666" type="curve"/>
    </contour>
  </outline>
</glyph>
<glyph name="question" format="2">
  <advance width="838"/>
  <unicode hex="003F"/>
  <outline>
    <contour>
      <point x="111" y="1272" type="line"/>
      <point x="113" y="1270"/>
      <point x="115" y="1268"/>
      <point x="119" y="1268" type="curve" smooth="yes"/>
      <point x="129" y="1268"/>
      <point x="219" y="1396"/>
      <point x="407" y="1396" type="curve" smooth="yes"/>
      <point x="559" y="1396"/>
      <point x="703" y="1298"/>
      <point x="703" y="1132" type="curve" smooth="yes"/>
      <point x="703" y="838"/>
      <point x="369" y="806"/>
      <point x="369" y="650" type="curve" smooth="yes"/>
      <point x="369" y="476" type="line"/>
      <point x="385" y="476" type="line"/>
      <point x="391" y="648" type="line"/>
      <point x="395" y="792"/>
      <point x="727" y="830"/>
      <point x="727" y="1132" type="curve" smooth="yes"/>
      <point x="727" y="1310"/>
      <point x="571" y="1416"/>
      <point x="407" y="1416" type="curve" smooth="yes"/>
      <point x="267" y="1416"/>
      <point x="169" y="1348"/>
      <point x="105" y="1280" type="curve"/>
    </contour>
    <component base="period" xOffset="146"/>
  </outline>
</glyph>
<glyph name="at" format="2">
  <advance width="1643"/>
  <unicode hex="0040"/>
  <outline>
    <contour>
      <point x="1174" y="190" type="curve" smooth="yes"/>
      <point x="1364" y="190"/>
      <point x="1524" y="378"/>
      <point x="1524" y="670" type="curve" smooth="yes"/>
      <point x="1524" y="1100"/>
      <point x="1208" y="1306"/>
      <point x="862" y="1306" type="curve" smooth="yes"/>
      <point x="466" y="1306"/>
      <point x="134" y="986"/>
      <point x="134" y="532" type="curve" smooth="yes"/>
      <point x="134" y="34"/>
      <point x="474" y="-236"/>
      <point x="892" y="-236" type="curve" smooth="yes"/>
      <point x="1100" y="-236"/>
      <point x="1278" y="-184"/>
      <point x="1430" y="-82" type="curve"/>
      <point x="1424" y="-71" type="line"/>
      <point x="1421" y="-65"/>
      <point x="1413" y="-62"/>
      <point x="1405" y="-68" type="curve"/>
      <point x="1255" y="-168"/>
      <point x="1084" y="-214"/>
      <point x="892" y="-214" type="curve" smooth="yes"/>
      <point x="494" y="-214"/>
      <point x="156" y="46"/>
      <point x="156" y="532" type="curve" smooth="yes"/>
      <point x="156" y="980"/>
      <point x="490" y="1286"/>
      <point x="862" y="1286" type="curve" smooth="yes"/>
      <point x="1200" y="1286"/>
      <point x="1502" y="1090"/>
      <point x="1502" y="670" type="curve" smooth="yes"/>
      <point x="1502" y="384"/>
      <point x="1346" y="210"/>
      <point x="1176" y="210" type="curve" smooth="yes"/>
      <point x="1076" y="210"/>
      <point x="978" y="256"/>
      <point x="1052" y="538" type="curve" smooth="yes"/>
      <point x="1140" y="874" type="line"/>
      <point x="1100" y="894"/>
      <point x="1038" y="904"/>
      <point x="984" y="904" type="curve" smooth="yes"/>
      <point x="694" y="904"/>
      <point x="514" y="656"/>
      <point x="514" y="430" type="curve" smooth="yes"/>
      <point x="514" y="300"/>
      <point x="578" y="196"/>
      <point x="718" y="196" type="curve" smooth="yes"/>
      <point x="850" y="196"/>
      <point x="964" y="280"/>
      <point x="1030" y="470" type="curve"/>
      <point x="1014" y="446" type="line"/>
      <point x="986" y="294"/>
      <point x="1026" y="190"/>
    </contour>
    <contour>
      <point x="1116" y="874" type="line"/>
      <point x="1030" y="542" type="line" smooth="yes"/>
      <point x="962" y="280"/>
      <point x="832" y="216"/>
      <point x="722" y="216" type="curve" smooth="yes"/>
      <point x="598" y="216"/>
      <point x="538" y="312"/>
      <point x="538" y="430" type="curve" smooth="yes"/>
      <point x="538" y="642"/>
      <point x="708" y="884"/>
      <point x="984" y="884" type="curve" smooth="yes"/>
      <point x="1048" y="884"/>
      <point x="1080" y="876"/>
      <point x="1128" y="862" type="curve"/>
    </contour>
  </outline>
  <guideline angle="0" x="0" y="700"/>
  <guideline angle="90" x="840" y="0"/>
</glyph>
<glyph name="D" format="2">
  <advance width="1519"/>
  <unicode hex="0044"/>
  <anchor x="696" y="1496" name="Top"/>
  <anchor x="692" y="-70" name="bottom"/>
  <anchor x="696" y="1496" name="top"/>
  <outline>
    <contour>
      <point x="1380" y="700" type="curve" smooth="yes"/>
      <point x="1380" y="1142"/>
      <point x="1116" y="1400"/>
      <point x="732" y="1400" type="curve"/>
      <point x="232" y="1400" type="line"/>
      <point x="232" y="0" type="line"/>
      <point x="732" y="0" type="line"/>
      <point x="1116" y="0"/>
      <point x="1380" y="258"/>
    </contour>
    <contour>
      <point x="1354" y="700" type="curve" smooth="yes"/>
      <point x="1354" y="266"/>
      <point x="1100" y="20"/>
      <point x="732" y="20" type="curve"/>
      <point x="256" y="20" type="line"/>
      <point x="256" y="1380" type="line"/>
      <point x="732" y="1380" type="line"/>
      <point x="1100" y="1380"/>
      <point x="1354" y="1134"/>
    </contour>
  </outline>
</glyph>
<glyph name="E" format="2">
  <advance width="1165"/>
  <unicode hex="0045"/>
  <anchor x="648" y="1496" name="Top"/>
  <anchor x="673" y="-70" name="bottom"/>
  <anchor x="-58" y="1120" name="onRight"/>
  <anchor x="601" y="700" name="Slash"/>
  <anchor x="648" y="1496" name="top"/>
  <outline>
    <contour>
      <point x="256" y="1400" type="line"/>
      <point x="232" y="1400" type="line"/>
      <point x="232" y="0" type="line"/>
      <point x="256" y="0" type="line"/>
    </contour>
    <contour>
      <point x="248" y="722" type="line"/>
      <point x="248" y="700" type="line"/>
      <point x="930" y="700" type="line"/>
      <point x="930" y="722" type="line"/>
    </contour>
    <contour>
      <point x="248" y="1400" type="line"/>
      <point x="248" y="1378" type="line"/>
      <point x="1050" y="1378" type="line"/>
      <point x="1050" y="1400" type="line"/>
    </contour>
    <contour>
      <point x="248" y="22" type="line"/>
      <point x="248" y="0" type="line"/>
      <point x="1050" y="0" type="line"/>
      <point x="1052" y="22" type="line"/>
    </contour>
  </outline>
</glyph>
<glyph name="F" format="2">
  <advance width="1128"/>
  <unicode hex="0046"/>
  <anchor x="637" y="1496" name="Top"/>
  <anchor x="637" y="1496" name="top"/>
  <anchor x="556" y="-70" name="bottom"/>
  <outline>
    <contour>
      <point x="256" y="1400" type="line"/>
      <point x="232" y="1400" type="line"/>
      <point x="232" y="0" type="line"/>
      <point x="256" y="0" type="line"/>
    </contour>
    <contour>
      <point x="248" y="702" type="line"/>
      <point x="248" y="680" type="line"/>
      <point x="950" y="680" type="line"/>
      <point x="950" y="702" type="line"/>
    </contour>
    <contour>
      <point x="248" y="1400" type="line"/>
      <point x="248" y="1378" type="line"/>
      <point x="1050" y="1378" type="line"/>
      <point x="1050" y="1400" type="line"/>
    </contour>
  </outline>
</glyph>
<glyph name="H" format="2">
  <advance width="1496"/>
  <unicode hex="0048"/>
  <anchor x="758" y="1496" name="Top"/>
  <anchor x="-58" y="1120" name="onRight"/>
  <anchor x="759" y="-70" name="bottom"/>
  <anchor x="758" y="1496" name="top"/>
  <outline>
    <contour>
      <point x="256" y="1400" type="line"/>
      <point x="232" y="1400" type="line"/>
      <point x="232" y="0" type="line"/>
      <point x="256" y="0" type="line"/>
    </contour>
    <contour>
      <point x="248" y="722" type="line"/>
      <point x="248" y="700" type="line"/>
      <point x="1250" y="700" type="line"/>
      <point x="1250" y="722" type="line"/>
    </contour>
    <contour>
      <point x="1264" y="1400" type="line"/>
      <point x="1240" y="1400" type="line"/>
      <point x="1240" y="0" type="line"/>
      <point x="1264" y="0" type="line"/>
    </contour>
  </outline>
</glyph>
<glyph name="I" format="2">
  <advance width="488"/>
  <unicode hex="0049"/>
  <anchor x="246" y="1496" name="Top"/>
  <anchor x="-68" y="1120" name="onRight"/>
  <anchor x="246" y="1496" name="top"/>
  <anchor x="244" y="-70" name="bottom"/>
  <outline>
    <contour>
      <point x="256" y="1400" type="line"/>
      <point x="232" y="1400" type="line"/>
      <point x="232" y="0" type="line"/>
      <point x="256" y="0" type="line"/>
    </contour>
  </outline>
</glyph>
<glyph name="J" format="2">
  <advance width="815"/>
  <unicode hex="004A"/>
  <anchor x="586" y="1496" name="Top"/>
  <anchor x="552" y="700" name="Bar"/>
  <anchor x="586" y="1496" name="top"/>
  <anchor x="268" y="-70" name="bottom"/>
  <outline>
    <contour>
      <point x="598" y="1400" type="line"/>
      <point x="574" y="1400" type="line"/>
      <point x="574" y="452" type="line" smooth="yes"/>
      <point x="574" y="154"/>
      <point x="428" y="4"/>
      <point x="200" y="4" type="curve" smooth="yes"/>
      <point x="108" y="4"/>
      <point x="68" y="30"/>
      <point x="42" y="30" type="curve" smooth="yes"/>
      <point x="32" y="30"/>
      <point x="32" y="24"/>
      <point x="30" y="20" type="curve"/>
      <point x="30" y="18"/>
      <point x="28" y="16"/>
      <point x="28" y="14" type="curve"/>
      <point x="88" y="-6"/>
      <point x="146" y="-16"/>
      <point x="200" y="-16" type="curve" smooth="yes"/>
      <point x="436" y="-16"/>
      <point x="598" y="138"/>
      <point x="598" y="452" type="curve" smooth="yes"/>
    </contour>
  </outline>
</glyph>
<glyph name="K" format="2">
  <advance width="1222"/>
  <unicode hex="004B"/>
  <anchor x="663" y="1496" name="Top"/>
  <anchor x="601" y="-70" name="bottom"/>
  <anchor x="663" y="1496" name="top"/>
  <outline>
    <contour>
      <point x="256" y="1400" type="line"/>
      <point x="232" y="1400" type="line"/>
      <point x="232" y="0" type="line"/>
      <point x="256" y="0" type="line"/>
    </contour>
    <contour>
      <point x="248" y="704" type="line"/>
      <point x="350" y="704" type="line" smooth="yes"/>
      <point x="414" y="704"/>
      <point x="424" y="692"/>
      <point x="454" y="664" type="curve" smooth="yes"/>
      <point x="1142" y="14" type="line"/>
      <point x="1152" y="4"/>
      <point x="1158" y="0"/>
      <point x="1178" y="0" type="curve" smooth="yes"/>
      <point x="1188" y="0" type="line"/>
      <point x="466" y="682" type="line"/>
      <point x="436" y="712"/>
      <point x="416" y="718"/>
      <point x="356" y="718" type="curve"/>
      <point x="332" y="710" type="line"/>
      <point x="424" y="712"/>
      <point x="428" y="714"/>
      <point x="468" y="748" type="curve"/>
      <point x="1148" y="1400" type="line"/>
      <point x="1136" y="1400" type="line" smooth="yes"/>
      <point x="1122" y="1400"/>
      <point x="1114" y="1396"/>
      <point x="1100" y="1384" type="curve"/>
      <point x="448" y="758" type="line"/>
      <point x="418" y="728"/>
      <point x="400" y="724"/>
      <point x="350" y="724" type="curve" smooth="yes"/>
      <point x="248" y="724" type="line"/>
    </contour>
  </outline>
</glyph>
<glyph name="L" format="2">
  <advance width="1000"/>
  <unicode hex="004C"/>
  <anchor x="244" y="1496" name="Top"/>
  <anchor x="580" y="-70" name="bottom"/>
  <anchor x="246" y="700" name="Bar"/>
  <anchor x="244" y="1496" name="top"/>
  <outline>
    <contour>
      <point x="256" y="1400" type="line"/>
      <point x="232" y="1400" type="line"/>
      <point x="232" y="0" type="line"/>
      <point x="256" y="0" type="line"/>
    </contour>
    <contour>
      <point x="248" y="22" type="line"/>
      <point x="248" y="0" type="line"/>
      <point x="970" y="0" type="line"/>
      <point x="970" y="22" type="line"/>
    </contour>
  </outline>
</glyph>
<glyph name="M" format="2">
  <advance width="1782"/>
  <unicode hex="004D"/>
  <anchor x="900" y="1496" name="Top"/>
  <anchor x="900" y="1496" name="top"/>
  <anchor x="891" y="-70" name="bottom"/>
  <outline>
    <contour>
      <point x="898" y="292" type="curve"/>
      <point x="904" y="292" type="line"/>
      <point x="902" y="298"/>
      <point x="897" y="309"/>
      <point x="890" y="321" type="curve" smooth="yes"/>
      <point x="254" y="1392" type="line"/>
      <point x="250" y="1398"/>
      <point x="246" y="1400"/>
      <point x="240" y="1400" type="curve" smooth="yes"/>
      <point x="232" y="1400" type="line"/>
      <point x="232" y="0" type="line"/>
      <point x="252" y="0" type="line"/>
      <point x="252" y="1338" type="line" smooth="yes"/>
      <point x="252" y="1354"/>
      <point x="250" y="1372"/>
      <point x="248" y="1388" type="curve"/>
      <point x="238" y="1380" type="line"/>
      <point x="884" y="290" type="line"/>
      <point x="888" y="284"/>
      <point x="892" y="280"/>
      <point x="898" y="280" type="curve" smooth="yes"/>
      <point x="904" y="280" type="line" smooth="yes"/>
      <point x="910" y="280"/>
      <point x="914" y="284"/>
      <point x="918" y="290" type="curve"/>
      <point x="1544" y="1380" type="line"/>
      <point x="1534" y="1388" type="line"/>
      <point x="1532" y="1372"/>
      <point x="1530" y="1354"/>
      <point x="1530" y="1338" type="curve" smooth="yes"/>
      <point x="1530" y="0" type="line"/>
      <point x="1550" y="0" type="line"/>
      <point x="1550" y="1400" type="line"/>
      <point x="1542" y="1400" type="line" smooth="yes"/>
      <point x="1536" y="1400"/>
      <point x="1532" y="1398"/>
      <point x="1528" y="1392" type="curve"/>
      <point x="912" y="321" type="line" smooth="yes"/>
      <point x="905" y="309"/>
      <point x="900" y="298"/>
    </contour>
  </outline>
</glyph>
<glyph name="N" format="2">
  <advance width="1496"/>
  <unicode hex="004E"/>
  <anchor x="777" y="1494" name="Top"/>
  <anchor x="777" y="1494" name="top"/>
  <anchor x="748" y="-70" name="bottom"/>
  <outline>
    <contour>
      <point x="1262" y="20" type="line"/>
      <point x="254" y="1392" type="line"/>
      <point x="250" y="1398"/>
      <point x="246" y="1400"/>
      <point x="240" y="1400" type="curve" smooth="yes"/>
      <point x="232" y="1400" type="line"/>
      <point x="232" y="0" type="line"/>
      <point x="252" y="0" type="line"/>
      <point x="252" y="1338" type="line" smooth="yes"/>
      <point x="252" y="1354"/>
      <point x="250" y="1372"/>
      <point x="248" y="1388" type="curve"/>
      <point x="238" y="1380" type="line"/>
      <point x="1247" y="7" type="line" smooth="yes"/>
      <point x="1250" y="3"/>
      <point x="1253" y="0"/>
      <point x="1258" y="0" type="curve" smooth="yes"/>
      <point x="1264" y="0" type="line"/>
      <point x="1264" y="1400" type="line"/>
      <point x="1244" y="1400" type="line"/>
      <point x="1244" y="64" type="line" smooth="yes"/>
      <point x="1244" y="50"/>
      <point x="1246" y="34"/>
      <point x="1248" y="20" type="curve"/>
    </contour>
  </outline>
</glyph>
<glyph name="O" format="2">
  <advance width="1568"/>
  <unicode hex="004F"/>
  <anchor x="785" y="1496" name="Top"/>
  <anchor x="-54" y="1120" name="onRight"/>
  <anchor x="784" y="-70" name="bottom"/>
  <anchor x="788" y="700" name="Slash"/>
  <anchor x="785" y="1496" name="top"/>
  <outline>
    <contour>
      <point x="1431" y="700" type="curve" smooth="yes"/>
      <point x="1431" y="1142"/>
      <point x="1167" y="1416"/>
      <point x="783" y="1416" type="curve" smooth="yes"/>
      <point x="403" y="1416"/>
      <point x="137" y="1140"/>
      <point x="137" y="700" type="curve" smooth="yes"/>
      <point x="137" y="258"/>
      <point x="403" y="-14"/>
      <point x="783" y="-14" type="curve" smooth="yes"/>
      <point x="1167" y="-14"/>
      <point x="1431" y="258"/>
    </contour>
    <contour>
      <point x="1405" y="700" type="curve" smooth="yes"/>
      <point x="1405" y="266"/>
      <point x="1151" y="6"/>
      <point x="783" y="6" type="curve" smooth="yes"/>
      <point x="421" y="6"/>
      <point x="161" y="266"/>
      <point x="161" y="700" type="curve" smooth="yes"/>
      <point x="161" y="1134"/>
      <point x="421" y="1396"/>
      <point x="783" y="1396" type="curve" smooth="yes"/>
      <point x="1151" y="1396"/>
      <point x="1405" y="1134"/>
    </contour>
  </outline>
</glyph>
<glyph name="P" format="2">
  <advance width="1118"/>
  <unicode hex="0050"/>
  <anchor x="549" y="1496" name="Top"/>
  <anchor x="246" y="988" name="Bar"/>
  <anchor x="759" y="645" name="tick"/>
  <anchor x="549" y="1496" name="top"/>
  <anchor x="244" y="-70" name="bottom"/>
  <outline>
    <contour>
      <point x="246" y="600" type="line"/>
      <point x="548" y="600" type="line" smooth="yes"/>
      <point x="828" y="600"/>
      <point x="1022" y="768"/>
      <point x="1022" y="1000" type="curve" smooth="yes"/>
      <point x="1022" y="1270"/>
      <point x="854" y="1400"/>
      <point x="548" y="1400" type="curve" smooth="yes"/>
      <point x="232" y="1400" type="line"/>
      <point x="232" y="0" type="line"/>
      <point x="256" y="0" type="line"/>
      <point x="256" y="1380" type="line"/>
      <point x="548" y="1380" type="line" smooth="yes"/>
      <point x="846" y="1380"/>
      <point x="998" y="1248"/>
      <point x="998" y="1000" type="curve" smooth="yes"/>
      <point x="998" y="788"/>
      <point x="822" y="620"/>
      <point x="548" y="620" type="curve" smooth="yes"/>
      <point x="248" y="620" type="line"/>
    </contour>
  </outline>
</glyph>
<glyph name="Q" format="2">
  <advance width="1568"/>
  <unicode hex="0051"/>
  <anchor x="785" y="1496" name="Top"/>
  <anchor x="785" y="1496" name="top"/>
  <anchor x="784" y="-70" name="bottom"/>
  <anchor x="-54" y="1120" name="onRight"/>
  <anchor x="788" y="700" name="Slash"/>
  <outline>
    <component base="O"/>
    <contour>
      <point x="1105" y="72" type="line"/>
      <point x="1077" y="68" type="line"/>
      <point x="1439" y="-318" type="line"/>
      <point x="1443" y="-322"/>
      <point x="1449" y="-326"/>
      <point x="1459" y="-326" type="curve" smooth="yes"/>
      <point x="1481" y="-326" type="line"/>
    </contour>
  </outline>
</glyph>
<glyph name="S" format="2">
  <advance width="1058"/>
  <unicode hex="0053"/>
  <anchor x="577" y="1496" name="Top"/>
  <anchor x="499" y="-70" name="bottom"/>
  <anchor x="577" y="1496" name="top"/>
  <outline>
    <contour>
      <point x="884" y="1278" type="line"/>
      <point x="792" y="1374"/>
      <point x="692" y="1416"/>
      <point x="556" y="1416" type="curve" smooth="yes"/>
      <point x="314" y="1416"/>
      <point x="178" y="1254"/>
      <point x="178" y="1076" type="curve" smooth="yes"/>
      <point x="178" y="614"/>
      <point x="908" y="832"/>
      <point x="908" y="390" type="curve" smooth="yes"/>
      <point x="908" y="180"/>
      <point x="758" y="4"/>
      <point x="500" y="4" type="curve" smooth="yes"/>
      <point x="236" y="4"/>
      <point x="150" y="176"/>
      <point x="126" y="176" type="curve" smooth="yes"/>
      <point x="120" y="176"/>
      <point x="118" y="174"/>
      <point x="114" y="170" type="curve" smooth="yes"/>
      <point x="110" y="166" type="line"/>
      <point x="206" y="52"/>
      <point x="312" y="-16"/>
      <point x="500" y="-16" type="curve" smooth="yes"/>
      <point x="772" y="-16"/>
      <point x="930" y="166"/>
      <point x="930" y="394" type="curve" smooth="yes"/>
      <point x="930" y="846"/>
      <point x="200" y="642"/>
      <point x="200" y="1076" type="curve" smooth="yes"/>
      <point x="200" y="1244"/>
      <point x="326" y="1396"/>
      <point x="556" y="1396" type="curve" smooth="yes"/>
      <point x="780" y="1396"/>
      <point x="844" y="1266"/>
      <point x="870" y="1266" type="curve" smooth="yes"/>
      <point x="874" y="1266"/>
      <point x="878" y="1268"/>
      <point x="880" y="1272" type="curve"/>
    </contour>
  </outline>
</glyph>
<glyph name="T" format="2">
  <advance width="1138"/>
  <unicode hex="0054"/>
  <anchor x="571" y="1496" name="Top"/>
  <anchor x="571" y="-70" name="bottom"/>
  <anchor x="569" y="700" name="Slash"/>
  <anchor x="571" y="1496" name="top"/>
  <outline>
    <contour>
      <point x="583" y="1390" type="line"/>
      <point x="559" y="1390" type="line"/>
      <point x="559" y="0" type="line"/>
      <point x="583" y="0" type="line"/>
    </contour>
    <contour>
      <point x="29" y="1400" type="line"/>
      <point x="29" y="1378" type="line"/>
      <point x="1109" y="1378" type="line"/>
      <point x="1109" y="1400" type="line"/>
    </contour>
  </outline>
</glyph>
<glyph name="U" format="2">
  <advance width="1440"/>
  <unicode hex="0055"/>
  <anchor x="720" y="1496" name="Top"/>
  <anchor x="720" y="1496" name="top"/>
  <anchor x="720" y="-70" name="bottom"/>
  <outline>
    <contour>
      <point x="720" y="4" type="curve" smooth="yes"/>
      <point x="418" y="4"/>
      <point x="238" y="236"/>
      <point x="238" y="522" type="curve" smooth="yes"/>
      <point x="238" y="1400" type="line"/>
      <point x="214" y="1400" type="line"/>
      <point x="214" y="520" type="line" smooth="yes"/>
      <point x="214" y="224"/>
      <point x="408" y="-18"/>
      <point x="720" y="-18" type="curve" smooth="yes"/>
      <point x="1032" y="-18"/>
      <point x="1226" y="224"/>
      <point x="1226" y="520" type="curve" smooth="yes"/>
      <point x="1226" y="1400" type="line"/>
      <point x="1202" y="1400" type="line"/>
      <point x="1202" y="520" type="line" smooth="yes"/>
      <point x="1202" y="234"/>
      <point x="1022" y="4"/>
    </contour>
  </outline>
</glyph>
<glyph name="V" format="2">
  <advance width="1274"/>
  <unicode hex="0056"/>
  <anchor x="638" y="1496" name="Top"/>
  <anchor x="638" y="1496" name="top"/>
  <anchor x="637" y="-70" name="bottom"/>
  <outline>
    <contour>
      <point x="1231" y="1400" type="line"/>
      <point x="1215" y="1400" type="line" smooth="yes"/>
      <point x="1209" y="1400"/>
      <point x="1203" y="1396"/>
      <point x="1201" y="1390" type="curve"/>
      <point x="653" y="74" type="line" smooth="yes"/>
      <point x="643" y="50"/>
      <point x="635" y="32"/>
      <point x="629" y="0" type="curve"/>
      <point x="647" y="0" type="line"/>
    </contour>
    <contour>
      <point x="627" y="0" type="line"/>
      <point x="645" y="0" type="line"/>
      <point x="639" y="32"/>
      <point x="631" y="50"/>
      <point x="621" y="74" type="curve" smooth="yes"/>
      <point x="73" y="1390" type="line"/>
      <point x="71" y="1396"/>
      <point x="67" y="1400"/>
      <point x="61" y="1400" type="curve" smooth="yes"/>
      <point x="43" y="1400" type="line"/>
    </contour>
  </outline>
</glyph>
<glyph name="W" format="2">
  <advance width="2002"/>
  <unicode hex="0057"/>
  <guideline y="83"/>
  <anchor x="1000" y="1496" name="Top"/>
  <anchor x="1000" y="1496" name="top"/>
  <anchor x="1001" y="-70" name="bottom"/>
  <outline>
    <contour>
      <point x="1000" y="1400" type="line" smooth="yes"/>
      <point x="994" y="1400"/>
      <point x="988" y="1396"/>
      <point x="986" y="1390" type="curve" smooth="yes"/>
      <point x="531" y="83" type="line" smooth="yes"/>
      <point x="523" y="59"/>
      <point x="516" y="32"/>
      <point x="510" y="0" type="curve"/>
      <point x="526" y="0" type="line"/>
      <point x="992" y="1344" type="line" smooth="yes"/>
      <point x="998" y="1361"/>
      <point x="1001" y="1374"/>
      <point x="1003" y="1388" type="curve"/>
      <point x="999" y="1388" type="line"/>
      <point x="1001" y="1374"/>
      <point x="1004" y="1362"/>
      <point x="1010" y="1344" type="curve" smooth="yes"/>
      <point x="1476" y="0" type="line"/>
      <point x="1492" y="0" type="line"/>
      <point x="1486" y="32"/>
      <point x="1479" y="59"/>
      <point x="1471" y="83" type="curve" smooth="yes"/>
      <point x="1016" y="1390" type="line" smooth="yes"/>
      <point x="1014" y="1396"/>
      <point x="1010" y="1400"/>
      <point x="1004" y="1400" type="curve" smooth="yes"/>
    </contour>
    <contour>
      <point x="506" y="0" type="line"/>
      <point x="522" y="0" type="line"/>
      <point x="516" y="32"/>
      <point x="509" y="59"/>
      <point x="501" y="83" type="curve" smooth="yes"/>
      <point x="92" y="1390" type="line" smooth="yes"/>
      <point x="90" y="1396"/>
      <point x="86" y="1400"/>
      <point x="80" y="1400" type="curve" smooth="yes"/>
      <point x="62" y="1400" type="line"/>
    </contour>
    <contour>
      <point x="1940" y="1400" type="line"/>
      <point x="1924" y="1400" type="line" smooth="yes"/>
      <point x="1918" y="1400"/>
      <point x="1912" y="1396"/>
      <point x="1910" y="1390" type="curve" smooth="yes"/>
      <point x="1501" y="83" type="line" smooth="yes"/>
      <point x="1493" y="59"/>
      <point x="1486" y="32"/>
      <point x="1480" y="0" type="curve"/>
      <point x="1496" y="0" type="line"/>
    </contour>
  </outline>
</glyph>
<glyph name="Y" format="2">
  <advance width="1140"/>
  <unicode hex="0059"/>
  <guideline y="662"/>
  <anchor x="570" y="1496" name="Top"/>
  <anchor x="-166" y="1120" name="onRight"/>
  <anchor x="570" y="1496" name="top"/>
  <anchor x="570" y="-70" name="bottom"/>
  <outline>
    <contour>
      <point x="1104" y="1400" type="line"/>
      <point x="1084" y="1400" type="line" smooth="yes"/>
      <point x="1078" y="1400"/>
      <point x="1074" y="1398"/>
      <point x="1070" y="1392" type="curve" smooth="yes"/>
      <point x="599" y="662" type="line" smooth="yes"/>
      <point x="584" y="638"/>
      <point x="568" y="616"/>
      <point x="562" y="592" type="curve"/>
      <point x="580" y="592" type="line"/>
    </contour>
    <contour>
      <point x="560" y="592" type="line"/>
      <point x="578" y="592" type="line"/>
      <point x="572" y="616"/>
      <point x="557" y="638"/>
      <point x="541" y="662" type="curve" smooth="yes"/>
      <point x="70" y="1392" type="line" smooth="yes"/>
      <point x="66" y="1398"/>
      <point x="62" y="1400"/>
      <point x="56" y="1400" type="curve" smooth="yes"/>
      <point x="36" y="1400" type="line"/>
    </contour>
    <contour>
      <point x="582" y="608" type="line"/>
      <point x="558" y="608" type="line"/>
      <point x="558" y="0" type="line"/>
      <point x="582" y="0" type="line"/>
    </contour>
  </outline>
</glyph>
<glyph name="bracketleft" format="2">
  <advance width="578"/>
  <unicode hex="005B"/>
  <outline>
    <contour>
      <point x="494" y="1502" type="line"/>
      <point x="220" y="1502" type="line"/>
      <point x="220" y="1484" type="line"/>
      <point x="480" y="1484" type="line" smooth="yes"/>
      <point x="490" y="1484"/>
      <point x="494" y="1488"/>
      <point x="494" y="1496" type="curve" smooth="yes"/>
    </contour>
    <contour>
      <point x="494" y="-242" type="line"/>
      <point x="494" y="-236" type="line" smooth="yes"/>
      <point x="494" y="-228"/>
      <point x="490" y="-224"/>
      <point x="480" y="-224" type="curve" smooth="yes"/>
      <point x="220" y="-224" type="line"/>
      <point x="220" y="-242" type="line"/>
    </contour>
    <contour>
      <point x="242" y="1502" type="line"/>
      <point x="220" y="1502" type="line"/>
      <point x="220" y="-242" type="line"/>
      <point x="242" y="-242" type="line"/>
    </contour>
  </outline>
</glyph>
<glyph name="backslash" format="2">
  <advance width="840"/>
  <unicode hex="005C"/>
  <outline>
    <contour>
      <point x="725" y="-66" type="line" smooth="yes"/>
      <point x="729" y="-76"/>
      <point x="739" y="-78"/>
      <point x="747" y="-78" type="curve" smooth="yes"/>
      <point x="755" y="-78" type="line"/>
      <point x="115" y="1428" type="line"/>
      <point x="111" y="1436"/>
      <point x="105" y="1440"/>
      <point x="95" y="1440" type="curve" smooth="yes"/>
      <point x="85" y="1440" type="line"/>
    </contour>
  </outline>
</glyph>
<glyph name="bracketright" format="2">
  <advance width="578"/>
  <unicode hex="005D"/>
  <outline>
    <contour>
      <point x="84" y="1496" type="line"/>
      <point x="84" y="1488"/>
      <point x="88" y="1484"/>
      <point x="98" y="1484" type="curve" smooth="yes"/>
      <point x="358" y="1484" type="line"/>
      <point x="358" y="1502" type="line"/>
      <point x="84" y="1502" type="line"/>
    </contour>
    <contour>
      <point x="358" y="-242" type="line"/>
      <point x="358" y="-224" type="line"/>
      <point x="98" y="-224" type="line" smooth="yes"/>
      <point x="88" y="-224"/>
      <point x="84" y="-228"/>
      <point x="84" y="-236" type="curve" smooth="yes"/>
      <point x="84" y="-242" type="line"/>
    </contour>
    <contour>
      <point x="336" y="-242" type="line"/>
      <point x="358" y="-242" type="line"/>
      <point x="358" y="1502" type="line"/>
      <point x="336" y="1502" type="line"/>
    </contour>
  </outline>
</glyph>
<glyph name="asciicircum" format="2">
  <advance width="1160"/>
  <unicode hex="005E"/>
  <outline>
    <contour>
      <point x="208" y="732" type="line"/>
      <point x="222" y="732" type="line" smooth="yes"/>
      <point x="232" y="732"/>
      <point x="239" y="740"/>
      <point x="242" y="746" type="curve"/>
      <point x="562" y="1332" type="line" smooth="yes"/>
      <point x="574" y="1354"/>
      <point x="584" y="1376"/>
      <point x="586" y="1400" type="curve"/>
      <point x="574" y="1400" type="line"/>
    </contour>
    <contour>
      <point x="586" y="1400" type="line"/>
      <point x="574" y="1400" type="line"/>
      <point x="576" y="1376"/>
      <point x="586" y="1354"/>
      <point x="598" y="1332" type="curve" smooth="yes"/>
      <point x="918" y="746" type="line"/>
      <point x="922" y="738"/>
      <point x="930" y="732"/>
      <point x="938" y="732" type="curve" smooth="yes"/>
      <point x="952" y="732" type="line"/>
    </contour>
  </outline>
</glyph>
<glyph name="underscore" format="2">
  <advance width="886"/>
  <unicode hex="005F"/>
  <outline>
    <contour>
      <point x="49" y="-240" type="line"/>
      <point x="49" y="-262" type="line"/>
      <point x="837" y="-262" type="line"/>
      <point x="837" y="-240" type="line"/>
    </contour>
  </outline>
</glyph>
<glyph name="grave" format="2">
  <advance width="800"/>
  <unicode hex="0060"/>
  <anchor x="400" y="1120" name="_top"/>
  <outline>
    <contour>
      <point x="248" y="1416" type="line"/>
      <point x="450" y="1166" type="line"/>
      <point x="454" y="1160"/>
      <point x="460" y="1158"/>
      <point x="466" y="1158" type="curve" smooth="yes"/>
      <point x="480" y="1158" type="line"/>
      <point x="316" y="1394" type="line" smooth="yes"/>
      <point x="304" y="1412"/>
      <point x="296" y="1416"/>
      <point x="274" y="1416" type="curve" smooth="yes"/>
    </contour>
  </outline>
</glyph>
<glyph name="a" format="2">
  <advance width="946"/>
  <unicode hex="0061"/>
  <anchor x="464" y="1120" name="top"/>
  <anchor x="772" y="20" name="hook"/>
  <anchor x="489" y="-70" name="bottom"/>
  <outline>
    <contour>
      <point x="772" y="648" type="line"/>
      <point x="772" y="864"/>
      <point x="682" y="996"/>
      <point x="482" y="996" type="curve" smooth="yes"/>
      <point x="346" y="996"/>
      <point x="250" y="942"/>
      <point x="154" y="840" type="curve"/>
      <point x="158" y="836" type="line" smooth="yes"/>
      <point x="162" y="832"/>
      <point x="164" y="830"/>
      <point x="168" y="830" type="curve" smooth="yes"/>
      <point x="190" y="830"/>
      <point x="274" y="976"/>
      <point x="482" y="976" type="curve" smooth="yes"/>
      <point x="658" y="976"/>
      <point x="748" y="854"/>
      <point x="748" y="648" type="curve"/>
      <point x="748" y="635" type="line"/>
      <point x="772" y="635" type="line"/>
    </contour>
    <contour>
      <point x="772" y="0" type="line"/>
      <point x="772" y="643" type="line"/>
      <point x="748" y="643" type="line"/>
      <point x="748" y="182" type="line"/>
      <point x="754" y="16" type="line"/>
      <point x="754" y="6"/>
      <point x="760" y="0"/>
      <point x="768" y="0" type="curve" smooth="yes"/>
    </contour>
    <contour>
      <point x="760" y="188" type="curve"/>
      <point x="750" y="202" type="line"/>
      <point x="650" y="96"/>
      <point x="538" y="4"/>
      <point x="354" y="4" type="curve" smooth="yes"/>
      <point x="240" y="4"/>
      <point x="126" y="74"/>
      <point x="126" y="230" type="curve" smooth="yes"/>
      <point x="126" y="398"/>
      <point x="330" y="490"/>
      <point x="754" y="502" type="curve"/>
      <point x="754" y="522" type="line"/>
      <point x="308" y="512"/>
      <point x="102" y="408"/>
      <point x="102" y="230" type="curve" smooth="yes"/>
      <point x="102" y="52"/>
      <point x="236" y="-16"/>
      <point x="354" y="-16" type="curve" smooth="yes"/>
      <point x="536" y="-16"/>
      <point x="644" y="64"/>
    </contour>
  </outline>
</glyph>
<glyph name="b" format="2">
  <advance width="1087"/>
  <unicode hex="0062"/>
  <anchor x="531" y="-70" name="bottom"/>
  <anchor x="555" y="1120" name="top"/>
  <anchor x="656" y="20" name="hook"/>
  <anchor x="196" y="1238" name="bar"/>
  <anchor x="196" y="1496" name="Top"/>
  <outline>
    <contour>
      <point x="192" y="0" type="line" smooth="yes"/>
      <point x="202" y="0"/>
      <point x="204" y="8"/>
      <point x="204" y="14" type="curve"/>
      <point x="208" y="179" type="line"/>
      <point x="208" y="187" type="line"/>
      <point x="208" y="1440" type="line"/>
      <point x="184" y="1440" type="line"/>
      <point x="184" y="0" type="line"/>
    </contour>
    <contour>
      <point x="198" y="180" type="line"/>
      <point x="272" y="50"/>
      <point x="384" y="-12"/>
      <point x="535" y="-12" type="curve" smooth="yes"/>
      <point x="814" y="-12"/>
      <point x="964" y="200"/>
      <point x="964" y="518" type="curve" smooth="yes"/>
      <point x="964" y="824"/>
      <point x="825" y="996"/>
      <point x="584" y="996" type="curve" smooth="yes"/>
      <point x="408" y="996"/>
      <point x="284" y="904"/>
      <point x="196" y="760" type="curve"/>
      <point x="200" y="734" type="line"/>
      <point x="290" y="884"/>
      <point x="414" y="976"/>
      <point x="584" y="976" type="curve" smooth="yes"/>
      <point x="809" y="976"/>
      <point x="940" y="816"/>
      <point x="940" y="516" type="curve" smooth="yes"/>
      <point x="940" y="218"/>
      <point x="811" y="8"/>
      <point x="534" y="8" type="curve" smooth="yes"/>
      <point x="393" y="8"/>
      <point x="286" y="62"/>
      <point x="198" y="212" type="curve"/>
    </contour>
  </outline>
</glyph>
<glyph name="d" format="2">
  <advance width="1087"/>
  <unicode hex="0064"/>
  <anchor x="533" y="1120" name="top"/>
  <anchor x="903" y="20" name="hook"/>
  <anchor x="891" y="1238" name="bar"/>
  <anchor x="891" y="1496" name="Top"/>
  <anchor x="614" y="-70" name="bottom"/>
  <outline>
    <contour>
      <point x="903" y="0" type="line"/>
      <point x="903" y="1440" type="line"/>
      <point x="879" y="1440" type="line"/>
      <point x="879" y="223" type="line"/>
      <point x="879" y="219" type="line"/>
      <point x="883" y="16" type="line"/>
      <point x="883" y="4"/>
      <point x="887" y="0"/>
      <point x="897" y="0" type="curve" smooth="yes"/>
    </contour>
    <contour>
      <point x="889" y="804" type="line"/>
      <point x="815" y="934"/>
      <point x="703" y="996"/>
      <point x="553" y="996" type="curve" smooth="yes"/>
      <point x="269" y="996"/>
      <point x="123" y="772"/>
      <point x="123" y="488" type="curve" smooth="yes"/>
      <point x="123" y="148"/>
      <point x="261" y="-12"/>
      <point x="515" y="-12" type="curve" smooth="yes"/>
      <point x="669" y="-12"/>
      <point x="803" y="80"/>
      <point x="891" y="224" type="curve"/>
      <point x="887" y="250" type="line"/>
      <point x="797" y="100"/>
      <point x="663" y="8"/>
      <point x="515" y="8" type="curve" smooth="yes"/>
      <point x="275" y="8"/>
      <point x="147" y="164"/>
      <point x="147" y="488" type="curve" smooth="yes"/>
      <point x="147" y="762"/>
      <point x="279" y="976"/>
      <point x="553" y="976" type="curve" smooth="yes"/>
      <point x="697" y="976"/>
      <point x="801" y="922"/>
      <point x="889" y="772" type="curve"/>
    </contour>
  </outline>
</glyph>
<glyph name="e" format="2">
  <advance width="1031"/>
  <unicode hex="0065"/>
  <anchor x="548" y="1120" name="top"/>
  <anchor x="553" y="-70" name="bottom"/>
  <anchor x="894" y="20" name="hook"/>
  <outline>
    <contour>
      <point x="550" y="996" type="curve" smooth="yes"/>
      <point x="280" y="996"/>
      <point x="122" y="798"/>
      <point x="122" y="510" type="curve" smooth="yes"/>
      <point x="122" y="182"/>
      <point x="286" y="-12"/>
      <point x="554" y="-12" type="curve" smooth="yes"/>
      <point x="706" y="-12"/>
      <point x="850" y="60"/>
      <point x="894" y="116" type="curve"/>
      <point x="890" y="120" type="line" smooth="yes"/>
      <point x="888" y="122"/>
      <point x="886" y="124"/>
      <point x="882" y="124" type="curve" smooth="yes"/>
      <point x="872" y="124"/>
      <point x="772" y="8"/>
      <point x="554" y="8" type="curve" smooth="yes"/>
      <point x="308" y="8"/>
      <point x="146" y="186"/>
      <point x="146" y="510" type="curve" smooth="yes"/>
      <point x="146" y="786"/>
      <point x="292" y="976"/>
      <point x="550" y="976" type="curve" smooth="yes"/>
      <point x="746" y="976"/>
      <point x="900" y="836"/>
      <point x="900" y="582" type="curve"/>
      <point x="142" y="582" type="line"/>
      <point x="140" y="564" type="line"/>
      <point x="910" y="564" type="line" smooth="yes"/>
      <point x="916" y="564"/>
      <point x="922" y="568"/>
      <point x="922" y="574" type="curve" smooth="yes"/>
      <point x="922" y="846"/>
      <point x="756" y="996"/>
    </contour>
  </outline>
</glyph>
<glyph name="f" format="2">
  <advance width="664"/>
  <unicode hex="0066"/>
  <anchor x="261" y="20" name="hook"/>
  <anchor x="479" y="1476" name="top"/>
  <anchor x="249" y="532" name="bar"/>
  <anchor x="417" y="1496" name="Top"/>
  <anchor x="249" y="-70" name="bottom"/>
  <outline>
    <contour>
      <point x="261" y="0" type="line"/>
      <point x="261" y="926" type="line"/>
      <point x="261" y="934" type="line"/>
      <point x="261" y="1088" type="line" smooth="yes"/>
      <point x="261" y="1310"/>
      <point x="366" y="1394"/>
      <point x="504" y="1394" type="curve" smooth="yes"/>
      <point x="584" y="1394"/>
      <point x="610" y="1366"/>
      <point x="614" y="1384" type="curve"/>
      <point x="616" y="1392" type="line"/>
      <point x="588" y="1406"/>
      <point x="542" y="1414"/>
      <point x="504" y="1414" type="curve" smooth="yes"/>
      <point x="348" y="1414"/>
      <point x="237" y="1312"/>
      <point x="237" y="1088" type="curve" smooth="yes"/>
      <point x="237" y="0" type="line"/>
    </contour>
    <contour>
      <point x="610" y="918" type="line"/>
      <point x="610" y="938" type="line"/>
      <point x="61" y="938" type="line"/>
      <point x="61" y="930" type="line" smooth="yes"/>
      <point x="61" y="926"/>
      <point x="65" y="922"/>
      <point x="73" y="922" type="curve"/>
      <point x="243" y="918" type="line"/>
      <point x="257" y="918" type="line"/>
    </contour>
  </outline>
</glyph>
<glyph name="g" format="2">
  <advance width="1004"/>
  <unicode hex="0067"/>
  <anchor x="509" y="1120" name="top"/>
  <anchor x="450" y="-421" name="bottom"/>
  <outline>
    <contour>
      <point x="486" y="996" type="curve" smooth="yes"/>
      <point x="282" y="996"/>
      <point x="154" y="868"/>
      <point x="154" y="684" type="curve" smooth="yes"/>
      <point x="154" y="498"/>
      <point x="282" y="372"/>
      <point x="486" y="372" type="curve" smooth="yes"/>
      <point x="688" y="372"/>
      <point x="818" y="498"/>
      <point x="818" y="684" type="curve" smooth="yes"/>
      <point x="818" y="868"/>
      <point x="688" y="996"/>
    </contour>
    <contour>
      <point x="486" y="392" type="curve" smooth="yes"/>
      <point x="296" y="392"/>
      <point x="178" y="510"/>
      <point x="178" y="684" type="curve" smooth="yes"/>
      <point x="178" y="858"/>
      <point x="296" y="976"/>
      <point x="486" y="976" type="curve" smooth="yes"/>
      <point x="676" y="976"/>
      <point x="794" y="858"/>
      <point x="794" y="684" type="curve" smooth="yes"/>
      <point x="794" y="510"/>
      <point x="680" y="392"/>
    </contour>
    <contour>
      <point x="300" y="422" type="line"/>
      <point x="226" y="382"/>
      <point x="178" y="312"/>
      <point x="178" y="258" type="curve" smooth="yes"/>
      <point x="178" y="-30"/>
      <point x="902" y="240"/>
      <point x="902" y="-78" type="curve" smooth="yes"/>
      <point x="902" y="-242"/>
      <point x="708" y="-356"/>
      <point x="498" y="-356" type="curve" smooth="yes"/>
      <point x="262" y="-356"/>
      <point x="114" y="-248"/>
      <point x="114" y="-112" type="curve" smooth="yes"/>
      <point x="114" y="2"/>
      <point x="208" y="78"/>
      <point x="338" y="122" type="curve"/>
      <point x="314" y="130" type="line"/>
      <point x="178" y="88"/>
      <point x="90" y="2"/>
      <point x="90" y="-112" type="curve" smooth="yes"/>
      <point x="90" y="-256"/>
      <point x="234" y="-376"/>
      <point x="498" y="-376" type="curve" smooth="yes"/>
      <point x="756" y="-376"/>
      <point x="924" y="-234"/>
      <point x="924" y="-78" type="curve" smooth="yes"/>
      <point x="924" y="264"/>
      <point x="200" y="-6"/>
      <point x="200" y="258" type="curve" smooth="yes"/>
      <point x="200" y="312"/>
      <point x="252" y="378"/>
      <point x="324" y="414" type="curve"/>
    </contour>
    <contour>
      <point x="708" y="910" type="line"/>
      <point x="922" y="914" type="line"/>
      <point x="930" y="914"/>
      <point x="938" y="920"/>
      <point x="938" y="928" type="curve" smooth="yes"/>
      <point x="938" y="932" type="line"/>
      <point x="684" y="932" type="line"/>
    </contour>
  </outline>
  <guideline angle="90" x="534" y="0"/>
</glyph>
<glyph name="h" format="2">
  <advance width="1087"/>
  <unicode hex="0068"/>
  <anchor x="574" y="700" name="Slash"/>
  <anchor x="196" y="1496" name="Top"/>
  <anchor x="196" y="1496" name="top"/>
  <anchor x="549" y="-70" name="bottom"/>
  <outline>
    <contour>
      <point x="208" y="0" type="line"/>
      <point x="208" y="1440" type="line"/>
      <point x="184" y="1440" type="line"/>
      <point x="184" y="0" type="line"/>
    </contour>
    <contour>
      <point x="914" y="0" type="line"/>
      <point x="914" y="628" type="line"/>
      <point x="890" y="628" type="line"/>
      <point x="890" y="0" type="line"/>
    </contour>
    <contour>
      <point x="914" y="628" type="line"/>
      <point x="914" y="860"/>
      <point x="808" y="996"/>
      <point x="590" y="996" type="curve" smooth="yes"/>
      <point x="430" y="996"/>
      <point x="288" y="902"/>
      <point x="196" y="758" type="curve"/>
      <point x="200" y="734" type="line"/>
      <point x="298" y="884"/>
      <point x="434" y="976"/>
      <point x="590" y="976" type="curve" smooth="yes"/>
      <point x="794" y="976"/>
      <point x="890" y="846"/>
      <point x="890" y="628" type="curve"/>
    </contour>
  </outline>
</glyph>
<glyph name="i" format="2">
  <advance width="416"/>
  <unicode hex="0069"/>
  <guideline x="232"/>
  <anchor x="220" y="20" name="hook"/>
  <anchor x="208" y="1496" name="Top"/>
  <anchor x="208" y="1496" name="top"/>
  <anchor x="208" y="-70" name="bottom"/>
  <outline>
    <contour>
      <point x="196" y="980" type="line"/>
      <point x="196" y="0" type="line"/>
      <point x="220" y="0" type="line"/>
      <point x="220" y="980" type="line"/>
    </contour>
    <contour>
      <point x="264" y="1344" type="curve" smooth="yes"/>
      <point x="264" y="1374"/>
      <point x="236" y="1400"/>
      <point x="208" y="1400" type="curve" smooth="yes"/>
      <point x="178" y="1400"/>
      <point x="152" y="1374"/>
      <point x="152" y="1344" type="curve" smooth="yes"/>
      <point x="152" y="1316"/>
      <point x="178" y="1290"/>
      <point x="208" y="1290" type="curve" smooth="yes"/>
      <point x="236" y="1290"/>
      <point x="264" y="1316"/>
    </contour>
  </outline>
</glyph>
<glyph name="l" format="2">
  <advance width="416"/>
  <unicode hex="006C"/>
  <anchor x="207" y="1496" name="Top"/>
  <anchor x="220" y="20" name="hook"/>
  <anchor x="209" y="-70" name="bottom"/>
  <anchor x="209" y="700" name="bar"/>
  <anchor x="207" y="1496" name="top"/>
  <outline>
    <contour>
      <point x="196" y="1440" type="line"/>
      <point x="196" y="0" type="line"/>
      <point x="220" y="0" type="line"/>
      <point x="220" y="1440" type="line"/>
    </contour>
  </outline>
</glyph>
<glyph name="o" format="2">
  <advance width="1101"/>
  <unicode hex="006F"/>
  <anchor x="552" y="1120" name="top"/>
  <anchor x="552" y="-70" name="bottom"/>
  <outline>
    <contour>
      <point x="550" y="996" type="curve" smooth="yes"/>
      <point x="274" y="996"/>
      <point x="122" y="794"/>
      <point x="122" y="490" type="curve" smooth="yes"/>
      <point x="122" y="186"/>
      <point x="274" y="-12"/>
      <point x="550" y="-12" type="curve" smooth="yes"/>
      <point x="826" y="-12"/>
      <point x="978" y="186"/>
      <point x="978" y="490" type="curve" smooth="yes"/>
      <point x="978" y="794"/>
      <point x="826" y="996"/>
    </contour>
    <contour>
      <point x="550" y="8" type="curve" smooth="yes"/>
      <point x="282" y="8"/>
      <point x="146" y="202"/>
      <point x="146" y="490" type="curve" smooth="yes"/>
      <point x="146" y="778"/>
      <point x="282" y="976"/>
      <point x="550" y="976" type="curve" smooth="yes"/>
      <point x="818" y="976"/>
      <point x="954" y="778"/>
      <point x="954" y="490" type="curve" smooth="yes"/>
      <point x="954" y="202"/>
      <point x="818" y="8"/>
    </contour>
  </outline>
  <guideline angle="90" x="530" y="0"/>
</glyph>
<glyph name="u" format="2">
  <advance width="1085"/>
  <unicode hex="0075"/>
  <anchor x="545" y="1120" name="top"/>
  <anchor x="903" y="20" name="hook"/>
  <anchor x="611" y="-70" name="bottom"/>
  <outline>
    <contour>
      <point x="879" y="980" type="line"/>
      <point x="879" y="228" type="line"/>
      <point x="879" y="224" type="line"/>
      <point x="883" y="16" type="line"/>
      <point x="883" y="4"/>
      <point x="887" y="0"/>
      <point x="897" y="0" type="curve" smooth="yes"/>
      <point x="903" y="0" type="line"/>
      <point x="903" y="980" type="line"/>
    </contour>
    <contour>
      <point x="173" y="980" type="line"/>
      <point x="173" y="352" type="line"/>
      <point x="197" y="352" type="line"/>
      <point x="197" y="980" type="line"/>
    </contour>
    <contour>
      <point x="173" y="352" type="line"/>
      <point x="173" y="120"/>
      <point x="279" y="-16"/>
      <point x="497" y="-16" type="curve" smooth="yes"/>
      <point x="657" y="-16"/>
      <point x="799" y="78"/>
      <point x="891" y="222" type="curve"/>
      <point x="887" y="246" type="line"/>
      <point x="789" y="96"/>
      <point x="653" y="4"/>
      <point x="497" y="4" type="curve" smooth="yes"/>
      <point x="293" y="4"/>
      <point x="197" y="134"/>
      <point x="197" y="352" type="curve"/>
    </contour>
  </outline>
</glyph>
<glyph name="v" format="2">
  <advance width="978"/>
  <unicode hex="0076"/>
  <anchor x="506" y="20" name="hook"/>
  <anchor x="489" y="1120" name="top"/>
  <anchor x="489" y="-70" name="bottom"/>
  <outline>
    <contour>
      <point x="480" y="0" type="line"/>
      <point x="494" y="0" type="line"/>
      <point x="492" y="24"/>
      <point x="486" y="46"/>
      <point x="476" y="68" type="curve" smooth="yes"/>
      <point x="86" y="966" type="line"/>
      <point x="84" y="972"/>
      <point x="78" y="980"/>
      <point x="68" y="980" type="curve" smooth="yes"/>
      <point x="54" y="980" type="line"/>
    </contour>
    <contour>
      <point x="924" y="980" type="line"/>
      <point x="910" y="980" type="line" smooth="yes"/>
      <point x="902" y="980"/>
      <point x="896" y="974"/>
      <point x="892" y="966" type="curve"/>
      <point x="502" y="68" type="line" smooth="yes"/>
      <point x="492" y="46"/>
      <point x="486" y="24"/>
      <point x="484" y="0" type="curve"/>
      <point x="498" y="0" type="line"/>
    </contour>
  </outline>
</glyph>
<glyph name="w" format="2">
  <advance width="1494"/>
  <unicode hex="0077"/>
  <anchor x="751" y="1120" name="top"/>
  <anchor x="747" y="-70" name="bottom"/>
  <outline>
    <contour>
      <point x="401" y="0" type="line"/>
      <point x="411" y="0" type="line" smooth="yes"/>
      <point x="415" y="0"/>
      <point x="419" y="4"/>
      <point x="421" y="10" type="curve" smooth="yes"/>
      <point x="739" y="922" type="line" smooth="yes"/>
      <point x="745" y="938"/>
      <point x="749" y="952"/>
      <point x="751" y="968" type="curve"/>
      <point x="745" y="968" type="line"/>
      <point x="747" y="952"/>
      <point x="751" y="938"/>
      <point x="757" y="922" type="curve"/>
      <point x="1071" y="10" type="line" smooth="yes"/>
      <point x="1073" y="4"/>
      <point x="1077" y="0"/>
      <point x="1083" y="0" type="curve" smooth="yes"/>
      <point x="1093" y="0" type="line"/>
      <point x="1429" y="980" type="line"/>
      <point x="1415" y="980" type="line" smooth="yes"/>
      <point x="1407" y="980"/>
      <point x="1401" y="974"/>
      <point x="1397" y="966" type="curve"/>
      <point x="1097" y="68" type="line"/>
      <point x="1089" y="46"/>
      <point x="1081" y="28"/>
      <point x="1079" y="4" type="curve"/>
      <point x="1087" y="2" type="line"/>
      <point x="1085" y="26"/>
      <point x="1079" y="46"/>
      <point x="1071" y="68" type="curve" smooth="yes"/>
      <point x="761" y="976" type="line" smooth="yes"/>
      <point x="759" y="982"/>
      <point x="757" y="986"/>
      <point x="751" y="986" type="curve" smooth="yes"/>
      <point x="745" y="986" type="line" smooth="yes"/>
      <point x="739" y="986"/>
      <point x="737" y="982"/>
      <point x="735" y="976" type="curve" smooth="yes"/>
      <point x="423" y="68" type="line" smooth="yes"/>
      <point x="415" y="46"/>
      <point x="409" y="28"/>
      <point x="407" y="4" type="curve"/>
      <point x="413" y="4" type="line"/>
      <point x="411" y="28"/>
      <point x="405" y="46"/>
      <point x="397" y="68" type="curve"/>
      <point x="97" y="966" type="line" smooth="yes"/>
      <point x="95" y="972"/>
      <point x="89" y="980"/>
      <point x="79" y="980" type="curve" smooth="yes"/>
      <point x="65" y="980" type="line"/>
    </contour>
  </outline>
</glyph>
<glyph name="y" format="2">
  <advance width="979"/>
  <unicode hex="0079"/>
  <anchor x="519" y="1120" name="top"/>
  <anchor x="399" y="-421" name="bottom"/>
  <outline>
    <contour>
      <point x="483" y="8" type="line"/>
      <point x="497" y="8" type="line"/>
      <point x="495" y="32"/>
      <point x="489" y="54"/>
      <point x="479" y="76" type="curve" smooth="yes"/>
      <point x="89" y="966" type="line"/>
      <point x="87" y="972"/>
      <point x="79" y="980"/>
      <point x="69" y="980" type="curve" smooth="yes"/>
      <point x="55" y="980" type="line"/>
    </contour>
    <contour>
      <point x="927" y="980" type="line"/>
      <point x="913" y="980" type="line" smooth="yes"/>
      <point x="905" y="980"/>
      <point x="899" y="974"/>
      <point x="895" y="966" type="curve"/>
      <point x="505" y="76" type="line"/>
      <point x="497" y="56"/>
      <point x="489" y="34"/>
      <point x="487" y="14" type="curve"/>
      <point x="481" y="22" type="line"/>
      <point x="311" y="-360" type="line"/>
      <point x="325" y="-360" type="line" smooth="yes"/>
      <point x="337" y="-360"/>
      <point x="345" y="-348"/>
      <point x="349" y="-338" type="curve"/>
    </contour>
  </outline>
</glyph>
<glyph name="z" format="2">
  <advance width="872"/>
  <unicode hex="007A"/>
  <anchor x="456" y="1120" name="top"/>
  <anchor x="441" y="-70" name="bottom"/>
  <anchor x="757" y="20" name="hook"/>
  <outline>
    <contour>
      <point x="798" y="980" type="line"/>
      <point x="106" y="980" type="line"/>
      <point x="106" y="960" type="line"/>
      <point x="778" y="960" type="line"/>
      <point x="770" y="966" type="line"/>
      <point x="78" y="20" type="line"/>
      <point x="74" y="14"/>
      <point x="72" y="12"/>
      <point x="72" y="6" type="curve" smooth="yes"/>
      <point x="72" y="0" type="line"/>
      <point x="768" y="0" type="line"/>
      <point x="768" y="20" type="line"/>
      <point x="92" y="20" type="line"/>
      <point x="100" y="12" type="line"/>
      <point x="792" y="958" type="line"/>
      <point x="796" y="964"/>
      <point x="798" y="966"/>
      <point x="798" y="970" type="curve" smooth="yes"/>
    </contour>
  </outline>
</glyph>
<glyph name="braceleft" format="2">
  <advance width="580"/>
  <unicode hex="007B"/>
  <guideline y="630"/>
  <outline>
    <contour>
      <point x="266" y="798" type="curve" smooth="yes"/>
      <point x="266" y="706"/>
      <point x="192" y="640"/>
      <point x="94" y="640" type="curve"/>
      <point x="94" y="620" type="line"/>
      <point x="118" y="628" type="line"/>
      <point x="186" y="628"/>
      <point x="288" y="684"/>
      <point x="288" y="798" type="curve" smooth="yes"/>
      <point x="288" y="948"/>
      <point x="220" y="1092"/>
      <point x="220" y="1244" type="curve" smooth="yes"/>
      <point x="220" y="1390"/>
      <point x="314" y="1484"/>
      <point x="438" y="1484" type="curve" smooth="yes"/>
      <point x="482" y="1484" type="line" smooth="yes"/>
      <point x="490" y="1484"/>
      <point x="494" y="1488"/>
      <point x="494" y="1494" type="curve" smooth="yes"/>
      <point x="494" y="1502" type="line"/>
      <point x="438" y="1502" type="line" smooth="yes"/>
      <point x="296" y="1502"/>
      <point x="198" y="1388"/>
      <point x="198" y="1244" type="curve" smooth="yes"/>
      <point x="198" y="1086"/>
      <point x="266" y="954"/>
    </contour>
    <contour>
      <point x="266" y="462" type="curve" smooth="yes"/>
      <point x="266" y="306"/>
      <point x="198" y="174"/>
      <point x="198" y="16" type="curve" smooth="yes"/>
      <point x="198" y="-128"/>
      <point x="296" y="-242"/>
      <point x="438" y="-242" type="curve" smooth="yes"/>
      <point x="494" y="-242" type="line"/>
      <point x="494" y="-234" type="line" smooth="yes"/>
      <point x="494" y="-228"/>
      <point x="490" y="-224"/>
      <point x="482" y="-224" type="curve" smooth="yes"/>
      <point x="438" y="-224" type="line" smooth="yes"/>
      <point x="314" y="-224"/>
      <point x="220" y="-130"/>
      <point x="220" y="16" type="curve" smooth="yes"/>
      <point x="220" y="168"/>
      <point x="288" y="312"/>
      <point x="288" y="462" type="curve" smooth="yes"/>
      <point x="288" y="576"/>
      <point x="186" y="632"/>
      <point x="118" y="632" type="curve"/>
      <point x="94" y="640" type="line"/>
      <point x="94" y="620" type="line"/>
      <point x="192" y="620"/>
      <point x="266" y="554"/>
    </contour>
  </outline>
</glyph>
<glyph name="bar" format="2">
  <advance width="456"/>
  <unicode hex="007C"/>
  <outline>
    <contour>
      <point x="218" y="-361" type="line"/>
      <point x="238" y="-361" type="line"/>
      <point x="238" y="1502" type="line"/>
      <point x="218" y="1502" type="line"/>
    </contour>
  </outline>
</glyph>
<glyph name="braceright" format="2">
  <advance width="580"/>
  <unicode hex="007D"/>
  <outline>
    <contour>
      <point x="314" y="798" type="curve" smooth="yes"/>
      <point x="314" y="954"/>
      <point x="382" y="1086"/>
      <point x="382" y="1244" type="curve" smooth="yes"/>
      <point x="382" y="1388"/>
      <point x="284" y="1502"/>
      <point x="142" y="1502" type="curve" smooth="yes"/>
      <point x="86" y="1502" type="line"/>
      <point x="86" y="1494" type="line" smooth="yes"/>
      <point x="86" y="1488"/>
      <point x="90" y="1484"/>
      <point x="98" y="1484" type="curve" smooth="yes"/>
      <point x="142" y="1484" type="line" smooth="yes"/>
      <point x="266" y="1484"/>
      <point x="360" y="1390"/>
      <point x="360" y="1244" type="curve" smooth="yes"/>
      <point x="360" y="1092"/>
      <point x="292" y="948"/>
      <point x="292" y="798" type="curve" smooth="yes"/>
      <point x="292" y="684"/>
      <point x="394" y="628"/>
      <point x="462" y="628" type="curve"/>
      <point x="486" y="620" type="line"/>
      <point x="486" y="640" type="line"/>
      <point x="388" y="640"/>
      <point x="314" y="706"/>
    </contour>
    <contour>
      <point x="314" y="462" type="curve" smooth="yes"/>
      <point x="314" y="554"/>
      <point x="388" y="620"/>
      <point x="486" y="620" type="curve"/>
      <point x="486" y="640" type="line"/>
      <point x="462" y="632" type="line"/>
      <point x="394" y="632"/>
      <point x="292" y="576"/>
      <point x="292" y="462" type="curve" smooth="yes"/>
      <point x="292" y="312"/>
      <point x="360" y="168"/>
      <point x="360" y="16" type="curve" smooth="yes"/>
      <point x="360" y="-130"/>
      <point x="266" y="-224"/>
      <point x="142" y="-224" type="curve" smooth="yes"/>
      <point x="98" y="-224" type="line" smooth="yes"/>
      <point x="90" y="-224"/>
      <point x="86" y="-228"/>
      <point x="86" y="-234" type="curve" smooth="yes"/>
      <point x="86" y="-242" type="line"/>
      <point x="142" y="-242" type="line" smooth="yes"/>
      <point x="284" y="-242"/>
      <point x="382" y="-128"/>
      <point x="382" y="16" type="curve" smooth="yes"/>
      <point x="382" y="174"/>
      <point x="314" y="306"/>
    </contour>
  </outline>
  <guideline angle="0" x="0" y="630"/>
</glyph>
<glyph name="asciitilde" format="2">
  <advance width="1160"/>
  <unicode hex="007E"/>
  <outline>
    <contour>
      <point x="799" y="528" type="curve"/>
      <point x="671" y="528"/>
      <point x="503" y="672"/>
      <point x="367" y="672" type="curve"/>
      <point x="237" y="672"/>
      <point x="163" y="568"/>
      <point x="163" y="452" type="curve"/>
      <point x="183" y="452" type="line"/>
      <point x="185" y="564"/>
      <point x="255" y="652"/>
      <point x="367" y="652" type="curve" smooth="yes"/>
      <point x="495" y="652"/>
      <point x="663" y="508"/>
      <point x="799" y="508" type="curve"/>
      <point x="929" y="508"/>
      <point x="1003" y="612"/>
      <point x="1003" y="728" type="curve"/>
      <point x="983" y="728" type="line"/>
      <point x="981" y="616"/>
      <point x="911" y="528"/>
    </contour>
  </outline>
</glyph>
<glyph name="exclamdown" format="2">
  <advance width="422"/>
  <unicode hex="00A1"/>
  <outline>
    <contour>
      <point x="226" y="-360" type="line"/>
      <point x="226" y="198" type="line" smooth="yes"/>
      <point x="226" y="316"/>
      <point x="224" y="392"/>
      <point x="220" y="550" type="curve"/>
      <point x="204" y="550" type="line"/>
      <point x="200" y="392"/>
      <point x="198" y="316"/>
      <point x="198" y="198" type="curve" smooth="yes"/>
      <point x="198" y="-360" type="line"/>
    </contour>
    <contour>
      <point x="144" y="932" type="curve" smooth="yes"/>
      <point x="144" y="896"/>
      <point x="172" y="866"/>
      <point x="208" y="866" type="curve" smooth="yes"/>
      <point x="244" y="866"/>
      <point x="274" y="896"/>
      <point x="274" y="932" type="curve" smooth="yes"/>
      <point x="274" y="968"/>
      <point x="244" y="996"/>
      <point x="208" y="996" type="curve" smooth="yes"/>
      <point x="172" y="996"/>
      <point x="144" y="968"/>
    </contour>
  </outline>
  <guideline angle="90" x="342" y="0"/>
</glyph>
<glyph name="cent" format="2">
  <advance width="1160"/>
  <unicode hex="00A2"/>
  <outline>
    <contour>
      <point x="961" y="894" type="line"/>
      <point x="889" y="954"/>
      <point x="787" y="996"/>
      <point x="657" y="996" type="curve" smooth="yes"/>
      <point x="361" y="996"/>
      <point x="187" y="794"/>
      <point x="187" y="490" type="curve" smooth="yes"/>
      <point x="187" y="174"/>
      <point x="363" y="-12"/>
      <point x="639" y="-12" type="curve" smooth="yes"/>
      <point x="807" y="-12"/>
      <point x="937" y="58"/>
      <point x="979" y="116" type="curve"/>
      <point x="975" y="120" type="line" smooth="yes"/>
      <point x="973" y="122"/>
      <point x="971" y="124"/>
      <point x="967" y="124" type="curve" smooth="yes"/>
      <point x="951" y="124"/>
      <point x="869" y="8"/>
      <point x="639" y="8" type="curve" smooth="yes"/>
      <point x="381" y="8"/>
      <point x="211" y="182"/>
      <point x="211" y="490" type="curve" smooth="yes"/>
      <point x="211" y="788"/>
      <point x="377" y="976"/>
      <point x="657" y="976" type="curve" smooth="yes"/>
      <point x="855" y="976"/>
      <point x="931" y="884"/>
      <point x="947" y="884" type="curve" smooth="yes"/>
      <point x="951" y="884"/>
      <point x="953" y="886"/>
      <point x="955" y="888" type="curve" smooth="yes"/>
    </contour>
    <contour>
      <point x="615" y="-268" type="line"/>
      <point x="625" y="-268" type="line" smooth="yes"/>
      <point x="633" y="-268"/>
      <point x="637" y="-262"/>
      <point x="637" y="-252" type="curve"/>
      <point x="687" y="1242" type="line"/>
      <point x="677" y="1242" type="line" smooth="yes"/>
      <point x="669" y="1242"/>
      <point x="665" y="1236"/>
      <point x="665" y="1226" type="curve"/>
    </contour>
  </outline>
</glyph>
<glyph name="sterling" format="2">
  <advance width="1160"/>
  <unicode hex="00A3"/>
  <outline>
    <contour>
      <point x="1088" y="22" type="line"/>
      <point x="206" y="22" type="line" smooth="yes"/>
      <point x="174" y="22"/>
      <point x="148" y="22"/>
      <point x="112" y="16" type="curve"/>
      <point x="98" y="22" type="line"/>
      <point x="98" y="0" type="line"/>
      <point x="1074" y="0" type="line" smooth="yes"/>
      <point x="1082" y="0"/>
      <point x="1088" y="6"/>
      <point x="1088" y="12" type="curve" smooth="yes"/>
    </contour>
    <contour>
      <point x="114" y="10" type="line"/>
      <point x="228" y="60"/>
      <point x="302" y="144"/>
      <point x="302" y="290" type="curve" smooth="yes"/>
      <point x="302" y="990" type="line" smooth="yes"/>
      <point x="302" y="1226"/>
      <point x="428" y="1394"/>
      <point x="668" y="1394" type="curve" smooth="yes"/>
      <point x="862" y="1394"/>
      <point x="932" y="1296"/>
      <point x="984" y="1200" type="curve"/>
      <point x="990" y="1190"/>
      <point x="994" y="1188"/>
      <point x="1002" y="1190" type="curve"/>
      <point x="1012" y="1192" type="line"/>
      <point x="960" y="1312"/>
      <point x="866" y="1414"/>
      <point x="668" y="1414" type="curve" smooth="yes"/>
      <point x="412" y="1414"/>
      <point x="278" y="1236"/>
      <point x="278" y="990" type="curve" smooth="yes"/>
      <point x="278" y="290" type="line" smooth="yes"/>
      <point x="278" y="136"/>
      <point x="192" y="64"/>
      <point x="98" y="22" type="curve"/>
    </contour>
    <contour>
      <point x="72" y="648" type="line"/>
      <point x="802" y="648" type="line" smooth="yes"/>
      <point x="808" y="648"/>
      <point x="814" y="652"/>
      <point x="814" y="658" type="curve" smooth="yes"/>
      <point x="814" y="668" type="line"/>
      <point x="86" y="668" type="line" smooth="yes"/>
      <point x="80" y="668"/>
      <point x="72" y="664"/>
      <point x="72" y="656" type="curve" smooth="yes"/>
    </contour>
  </outline>
</glyph>
<glyph name="currency" format="2">
  <advance width="1160"/>
  <unicode hex="00A4"/>
  <outline>
    <contour>
      <point x="250" y="670" type="curve" smooth="yes"/>
      <point x="250" y="488"/>
      <point x="398" y="340"/>
      <point x="580" y="340" type="curve" smooth="yes"/>
      <point x="764" y="340"/>
      <point x="912" y="488"/>
      <point x="912" y="670" type="curve" smooth="yes"/>
      <point x="912" y="854"/>
      <point x="764" y="1002"/>
      <point x="580" y="1002" type="curve" smooth="yes"/>
      <point x="398" y="1002"/>
      <point x="250" y="854"/>
    </contour>
    <contour>
      <point x="270" y="670" type="curve"/>
      <point x="270" y="842"/>
      <point x="410" y="982"/>
      <point x="580" y="982" type="curve" smooth="yes"/>
      <point x="752" y="982"/>
      <point x="892" y="842"/>
      <point x="892" y="670" type="curve" smooth="yes"/>
      <point x="892" y="500"/>
      <point x="752" y="360"/>
      <point x="580" y="360" type="curve" smooth="yes"/>
      <point x="410" y="360"/>
      <point x="270" y="500"/>
    </contour>
    <contour>
      <point x="346" y="890" type="line"/>
      <point x="360" y="904" type="line"/>
      <point x="196" y="1068" type="line"/>
      <point x="182" y="1054" type="line"/>
    </contour>
    <contour>
      <point x="800" y="904" type="line"/>
      <point x="814" y="890" type="line"/>
      <point x="978" y="1054" type="line"/>
      <point x="964" y="1068" type="line"/>
    </contour>
    <contour>
      <point x="360" y="436" type="line"/>
      <point x="346" y="450" type="line"/>
      <point x="182" y="286" type="line"/>
      <point x="196" y="272" type="line"/>
    </contour>
    <contour>
      <point x="814" y="450" type="line"/>
      <point x="800" y="436" type="line"/>
      <point x="964" y="272" type="line"/>
      <point x="978" y="286" type="line"/>
    </contour>
  </outline>
</glyph>
<glyph name="yen" format="2">
  <advance width="1160"/>
  <unicode hex="00A5"/>
  <outline>
    <contour>
      <point x="1034" y="1400" type="line"/>
      <point x="1014" y="1400" type="line" smooth="yes"/>
      <point x="1008" y="1400"/>
      <point x="1004" y="1398"/>
      <point x="1000" y="1392" type="curve"/>
      <point x="594" y="642" type="line"/>
      <point x="586" y="626"/>
      <point x="578" y="616"/>
      <point x="572" y="592" type="curve"/>
      <point x="590" y="592" type="line"/>
    </contour>
    <contour>
      <point x="570" y="592" type="line"/>
      <point x="588" y="592" type="line"/>
      <point x="582" y="616"/>
      <point x="574" y="626"/>
      <point x="566" y="642" type="curve"/>
      <point x="160" y="1392" type="line"/>
      <point x="156" y="1398"/>
      <point x="152" y="1400"/>
      <point x="146" y="1400" type="curve" smooth="yes"/>
      <point x="126" y="1400" type="line"/>
    </contour>
    <contour>
      <point x="592" y="608" type="line"/>
      <point x="568" y="608" type="line"/>
      <point x="568" y="0" type="line"/>
      <point x="592" y="0" type="line"/>
    </contour>
    <contour>
      <point x="180" y="440" type="line"/>
      <point x="980" y="440" type="line"/>
      <point x="980" y="460" type="line"/>
      <point x="180" y="460" type="line"/>
    </contour>
    <contour>
      <point x="180" y="588" type="line"/>
      <point x="980" y="588" type="line"/>
      <point x="980" y="608" type="line"/>
      <point x="180" y="608" type="line"/>
    </contour>
  </outline>
</glyph>
<glyph name="section" format="2">
  <advance width="952"/>
  <unicode hex="00A7"/>
  <outline>
    <contour>
      <point x="359" y="976" type="line"/>
      <point x="189" y="920"/>
      <point x="129" y="830"/>
      <point x="129" y="728" type="curve" smooth="yes"/>
      <point x="129" y="418"/>
      <point x="757" y="454"/>
      <point x="757" y="152" type="curve" smooth="yes"/>
      <point x="757" y="4"/>
      <point x="651" y="-116"/>
      <point x="459" y="-116" type="curve" smooth="yes"/>
      <point x="267" y="-116"/>
      <point x="201" y="-6"/>
      <point x="179" y="-6" type="curve" smooth="yes"/>
      <point x="173" y="-6"/>
      <point x="171" y="-8"/>
      <point x="167" y="-12" type="curve" smooth="yes"/>
      <point x="161" y="-18" type="line"/>
      <point x="241" y="-90"/>
      <point x="319" y="-136"/>
      <point x="459" y="-136" type="curve" smooth="yes"/>
      <point x="661" y="-136"/>
      <point x="779" y="-6"/>
      <point x="779" y="154" type="curve" smooth="yes"/>
      <point x="779" y="472"/>
      <point x="151" y="446"/>
      <point x="151" y="728" type="curve" smooth="yes"/>
      <point x="151" y="826"/>
      <point x="209" y="902"/>
      <point x="369" y="962" type="curve"/>
    </contour>
    <contour>
      <point x="773" y="1320" type="line"/>
      <point x="695" y="1388"/>
      <point x="615" y="1416"/>
      <point x="505" y="1416" type="curve" smooth="yes"/>
      <point x="327" y="1416"/>
      <point x="203" y="1298"/>
      <point x="203" y="1168" type="curve" smooth="yes"/>
      <point x="203" y="860"/>
      <point x="797" y="916"/>
      <point x="797" y="594" type="curve" smooth="yes"/>
      <point x="797" y="494"/>
      <point x="747" y="416"/>
      <point x="627" y="364" type="curve"/>
      <point x="643" y="350" type="line"/>
      <point x="751" y="398"/>
      <point x="819" y="478"/>
      <point x="819" y="596" type="curve" smooth="yes"/>
      <point x="819" y="932"/>
      <point x="225" y="886"/>
      <point x="225" y="1168" type="curve" smooth="yes"/>
      <point x="225" y="1288"/>
      <point x="339" y="1396"/>
      <point x="505" y="1396" type="curve" smooth="yes"/>
      <point x="681" y="1396"/>
      <point x="739" y="1308"/>
      <point x="759" y="1308" type="curve" smooth="yes"/>
      <point x="763" y="1308"/>
      <point x="767" y="1310"/>
      <point x="769" y="1314" type="curve"/>
    </contour>
  </outline>
</glyph>
<glyph name="dieresis" format="2">
  <advance width="800"/>
  <unicode hex="00A8"/>
  <anchor x="400" y="1120" name="_top"/>
  <anchor x="400" y="1400" name="top"/>
  <outline>
    <contour>
      <point x="292" y="1280" type="curve"/>
      <point x="292" y="1310"/>
      <point x="264" y="1336"/>
      <point x="236" y="1336" type="curve" smooth="yes"/>
      <point x="206" y="1336"/>
      <point x="180" y="1310"/>
      <point x="180" y="1280" type="curve" smooth="yes"/>
      <point x="180" y="1252"/>
      <point x="206" y="1226"/>
      <point x="236" y="1226" type="curve" smooth="yes"/>
      <point x="264" y="1226"/>
      <point x="292" y="1252"/>
    </contour>
    <contour>
      <point x="620" y="1280" type="curve" smooth="yes"/>
      <point x="620" y="1310"/>
      <point x="592" y="1336"/>
      <point x="564" y="1336" type="curve" smooth="yes"/>
      <point x="534" y="1336"/>
      <point x="508" y="1310"/>
      <point x="508" y="1280" type="curve" smooth="yes"/>
      <point x="508" y="1252"/>
      <point x="534" y="1226"/>
      <point x="564" y="1226" type="curve" smooth="yes"/>
      <point x="592" y="1226"/>
      <point x="620" y="1252"/>
    </contour>
  </outline>
</glyph>
<glyph name="copyright" format="2">
  <advance width="1698"/>
  <unicode hex="00A9"/>
  <outline>
    <contour>
      <point x="1171" y="384" type="curve"/>
      <point x="1089" y="314"/>
      <point x="1011" y="276"/>
      <point x="859" y="276" type="curve" smooth="yes"/>
      <point x="623" y="276"/>
      <point x="449" y="434"/>
      <point x="449" y="700" type="curve" smooth="yes"/>
      <point x="449" y="962"/>
      <point x="623" y="1126"/>
      <point x="873" y="1126" type="curve" smooth="yes"/>
      <point x="1075" y="1126"/>
      <point x="1143" y="1034"/>
      <point x="1159" y="1034" type="curve" smooth="yes"/>
      <point x="1163" y="1034"/>
      <point x="1167" y="1034"/>
      <point x="1169" y="1038" type="curve"/>
      <point x="1173" y="1044" type="line"/>
      <point x="1087" y="1112"/>
      <point x="1009" y="1146"/>
      <point x="873" y="1146" type="curve" smooth="yes"/>
      <point x="607" y="1146"/>
      <point x="425" y="966"/>
      <point x="425" y="700" type="curve" smooth="yes"/>
      <point x="425" y="426"/>
      <point x="607" y="256"/>
      <point x="859" y="256" type="curve" smooth="yes"/>
      <point x="1015" y="256"/>
      <point x="1111" y="306"/>
      <point x="1191" y="376" type="curve"/>
      <point x="1179" y="386" type="line"/>
      <point x="1177" y="386"/>
      <point x="1175" y="386"/>
    </contour>
    <contour>
      <point x="135" y="700" type="curve" smooth="yes"/>
      <point x="135" y="306"/>
      <point x="455" y="-14"/>
      <point x="849" y="-14" type="curve" smooth="yes"/>
      <point x="1243" y="-14"/>
      <point x="1563" y="306"/>
      <point x="1563" y="700" type="curve" smooth="yes"/>
      <point x="1563" y="1094"/>
      <point x="1243" y="1414"/>
      <point x="849" y="1414" type="curve" smooth="yes"/>
      <point x="455" y="1414"/>
      <point x="135" y="1094"/>
    </contour>
    <contour>
      <point x="159" y="700" type="curve" smooth="yes"/>
      <point x="159" y="1082"/>
      <point x="467" y="1392"/>
      <point x="849" y="1392" type="curve" smooth="yes"/>
      <point x="1231" y="1392"/>
      <point x="1541" y="1082"/>
      <point x="1541" y="700" type="curve" smooth="yes"/>
      <point x="1541" y="318"/>
      <point x="1231" y="10"/>
      <point x="849" y="10" type="curve" smooth="yes"/>
      <point x="467" y="10"/>
      <point x="159" y="318"/>
    </contour>
  </outline>
</glyph>
<glyph name="ordfeminine" format="2">
  <advance width="736"/>
  <unicode hex="00AA"/>
  <anchor x="368" y="-70" name="bottom"/>
  <outline>
    <contour>
      <point x="563" y="1210" type="line"/>
      <point x="563" y="1336"/>
      <point x="503" y="1412"/>
      <point x="377" y="1412" type="curve" smooth="yes"/>
      <point x="295" y="1412"/>
      <point x="235" y="1382"/>
      <point x="177" y="1322" type="curve"/>
      <point x="181" y="1316" type="line"/>
      <point x="183" y="1314"/>
      <point x="185" y="1312"/>
      <point x="189" y="1312" type="curve" smooth="yes"/>
      <point x="205" y="1312"/>
      <point x="251" y="1392"/>
      <point x="377" y="1392" type="curve" smooth="yes"/>
      <point x="491" y="1392"/>
      <point x="541" y="1326"/>
      <point x="541" y="1210" type="curve"/>
    </contour>
    <contour>
      <point x="563" y="838" type="line"/>
      <point x="563" y="1210" type="line"/>
      <point x="541" y="1210" type="line"/>
      <point x="541" y="942" type="line"/>
      <point x="545" y="848" type="line"/>
      <point x="547" y="840"/>
      <point x="549" y="838"/>
      <point x="555" y="838" type="curve" smooth="yes"/>
    </contour>
    <contour>
      <point x="549" y="944" type="curve"/>
      <point x="543" y="962" type="line"/>
      <point x="481" y="902"/>
      <point x="413" y="848"/>
      <point x="303" y="848" type="curve" smooth="yes"/>
      <point x="235" y="848"/>
      <point x="165" y="884"/>
      <point x="165" y="972" type="curve" smooth="yes"/>
      <point x="165" y="1064"/>
      <point x="287" y="1118"/>
      <point x="543" y="1126" type="curve"/>
      <point x="543" y="1146" type="line"/>
      <point x="265" y="1142"/>
      <point x="143" y="1072"/>
      <point x="143" y="970" type="curve" smooth="yes"/>
      <point x="143" y="868"/>
      <point x="225" y="828"/>
      <point x="301" y="828" type="curve" smooth="yes"/>
      <point x="409" y="828"/>
      <point x="477" y="872"/>
    </contour>
  </outline>
</glyph>
<glyph name="logicalnot" format="2">
  <advance width="1160"/>
  <unicode hex="00AC"/>
  <outline>
    <contour>
      <point x="183" y="660" type="line"/>
      <point x="985" y="660" type="line"/>
      <point x="985" y="680" type="line"/>
      <point x="183" y="680" type="line"/>
    </contour>
    <contour>
      <point x="963" y="360" type="line"/>
      <point x="985" y="360" type="line"/>
      <point x="985" y="680" type="line"/>
      <point x="963" y="680" type="line"/>
    </contour>
  </outline>
</glyph>
<glyph name="registered" format="2">
  <advance width="1698"/>
  <unicode hex="00AE"/>
  <outline>
    <contour>
      <point x="769" y="684" type="line" smooth="yes"/>
      <point x="807" y="684"/>
      <point x="819" y="674"/>
      <point x="829" y="662" type="curve" smooth="yes"/>
      <point x="1159" y="268" type="line"/>
      <point x="1165" y="260"/>
      <point x="1169" y="260"/>
      <point x="1175" y="260" type="curve" smooth="yes"/>
      <point x="1195" y="260" type="line"/>
      <point x="861" y="658" type="line" smooth="yes"/>
      <point x="839" y="684"/>
      <point x="821" y="692"/>
      <point x="779" y="692" type="curve"/>
      <point x="793" y="684" type="line"/>
      <point x="809" y="684" type="line" smooth="yes"/>
      <point x="985" y="684"/>
      <point x="1107" y="774"/>
      <point x="1107" y="920" type="curve" smooth="yes"/>
      <point x="1107" y="1070"/>
      <point x="1003" y="1140"/>
      <point x="821" y="1140" type="curve" smooth="yes"/>
      <point x="609" y="1140" type="line"/>
      <point x="609" y="260" type="line"/>
      <point x="633" y="260" type="line"/>
      <point x="633" y="1120" type="line"/>
      <point x="821" y="1120" type="line" smooth="yes"/>
      <point x="995" y="1120"/>
      <point x="1083" y="1060"/>
      <point x="1083" y="920" type="curve" smooth="yes"/>
      <point x="1083" y="782"/>
      <point x="981" y="704"/>
      <point x="809" y="704" type="curve" smooth="yes"/>
      <point x="617" y="704" type="line"/>
      <point x="617" y="684" type="line"/>
    </contour>
    <contour>
      <point x="135" y="700" type="curve" smooth="yes"/>
      <point x="135" y="306"/>
      <point x="455" y="-14"/>
      <point x="849" y="-14" type="curve" smooth="yes"/>
      <point x="1243" y="-14"/>
      <point x="1563" y="306"/>
      <point x="1563" y="700" type="curve" smooth="yes"/>
      <point x="1563" y="1094"/>
      <point x="1243" y="1414"/>
      <point x="849" y="1414" type="curve" smooth="yes"/>
      <point x="455" y="1414"/>
      <point x="135" y="1094"/>
    </contour>
    <contour>
      <point x="159" y="700" type="curve" smooth="yes"/>
      <point x="159" y="1082"/>
      <point x="467" y="1392"/>
      <point x="849" y="1392" type="curve" smooth="yes"/>
      <point x="1231" y="1392"/>
      <point x="1541" y="1082"/>
      <point x="1541" y="700" type="curve" smooth="yes"/>
      <point x="1541" y="318"/>
      <point x="1231" y="10"/>
      <point x="849" y="10" type="curve" smooth="yes"/>
      <point x="467" y="10"/>
      <point x="159" y="318"/>
    </contour>
  </outline>
</glyph>
<glyph name="degree" format="2">
  <advance width="826"/>
  <unicode hex="00B0"/>
  <outline>
    <contour>
      <point x="133" y="1140" type="curve" smooth="yes"/>
      <point x="133" y="986"/>
      <point x="257" y="862"/>
      <point x="413" y="862" type="curve" smooth="yes"/>
      <point x="569" y="862"/>
      <point x="693" y="986"/>
      <point x="693" y="1140" type="curve" smooth="yes"/>
      <point x="693" y="1294"/>
      <point x="569" y="1416"/>
      <point x="413" y="1416" type="curve" smooth="yes"/>
      <point x="257" y="1416"/>
      <point x="133" y="1294"/>
    </contour>
    <contour>
      <point x="157" y="1140" type="curve" smooth="yes"/>
      <point x="157" y="1282"/>
      <point x="271" y="1396"/>
      <point x="413" y="1396" type="curve" smooth="yes"/>
      <point x="555" y="1396"/>
      <point x="669" y="1282"/>
      <point x="669" y="1140" type="curve" smooth="yes"/>
      <point x="669" y="998"/>
      <point x="555" y="884"/>
      <point x="413" y="884" type="curve" smooth="yes"/>
      <point x="271" y="884"/>
      <point x="157" y="998"/>
    </contour>
  </outline>
</glyph>
<glyph name="plusminus" format="2">
  <advance width="1160"/>
  <unicode hex="00B1"/>
  <outline>
    <contour>
      <point x="119" y="660" type="line"/>
      <point x="1041" y="660" type="line"/>
      <point x="1041" y="680" type="line"/>
      <point x="119" y="680" type="line"/>
    </contour>
    <contour>
      <point x="569" y="1110" type="line"/>
      <point x="569" y="228" type="line"/>
      <point x="589" y="228" type="line"/>
      <point x="589" y="1110" type="line"/>
    </contour>
    <contour>
      <point x="119" y="80" type="line"/>
      <point x="1041" y="80" type="line"/>
      <point x="1041" y="100" type="line"/>
      <point x="119" y="100" type="line"/>
    </contour>
  </outline>
</glyph>
<glyph name="acute" format="2">
  <advance width="800"/>
  <unicode hex="00B4"/>
  <anchor x="400" y="1120" name="_top"/>
  <outline>
    <contour>
      <point x="542" y="1416" type="line" smooth="yes"/>
      <point x="520" y="1416"/>
      <point x="512" y="1412"/>
      <point x="500" y="1394" type="curve" smooth="yes"/>
      <point x="336" y="1158" type="line"/>
      <point x="350" y="1158" type="line" smooth="yes"/>
      <point x="356" y="1158"/>
      <point x="362" y="1160"/>
      <point x="366" y="1166" type="curve"/>
      <point x="568" y="1416" type="line"/>
    </contour>
  </outline>
</glyph>
<glyph name="micro" format="2">
  <advance width="1250"/>
  <unicode hex="00B5"/>
  <anchor x="581" y="1120" name="top"/>
  <anchor x="673" y="-421" name="bottom"/>
  <outline>
    <contour>
      <point x="216" y="980" type="line"/>
      <point x="216" y="-348" type="line" smooth="yes"/>
      <point x="216" y="-354"/>
      <point x="220" y="-360"/>
      <point x="228" y="-360" type="curve" smooth="yes"/>
      <point x="240" y="-360" type="line"/>
      <point x="240" y="10" type="line" smooth="yes"/>
      <point x="240" y="80"/>
      <point x="238" y="182"/>
      <point x="236" y="252" type="curve"/>
      <point x="240" y="274" type="line"/>
      <point x="240" y="980" type="line"/>
    </contour>
    <contour>
      <point x="224" y="352" type="line"/>
      <point x="224" y="120"/>
      <point x="322" y="-16"/>
      <point x="540" y="-16" type="curve" smooth="yes"/>
      <point x="700" y="-16"/>
      <point x="842" y="75"/>
      <point x="934" y="219" type="curve"/>
      <point x="930" y="243" type="line"/>
      <point x="832" y="93"/>
      <point x="696" y="4"/>
      <point x="540" y="4" type="curve" smooth="yes"/>
      <point x="336" y="4"/>
      <point x="240" y="134"/>
      <point x="240" y="352" type="curve"/>
    </contour>
    <contour>
      <point x="922" y="219" type="line"/>
      <point x="924" y="207" type="line"/>
      <point x="924" y="54"/>
      <point x="1022" y="-8"/>
      <point x="1133" y="-8" type="curve" smooth="yes"/>
      <point x="1164" y="-8"/>
      <point x="1177" y="-3"/>
      <point x="1177" y="2" type="curve" smooth="yes"/>
      <point x="1177" y="12" type="line"/>
      <point x="1149" y="12" type="line" smooth="yes"/>
      <point x="1030" y="12"/>
      <point x="946" y="71"/>
      <point x="946" y="207" type="curve" smooth="yes"/>
      <point x="946" y="980" type="line"/>
      <point x="922" y="980" type="line"/>
    </contour>
  </outline>
</glyph>
<glyph name="paragraph" format="2">
  <advance width="1238"/>
  <unicode hex="00B6"/>
  <outline>
    <contour>
      <point x="542" y="1400" type="line"/>
      <point x="518" y="1400" type="line"/>
      <point x="518" y="-180" type="line"/>
      <point x="542" y="-180" type="line"/>
    </contour>
    <contour>
      <point x="518" y="1400" type="line"/>
      <point x="244" y="1400"/>
      <point x="82" y="1276"/>
      <point x="82" y="1076" type="curve" smooth="yes"/>
      <point x="82" y="878"/>
      <point x="244" y="732"/>
      <point x="518" y="732" type="curve"/>
      <point x="534" y="1378" type="line"/>
      <point x="1168" y="1378" type="line"/>
      <point x="1168" y="1400" type="line"/>
    </contour>
    <contour>
      <point x="938" y="1400" type="line"/>
      <point x="914" y="1400" type="line"/>
      <point x="914" y="-180" type="line"/>
      <point x="938" y="-180" type="line"/>
    </contour>
  </outline>
</glyph>
<glyph name="periodcentered" format="2">
  <advance width="454"/>
  <unicode hex="00B7"/>
  <unicode hex="2219"/>
  <outline>
    <contour>
      <point x="167" y="590" type="curve" smooth="yes"/>
      <point x="167" y="560"/>
      <point x="195" y="532"/>
      <point x="225" y="532" type="curve" smooth="yes"/>
      <point x="259" y="532"/>
      <point x="287" y="560"/>
      <point x="287" y="590" type="curve" smooth="yes"/>
      <point x="287" y="624"/>
      <point x="259" y="652"/>
      <point x="225" y="652" type="curve" smooth="yes"/>
      <point x="195" y="652"/>
      <point x="167" y="624"/>
    </contour>
  </outline>
</glyph>
<glyph name="cedilla" format="2">
  <advance width="800"/>
  <unicode hex="00B8"/>
  <anchor x="400" y="-70" name="_bottom"/>
  <outline>
    <contour>
      <point x="286" y="-296" type="curve" smooth="yes"/>
      <point x="282" y="-296"/>
      <point x="280" y="-298"/>
      <point x="276" y="-302" type="curve" smooth="yes"/>
      <point x="272" y="-306" type="line"/>
      <point x="302" y="-336"/>
      <point x="362" y="-358"/>
      <point x="416" y="-358" type="curve" smooth="yes"/>
      <point x="506" y="-358"/>
      <point x="572" y="-314"/>
      <point x="572" y="-238" type="curve" smooth="yes"/>
      <point x="572" y="-152"/>
      <point x="490" y="-126"/>
      <point x="370" y="-108" type="curve"/>
      <point x="380" y="-114" type="line"/>
      <point x="416" y="0" type="line"/>
      <point x="398" y="0" type="line"/>
      <point x="358" y="-126" type="line"/>
      <point x="464" y="-138"/>
      <point x="550" y="-158"/>
      <point x="550" y="-240" type="curve" smooth="yes"/>
      <point x="550" y="-302"/>
      <point x="502" y="-340"/>
      <point x="422" y="-340" type="curve" smooth="yes"/>
      <point x="330" y="-340"/>
      <point x="298" y="-296"/>
    </contour>
  </outline>
</glyph>
<glyph name="ordmasculine" format="2">
  <advance width="812"/>
  <unicode hex="00BA"/>
  <anchor x="406" y="-70" name="bottom"/>
  <outline>
    <contour>
      <point x="407" y="1412" type="curve" smooth="yes"/>
      <point x="235" y="1412"/>
      <point x="139" y="1296"/>
      <point x="139" y="1118" type="curve" smooth="yes"/>
      <point x="139" y="940"/>
      <point x="235" y="826"/>
      <point x="407" y="826" type="curve" smooth="yes"/>
      <point x="577" y="826"/>
      <point x="673" y="940"/>
      <point x="673" y="1118" type="curve" smooth="yes"/>
      <point x="673" y="1296"/>
      <point x="577" y="1412"/>
    </contour>
    <contour>
      <point x="407" y="842" type="curve" smooth="yes"/>
      <point x="243" y="842"/>
      <point x="159" y="952"/>
      <point x="159" y="1118" type="curve" smooth="yes"/>
      <point x="159" y="1284"/>
      <point x="243" y="1396"/>
      <point x="407" y="1396" type="curve" smooth="yes"/>
      <point x="569" y="1396"/>
      <point x="653" y="1284"/>
      <point x="653" y="1118" type="curve" smooth="yes"/>
      <point x="653" y="952"/>
      <point x="569" y="842"/>
    </contour>
  </outline>
</glyph>
<glyph name="questiondown" format="2">
  <advance width="813"/>
  <unicode hex="00BF"/>
  <outline>
    <contour>
      <point x="715" y="-226" type="line"/>
      <point x="713" y="-224"/>
      <point x="711" y="-222"/>
      <point x="707" y="-222" type="curve"/>
      <point x="697" y="-222"/>
      <point x="607" y="-350"/>
      <point x="419" y="-350" type="curve" smooth="yes"/>
      <point x="267" y="-350"/>
      <point x="123" y="-252"/>
      <point x="123" y="-86" type="curve"/>
      <point x="123" y="208"/>
      <point x="457" y="220"/>
      <point x="457" y="376" type="curve" smooth="yes"/>
      <point x="457" y="550" type="line"/>
      <point x="441" y="550" type="line"/>
      <point x="435" y="378" type="line"/>
      <point x="431" y="234"/>
      <point x="99" y="216"/>
      <point x="99" y="-86" type="curve" smooth="yes"/>
      <point x="99" y="-264"/>
      <point x="255" y="-370"/>
      <point x="419" y="-370" type="curve" smooth="yes"/>
      <point x="559" y="-370"/>
      <point x="657" y="-302"/>
      <point x="721" y="-234" type="curve"/>
    </contour>
    <component base="period" xOffset="218" yOffset="882"/>
  </outline>
</glyph>
<glyph name="AE" format="2">
  <advance width="1850"/>
  <unicode hex="00C6"/>
  <anchor x="1274" y="1496" name="Top"/>
  <anchor x="1274" y="1496" name="top"/>
  <anchor x="824" y="-70" name="bottom"/>
  <outline>
    <contour>
      <point x="25" y="0" type="line"/>
      <point x="45" y="0" type="line" smooth="yes"/>
      <point x="51" y="0"/>
      <point x="55" y="2"/>
      <point x="58" y="8" type="curve"/>
      <point x="815" y="1326" type="line" smooth="yes"/>
      <point x="831" y="1354"/>
      <point x="839" y="1370"/>
      <point x="845" y="1400" type="curve"/>
      <point x="829" y="1400" type="line"/>
    </contour>
    <contour>
      <point x="319" y="478" type="line"/>
      <point x="965" y="478" type="line"/>
      <point x="965" y="498" type="line"/>
      <point x="319" y="498" type="line"/>
    </contour>
    <contour>
      <point x="859" y="1400" type="line"/>
      <point x="837" y="1400" type="line"/>
      <point x="1019" y="0" type="line"/>
      <point x="1041" y="0" type="line"/>
    </contour>
    <contour>
      <point x="933" y="722" type="line"/>
      <point x="933" y="700" type="line"/>
      <point x="1615" y="700" type="line"/>
      <point x="1615" y="722" type="line"/>
    </contour>
    <contour>
      <point x="851" y="1400" type="line"/>
      <point x="851" y="1378" type="line"/>
      <point x="1735" y="1378" type="line"/>
      <point x="1735" y="1400" type="line"/>
    </contour>
    <contour>
      <point x="1033" y="22" type="line"/>
      <point x="1033" y="0" type="line"/>
      <point x="1735" y="0" type="line"/>
      <point x="1737" y="22" type="line"/>
    </contour>
  </outline>
</glyph>
<glyph name="multiply" format="2">
  <advance width="1160"/>
  <unicode hex="00D7"/>
  <outline>
    <contour>
      <point x="177" y="1058" type="line"/>
      <point x="969" y="268" type="line"/>
      <point x="983" y="282" type="line"/>
      <point x="193" y="1074" type="line"/>
    </contour>
    <contour>
      <point x="967" y="1072" type="line"/>
      <point x="177" y="280" type="line"/>
      <point x="191" y="266" type="line"/>
      <point x="983" y="1056" type="line"/>
    </contour>
  </outline>
</glyph>
<glyph name="Oslash" format="2">
  <advance width="1568"/>
  <unicode hex="00D8"/>
  <anchor x="792" y="1496" name="Top"/>
  <anchor x="792" y="1496" name="top"/>
  <anchor x="649" y="-70" name="bottom"/>
  <outline>
    <contour>
      <point x="1379" y="1464" type="line"/>
      <point x="1363" y="1464" type="line" smooth="yes"/>
      <point x="1353" y="1464"/>
      <point x="1349" y="1460"/>
      <point x="1343" y="1452" type="curve" smooth="yes"/>
      <point x="177" y="-102" type="line"/>
      <point x="191" y="-102" type="line" smooth="yes"/>
      <point x="199" y="-102"/>
      <point x="207" y="-98"/>
      <point x="213" y="-90" type="curve" smooth="yes"/>
    </contour>
    <contour>
      <point x="1431" y="700" type="curve" smooth="yes"/>
      <point x="1431" y="1142"/>
      <point x="1167" y="1416"/>
      <point x="783" y="1416" type="curve" smooth="yes"/>
      <point x="403" y="1416"/>
      <point x="137" y="1140"/>
      <point x="137" y="700" type="curve" smooth="yes"/>
      <point x="137" y="258"/>
      <point x="403" y="-14"/>
      <point x="783" y="-14" type="curve" smooth="yes"/>
      <point x="1167" y="-14"/>
      <point x="1431" y="258"/>
    </contour>
    <contour>
      <point x="1405" y="700" type="curve" smooth="yes"/>
      <point x="1405" y="266"/>
      <point x="1151" y="6"/>
      <point x="783" y="6" type="curve" smooth="yes"/>
      <point x="421" y="6"/>
      <point x="161" y="266"/>
      <point x="161" y="700" type="curve" smooth="yes"/>
      <point x="161" y="1134"/>
      <point x="421" y="1396"/>
      <point x="783" y="1396" type="curve" smooth="yes"/>
      <point x="1151" y="1396"/>
      <point x="1405" y="1134"/>
    </contour>
  </outline>
</glyph>
<glyph name="Thorn" format="2">
  <advance width="1119"/>
  <unicode hex="00DE"/>
  <anchor x="340" y="1496" name="Top"/>
  <anchor x="340" y="1496" name="top"/>
  <anchor x="244" y="-70" name="bottom"/>
  <outline>
    <contour>
      <point x="246" y="298" type="line"/>
      <point x="548" y="298" type="line" smooth="yes"/>
      <point x="828" y="298"/>
      <point x="1022" y="466"/>
      <point x="1022" y="698" type="curve" smooth="yes"/>
      <point x="1022" y="968"/>
      <point x="854" y="1098"/>
      <point x="548" y="1098" type="curve" smooth="yes"/>
      <point x="256" y="1098" type="line"/>
      <point x="256" y="1400" type="line"/>
      <point x="232" y="1400" type="line"/>
      <point x="232" y="0" type="line"/>
      <point x="256" y="0" type="line"/>
      <point x="256" y="1078" type="line"/>
      <point x="548" y="1078" type="line" smooth="yes"/>
      <point x="846" y="1078"/>
      <point x="998" y="946"/>
      <point x="998" y="698" type="curve" smooth="yes"/>
      <point x="998" y="486"/>
      <point x="822" y="318"/>
      <point x="548" y="318" type="curve" smooth="yes"/>
      <point x="248" y="318" type="line"/>
    </contour>
  </outline>
</glyph>
<glyph name="germandbls" format="2">
  <advance width="1060"/>
  <unicode hex="00DF"/>
  <anchor x="563" y="1496" name="Top"/>
  <anchor x="563" y="1496" name="top"/>
  <anchor x="506" y="-70" name="bottom"/>
  <outline>
    <contour>
      <point x="588" y="1414" type="curve" smooth="yes"/>
      <point x="362" y="1414"/>
      <point x="184" y="1274"/>
      <point x="184" y="1010" type="curve" smooth="yes"/>
      <point x="184" y="0" type="line"/>
      <point x="208" y="0" type="line"/>
      <point x="208" y="1010" type="line" smooth="yes"/>
      <point x="208" y="1284"/>
      <point x="392" y="1394"/>
      <point x="588" y="1394" type="curve" smooth="yes"/>
      <point x="808" y="1394"/>
      <point x="882" y="1242"/>
      <point x="882" y="1162" type="curve" smooth="yes"/>
      <point x="882" y="910"/>
      <point x="536" y="874"/>
      <point x="536" y="696" type="curve" smooth="yes"/>
      <point x="536" y="456"/>
      <point x="948" y="580"/>
      <point x="948" y="272" type="curve" smooth="yes"/>
      <point x="948" y="124"/>
      <point x="842" y="4"/>
      <point x="650" y="4" type="curve" smooth="yes"/>
      <point x="458" y="4"/>
      <point x="392" y="114"/>
      <point x="370" y="114" type="curve" smooth="yes"/>
      <point x="364" y="114"/>
      <point x="362" y="112"/>
      <point x="358" y="108" type="curve" smooth="yes"/>
      <point x="352" y="102" type="line"/>
      <point x="432" y="30"/>
      <point x="510" y="-16"/>
      <point x="650" y="-16" type="curve" smooth="yes"/>
      <point x="852" y="-16"/>
      <point x="970" y="114"/>
      <point x="970" y="274" type="curve" smooth="yes"/>
      <point x="970" y="592"/>
      <point x="558" y="478"/>
      <point x="558" y="696" type="curve"/>
      <point x="558" y="862"/>
      <point x="902" y="902"/>
      <point x="902" y="1160" type="curve" smooth="yes"/>
      <point x="902" y="1292"/>
      <point x="776" y="1414"/>
    </contour>
  </outline>
</glyph>
<glyph name="ae" format="2">
  <advance width="1589"/>
  <unicode hex="00E6"/>
  <anchor x="772" y="1120" name="top"/>
  <anchor x="701" y="-70" name="bottom"/>
  <outline>
    <contour>
      <point x="1138" y="996" type="curve" smooth="yes"/>
      <point x="894" y="996"/>
      <point x="754" y="798"/>
      <point x="754" y="510" type="curve" smooth="yes"/>
      <point x="754" y="182"/>
      <point x="898" y="-12"/>
      <point x="1142" y="-12" type="curve" smooth="yes"/>
      <point x="1280" y="-12"/>
      <point x="1410" y="60"/>
      <point x="1450" y="116" type="curve"/>
      <point x="1446" y="120" type="line" smooth="yes"/>
      <point x="1444" y="122"/>
      <point x="1442" y="124"/>
      <point x="1438" y="124" type="curve" smooth="yes"/>
      <point x="1426" y="124"/>
      <point x="1336" y="8"/>
      <point x="1142" y="8" type="curve" smooth="yes"/>
      <point x="920" y="8"/>
      <point x="772" y="186"/>
      <point x="772" y="510" type="curve" smooth="yes"/>
      <point x="772" y="786"/>
      <point x="906" y="976"/>
      <point x="1140" y="976" type="curve" smooth="yes"/>
      <point x="1314" y="976"/>
      <point x="1456" y="836"/>
      <point x="1456" y="562" type="curve"/>
      <point x="768" y="562" type="line"/>
      <point x="766" y="544" type="line"/>
      <point x="1466" y="544" type="line" smooth="yes"/>
      <point x="1472" y="544"/>
      <point x="1476" y="548"/>
      <point x="1476" y="554" type="curve" smooth="yes"/>
      <point x="1476" y="846"/>
      <point x="1324" y="996"/>
    </contour>
    <contour>
      <point x="768" y="370" type="line"/>
      <point x="768" y="648" type="line" smooth="yes"/>
      <point x="768" y="864"/>
      <point x="676" y="996"/>
      <point x="484" y="996" type="curve" smooth="yes"/>
      <point x="348" y="996"/>
      <point x="252" y="942"/>
      <point x="156" y="840" type="curve"/>
      <point x="160" y="836" type="line" smooth="yes"/>
      <point x="164" y="832"/>
      <point x="166" y="830"/>
      <point x="170" y="830" type="curve" smooth="yes"/>
      <point x="192" y="830"/>
      <point x="276" y="976"/>
      <point x="484" y="976" type="curve" smooth="yes"/>
      <point x="660" y="976"/>
      <point x="750" y="854"/>
      <point x="750" y="648" type="curve" smooth="yes"/>
      <point x="750" y="370" type="line"/>
    </contour>
    <contour>
      <point x="750" y="370" type="line"/>
      <point x="750" y="146"/>
      <point x="588" y="4"/>
      <point x="390" y="4" type="curve" smooth="yes"/>
      <point x="242" y="4"/>
      <point x="130" y="74"/>
      <point x="130" y="250" type="curve" smooth="yes"/>
      <point x="130" y="418"/>
      <point x="332" y="530"/>
      <point x="756" y="542" type="curve"/>
      <point x="756" y="562" type="line"/>
      <point x="310" y="552"/>
      <point x="106" y="428"/>
      <point x="106" y="250" type="curve" smooth="yes"/>
      <point x="106" y="52"/>
      <point x="238" y="-16"/>
      <point x="390" y="-16" type="curve" smooth="yes"/>
      <point x="538" y="-16"/>
      <point x="768" y="76"/>
      <point x="768" y="370" type="curve"/>
    </contour>
  </outline>
</glyph>
<glyph name="ccedilla" format="2">
  <advance width="933"/>
  <unicode hex="00E7"/>
  <anchor x="550" y="1120" name="top"/>
  <anchor x="464" y="-421" name="bottom"/>
  <outline>
    <contour>
      <point x="828" y="894" type="line"/>
      <point x="762" y="954"/>
      <point x="668" y="996"/>
      <point x="550" y="996" type="curve" smooth="yes"/>
      <point x="280" y="996"/>
      <point x="122" y="794"/>
      <point x="122" y="490" type="curve" smooth="yes"/>
      <point x="122" y="174"/>
      <point x="282" y="-12"/>
      <point x="534" y="-12" type="curve" smooth="yes"/>
      <point x="686" y="-12"/>
      <point x="804" y="58"/>
      <point x="844" y="116" type="curve"/>
      <point x="840" y="120" type="line" smooth="yes"/>
      <point x="838" y="122"/>
      <point x="836" y="124"/>
      <point x="832" y="124" type="curve" smooth="yes"/>
      <point x="816" y="124"/>
      <point x="742" y="8"/>
      <point x="534" y="8" type="curve" smooth="yes"/>
      <point x="300" y="8"/>
      <point x="146" y="182"/>
      <point x="146" y="490" type="curve" smooth="yes"/>
      <point x="146" y="788"/>
      <point x="296" y="976"/>
      <point x="550" y="976" type="curve" smooth="yes"/>
      <point x="730" y="976"/>
      <point x="798" y="884"/>
      <point x="814" y="884" type="curve" smooth="yes"/>
      <point x="818" y="884"/>
      <point x="820" y="886"/>
      <point x="822" y="888" type="curve" smooth="yes"/>
    </contour>
    <contour>
      <point x="430" y="-296" type="curve" smooth="yes"/>
      <point x="426" y="-296"/>
      <point x="424" y="-298"/>
      <point x="420" y="-302" type="curve" smooth="yes"/>
      <point x="416" y="-306" type="line"/>
      <point x="446" y="-336"/>
      <point x="506" y="-358"/>
      <point x="560" y="-358" type="curve" smooth="yes"/>
      <point x="650" y="-358"/>
      <point x="716" y="-314"/>
      <point x="716" y="-238" type="curve" smooth="yes"/>
      <point x="716" y="-152"/>
      <point x="634" y="-126"/>
      <point x="514" y="-108" type="curve"/>
      <point x="524" y="-114" type="line"/>
      <point x="560" y="0" type="line"/>
      <point x="542" y="0" type="line"/>
      <point x="502" y="-126" type="line"/>
      <point x="608" y="-138"/>
      <point x="694" y="-158"/>
      <point x="694" y="-240" type="curve" smooth="yes"/>
      <point x="694" y="-302"/>
      <point x="646" y="-340"/>
      <point x="566" y="-340" type="curve" smooth="yes"/>
      <point x="474" y="-340"/>
      <point x="442" y="-296"/>
    </contour>
  </outline>
</glyph>
<glyph name="eth" format="2">
  <advance width="1112"/>
  <unicode hex="00F0"/>
  <anchor x="812" y="1496" name="Top"/>
  <anchor x="812" y="1496" name="top"/>
  <anchor x="541" y="-70" name="bottom"/>
  <outline>
    <contour>
      <point x="322" y="1372" type="curve"/>
      <point x="320" y="1364" type="line" smooth="yes"/>
      <point x="318" y="1356"/>
      <point x="328" y="1352"/>
      <point x="332" y="1352" type="curve"/>
      <point x="648" y="1300"/>
      <point x="950" y="1098"/>
      <point x="952" y="600" type="curve"/>
      <point x="950" y="594" type="line"/>
      <point x="950" y="256"/>
      <point x="818" y="10"/>
      <point x="538" y="10" type="curve" smooth="yes"/>
      <point x="330" y="10"/>
      <point x="148" y="172"/>
      <point x="148" y="446" type="curve" smooth="yes"/>
      <point x="148" y="700"/>
      <point x="284" y="896"/>
      <point x="548" y="896" type="curve" smooth="yes"/>
      <point x="784" y="896"/>
      <point x="912" y="712"/>
      <point x="950" y="558" type="curve"/>
      <point x="964" y="562" type="line"/>
      <point x="908" y="820"/>
      <point x="704" y="916"/>
      <point x="548" y="916" type="curve" smooth="yes"/>
      <point x="274" y="916"/>
      <point x="124" y="708"/>
      <point x="124" y="446" type="curve" smooth="yes"/>
      <point x="124" y="166"/>
      <point x="312" y="-10"/>
      <point x="538" y="-10" type="curve" smooth="yes"/>
      <point x="834" y="-10"/>
      <point x="970" y="238"/>
      <point x="970" y="594" type="curve" smooth="yes"/>
      <point x="970" y="1130"/>
      <point x="632" y="1324"/>
    </contour>
    <contour>
      <point x="514" y="1070" type="line"/>
      <point x="664" y="1230" type="line"/>
      <point x="668" y="1234" type="line"/>
      <point x="795" y="1373" type="line" smooth="yes"/>
      <point x="803" y="1382"/>
      <point x="802" y="1388"/>
      <point x="798" y="1394" type="curve"/>
      <point x="794" y="1398" type="line"/>
      <point x="654" y="1246" type="line"/>
      <point x="650" y="1242" type="line"/>
      <point x="508" y="1092" type="line"/>
      <point x="502" y="1086"/>
      <point x="504" y="1078"/>
      <point x="510" y="1074" type="curve"/>
    </contour>
  </outline>
  <guideline angle="0" x="0" y="1406"/>
</glyph>
<glyph name="divide" format="2">
  <advance width="1160"/>
  <unicode hex="00F7"/>
  <outline>
    <contour>
      <point x="118" y="660" type="line"/>
      <point x="1040" y="660" type="line"/>
      <point x="1040" y="680" type="line"/>
      <point x="118" y="680" type="line"/>
    </contour>
    <contour>
      <point x="514" y="1024" type="curve" smooth="yes"/>
      <point x="514" y="988"/>
      <point x="542" y="960"/>
      <point x="578" y="960" type="curve" smooth="yes"/>
      <point x="614" y="960"/>
      <point x="644" y="988"/>
      <point x="644" y="1024" type="curve" smooth="yes"/>
      <point x="644" y="1060"/>
      <point x="614" y="1090"/>
      <point x="578" y="1090" type="curve" smooth="yes"/>
      <point x="542" y="1090"/>
      <point x="514" y="1060"/>
    </contour>
    <contour>
      <point x="514" y="312" type="curve" smooth="yes"/>
      <point x="514" y="276"/>
      <point x="542" y="248"/>
      <point x="578" y="248" type="curve" smooth="yes"/>
      <point x="614" y="248"/>
      <point x="644" y="276"/>
      <point x="644" y="312" type="curve" smooth="yes"/>
      <point x="644" y="348"/>
      <point x="614" y="378"/>
      <point x="578" y="378" type="curve" smooth="yes"/>
      <point x="542" y="378"/>
      <point x="514" y="348"/>
    </contour>
  </outline>
</glyph>
<glyph name="oslash" format="2">
  <advance width="1098"/>
  <unicode hex="00F8"/>
  <anchor x="550" y="1120" name="top"/>
  <anchor x="467" y="-70" name="bottom"/>
  <outline>
    <contour>
      <point x="550" y="996" type="curve" smooth="yes"/>
      <point x="274" y="996"/>
      <point x="122" y="794"/>
      <point x="122" y="490" type="curve" smooth="yes"/>
      <point x="122" y="186"/>
      <point x="274" y="-12"/>
      <point x="550" y="-12" type="curve" smooth="yes"/>
      <point x="826" y="-12"/>
      <point x="978" y="186"/>
      <point x="978" y="490" type="curve" smooth="yes"/>
      <point x="978" y="794"/>
      <point x="826" y="996"/>
    </contour>
    <contour>
      <point x="550" y="8" type="curve" smooth="yes"/>
      <point x="282" y="8"/>
      <point x="146" y="202"/>
      <point x="146" y="490" type="curve" smooth="yes"/>
      <point x="146" y="778"/>
      <point x="282" y="976"/>
      <point x="550" y="976" type="curve" smooth="yes"/>
      <point x="818" y="976"/>
      <point x="954" y="778"/>
      <point x="954" y="490" type="curve" smooth="yes"/>
      <point x="954" y="202"/>
      <point x="818" y="8"/>
    </contour>
    <contour>
      <point x="988" y="1032" type="line"/>
      <point x="972" y="1032" type="line" smooth="yes"/>
      <point x="962" y="1032"/>
      <point x="958" y="1028"/>
      <point x="952" y="1020" type="curve" smooth="yes"/>
      <point x="134" y="-74" type="line"/>
      <point x="148" y="-74" type="line" smooth="yes"/>
      <point x="156" y="-74"/>
      <point x="164" y="-70"/>
      <point x="170" y="-62" type="curve" smooth="yes"/>
    </contour>
  </outline>
</glyph>
<glyph name="Dcroat" format="2">
  <advance width="1530"/>
  <unicode hex="0110"/>
  <anchor x="632" y="1496" name="Top"/>
  <anchor x="632" y="1496" name="top"/>
  <anchor x="595" y="-70" name="bottom"/>
  <outline>
    <contour>
      <point x="1391" y="700" type="curve" smooth="yes"/>
      <point x="1391" y="1142"/>
      <point x="1127" y="1400"/>
      <point x="743" y="1400" type="curve"/>
      <point x="243" y="1400" type="line"/>
      <point x="243" y="0" type="line"/>
      <point x="743" y="0" type="line"/>
      <point x="1127" y="0"/>
      <point x="1391" y="258"/>
    </contour>
    <contour>
      <point x="1365" y="700" type="curve" smooth="yes"/>
      <point x="1365" y="266"/>
      <point x="1111" y="20"/>
      <point x="743" y="20" type="curve"/>
      <point x="267" y="20" type="line"/>
      <point x="267" y="1380" type="line"/>
      <point x="743" y="1380" type="line"/>
      <point x="1111" y="1380"/>
      <point x="1365" y="1134"/>
    </contour>
    <contour>
      <point x="11" y="702" type="line"/>
      <point x="611" y="702" type="line"/>
      <point x="611" y="722" type="line"/>
      <point x="11" y="722" type="line"/>
    </contour>
  </outline>
</glyph>
<glyph name="Hbar" format="2">
  <advance width="1500"/>
  <unicode hex="0126"/>
  <anchor x="760" y="1496" name="Top"/>
  <anchor x="760" y="1496" name="top"/>
  <anchor x="761" y="-70" name="bottom"/>
  <anchor x="-56" y="1120" name="onRight"/>
  <outline>
    <component base="H" xOffset="2"/>
    <contour>
      <point x="44" y="1042" type="line"/>
      <point x="1456" y="1042" type="line"/>
      <point x="1456" y="1060" type="line"/>
      <point x="44" y="1060" type="line"/>
    </contour>
  </outline>
</glyph>
<glyph name="idotless" format="2">
  <advance width="416"/>
  <unicode hex="0131"/>
  <anchor x="208" y="1120" name="top"/>
  <anchor x="208" y="-70" name="bottom"/>
  <outline>
    <contour>
      <point x="196" y="980" type="line"/>
      <point x="196" y="0" type="line"/>
      <point x="220" y="0" type="line"/>
      <point x="220" y="980" type="line"/>
    </contour>
  </outline>
</glyph>
<glyph name="kgreenlandic" format="2">
  <advance width="897"/>
  <unicode hex="0138"/>
  <anchor x="470" y="1120" name="top"/>
  <anchor x="494" y="-70" name="bottom"/>
  <outline>
    <contour>
      <point x="184" y="980" type="line"/>
      <point x="184" y="0" type="line"/>
      <point x="208" y="0" type="line"/>
      <point x="208" y="980" type="line"/>
    </contour>
    <contour>
      <point x="198" y="536" type="line"/>
      <point x="198" y="518" type="line"/>
      <point x="248" y="518" type="line" smooth="yes"/>
      <point x="288" y="518"/>
      <point x="300" y="512"/>
      <point x="324" y="490" type="curve"/>
      <point x="816" y="12" type="line" smooth="yes"/>
      <point x="826" y="2"/>
      <point x="834" y="0"/>
      <point x="844" y="0" type="curve" smooth="yes"/>
      <point x="862" y="0" type="line"/>
      <point x="344" y="504" type="line"/>
      <point x="326" y="520"/>
      <point x="306" y="534"/>
      <point x="268" y="534" type="curve"/>
      <point x="264" y="524" type="line"/>
      <point x="294" y="524"/>
      <point x="308" y="530"/>
      <point x="326" y="546" type="curve" smooth="yes"/>
      <point x="822" y="980" type="line"/>
      <point x="804" y="980" type="line" smooth="yes"/>
      <point x="788" y="980"/>
      <point x="778" y="974"/>
      <point x="768" y="964" type="curve"/>
      <point x="302" y="554" type="line" smooth="yes"/>
      <point x="282" y="536"/>
      <point x="266" y="536"/>
      <point x="254" y="536" type="curve" smooth="yes"/>
    </contour>
  </outline>
</glyph>
<glyph name="Lslash" format="2">
  <advance width="1021"/>
  <unicode hex="0141"/>
  <anchor x="265" y="1496" name="Top"/>
  <anchor x="265" y="1496" name="top"/>
  <anchor x="601" y="-70" name="bottom"/>
  <anchor x="267" y="700" name="Bar"/>
  <outline>
    <contour>
      <point x="51" y="508" type="line"/>
      <point x="265" y="622" type="line"/>
      <point x="269" y="622" type="line"/>
      <point x="709" y="855" type="line" smooth="yes"/>
      <point x="721" y="861"/>
      <point x="721" y="867"/>
      <point x="721" y="875" type="curve" smooth="yes"/>
      <point x="721" y="886" type="line"/>
      <point x="269" y="646" type="line"/>
      <point x="265" y="646" type="line"/>
      <point x="63" y="538" type="line"/>
      <point x="53" y="532"/>
      <point x="51" y="528"/>
      <point x="51" y="518" type="curve" smooth="yes"/>
    </contour>
    <component base="L" xOffset="21"/>
  </outline>
</glyph>
<glyph name="lslash" format="2">
  <advance width="521"/>
  <unicode hex="0142"/>
  <anchor x="273" y="1496" name="Top"/>
  <anchor x="273" y="1496" name="top"/>
  <anchor x="275" y="-70" name="bottom"/>
  <anchor x="286" y="20" name="hook"/>
  <anchor x="275" y="700" name="bar"/>
  <outline>
    <component base="l" xOffset="66"/>
    <contour>
      <point x="52" y="714" type="line"/>
      <point x="272" y="822" type="line"/>
      <point x="276" y="822" type="line"/>
      <point x="484" y="924" type="line" smooth="yes"/>
      <point x="496" y="930"/>
      <point x="496" y="936"/>
      <point x="496" y="944" type="curve" smooth="yes"/>
      <point x="496" y="950" type="line"/>
      <point x="276" y="844" type="line"/>
      <point x="272" y="844" type="line"/>
      <point x="64" y="740" type="line"/>
      <point x="54" y="734"/>
      <point x="52" y="730"/>
      <point x="52" y="720" type="curve" smooth="yes"/>
    </contour>
  </outline>
</glyph>
<glyph name="Eng" format="2">
  <advance width="1496"/>
  <unicode hex="014A"/>
  <anchor x="794" y="1494" name="Top"/>
  <anchor x="794" y="1494" name="top"/>
  <anchor x="748" y="-421" name="bottom"/>
  <outline>
    <contour>
      <point x="1262" y="20" type="line"/>
      <point x="254" y="1392" type="line"/>
      <point x="250" y="1398"/>
      <point x="246" y="1400"/>
      <point x="240" y="1400" type="curve" smooth="yes"/>
      <point x="232" y="1400" type="line"/>
      <point x="232" y="0" type="line"/>
      <point x="252" y="0" type="line"/>
      <point x="252" y="1338" type="line" smooth="yes"/>
      <point x="252" y="1354"/>
      <point x="250" y="1372"/>
      <point x="248" y="1388" type="curve"/>
      <point x="238" y="1380" type="line"/>
      <point x="1247" y="7" type="line" smooth="yes"/>
      <point x="1250" y="3"/>
      <point x="1253" y="0"/>
      <point x="1258" y="0" type="curve"/>
      <point x="1264" y="0" type="line"/>
      <point x="1264" y="1400" type="line"/>
      <point x="1244" y="1400" type="line"/>
      <point x="1244" y="64" type="line" smooth="yes"/>
      <point x="1244" y="50"/>
      <point x="1246" y="34"/>
      <point x="1248" y="20" type="curve"/>
    </contour>
    <contour>
      <point x="1264" y="37" type="line"/>
      <point x="1244" y="37" type="line"/>
      <point x="1244" y="-70" type="line" smooth="yes"/>
      <point x="1244" y="-249"/>
      <point x="1163" y="-340"/>
      <point x="1024" y="-340" type="curve" smooth="yes"/>
      <point x="957" y="-340"/>
      <point x="916" y="-319"/>
      <point x="907" y="-319" type="curve" smooth="yes"/>
      <point x="904" y="-319"/>
      <point x="899" y="-319"/>
      <point x="897" y="-327" type="curve"/>
      <point x="895" y="-334" type="line"/>
      <point x="938" y="-351"/>
      <point x="979" y="-360"/>
      <point x="1025" y="-360" type="curve" smooth="yes"/>
      <point x="1181" y="-360"/>
      <point x="1264" y="-256"/>
      <point x="1264" y="-70" type="curve"/>
    </contour>
  </outline>
</glyph>
<glyph name="eng" format="2">
  <advance width="1087"/>
  <unicode hex="014B"/>
  <anchor x="544" y="1120" name="top"/>
  <anchor x="549" y="-421" name="bottom"/>
  <outline>
    <contour>
      <point x="208" y="0" type="line"/>
      <point x="208" y="752" type="line"/>
      <point x="208" y="756" type="line"/>
      <point x="204" y="964" type="line"/>
      <point x="204" y="976"/>
      <point x="200" y="980"/>
      <point x="190" y="980" type="curve" smooth="yes"/>
      <point x="184" y="980" type="line"/>
      <point x="184" y="0" type="line"/>
    </contour>
    <contour>
      <point x="914" y="628" type="line" smooth="yes"/>
      <point x="914" y="860"/>
      <point x="808" y="996"/>
      <point x="590" y="996" type="curve" smooth="yes"/>
      <point x="430" y="996"/>
      <point x="288" y="902"/>
      <point x="196" y="758" type="curve"/>
      <point x="200" y="734" type="line"/>
      <point x="298" y="884"/>
      <point x="434" y="976"/>
      <point x="590" y="976" type="curve" smooth="yes"/>
      <point x="794" y="976"/>
      <point x="890" y="846"/>
      <point x="890" y="628" type="curve"/>
      <point x="890" y="628" type="line"/>
      <point x="890" y="-86" type="line" smooth="yes"/>
      <point x="890" y="-265"/>
      <point x="809" y="-356"/>
      <point x="670" y="-356" type="curve" smooth="yes"/>
      <point x="603" y="-356"/>
      <point x="562" y="-335"/>
      <point x="553" y="-335" type="curve" smooth="yes"/>
      <point x="550" y="-335"/>
      <point x="545" y="-335"/>
      <point x="543" y="-343" type="curve"/>
      <point x="541" y="-350" type="line"/>
      <point x="584" y="-367"/>
      <point x="625" y="-376"/>
      <point x="671" y="-376" type="curve" smooth="yes"/>
      <point x="827" y="-376"/>
      <point x="914" y="-272"/>
      <point x="914" y="-86" type="curve"/>
    </contour>
  </outline>
</glyph>
<glyph name="OE" format="2">
  <advance width="2220"/>
  <unicode hex="0152"/>
  <anchor x="1136" y="1496" name="Top"/>
  <anchor x="1136" y="1496" name="top"/>
  <anchor x="1223" y="-70" name="bottom"/>
  <outline>
    <contour>
      <point x="1307" y="700" type="curve" smooth="yes"/>
      <point x="1307" y="1142"/>
      <point x="1075" y="1416"/>
      <point x="721" y="1416" type="curve" smooth="yes"/>
      <point x="379" y="1416"/>
      <point x="139" y="1140"/>
      <point x="139" y="700" type="curve" smooth="yes"/>
      <point x="139" y="258"/>
      <point x="379" y="-12"/>
      <point x="721" y="-12" type="curve" smooth="yes"/>
      <point x="1075" y="-12"/>
      <point x="1307" y="258"/>
    </contour>
    <contour>
      <point x="1311" y="1400" type="line"/>
      <point x="1289" y="1400" type="line"/>
      <point x="1289" y="0" type="line"/>
      <point x="1311" y="0" type="line"/>
    </contour>
    <contour>
      <point x="1303" y="722" type="line"/>
      <point x="1303" y="700" type="line"/>
      <point x="1985" y="700" type="line"/>
      <point x="1985" y="722" type="line"/>
    </contour>
    <contour>
      <point x="1303" y="1400" type="line"/>
      <point x="1303" y="1378" type="line"/>
      <point x="2105" y="1378" type="line"/>
      <point x="2105" y="1400" type="line"/>
    </contour>
    <contour>
      <point x="1303" y="22" type="line"/>
      <point x="1303" y="0" type="line"/>
      <point x="2105" y="0" type="line"/>
      <point x="2107" y="22" type="line"/>
    </contour>
    <contour>
      <point x="1287" y="700" type="curve" smooth="yes"/>
      <point x="1287" y="266"/>
      <point x="1057" y="8"/>
      <point x="725" y="8" type="curve" smooth="yes"/>
      <point x="397" y="8"/>
      <point x="163" y="266"/>
      <point x="163" y="700" type="curve" smooth="yes"/>
      <point x="163" y="1134"/>
      <point x="397" y="1396"/>
      <point x="725" y="1396" type="curve" smooth="yes"/>
      <point x="1057" y="1396"/>
      <point x="1287" y="1134"/>
    </contour>
  </outline>
</glyph>
<glyph name="oe" format="2">
  <advance width="1734"/>
  <unicode hex="0153"/>
  <anchor x="891" y="1120" name="top"/>
  <anchor x="837" y="-70" name="bottom"/>
  <outline>
    <contour>
      <point x="523" y="996" type="curve" smooth="yes"/>
      <point x="265" y="996"/>
      <point x="123" y="794"/>
      <point x="123" y="490" type="curve" smooth="yes"/>
      <point x="123" y="186"/>
      <point x="265" y="-12"/>
      <point x="523" y="-12" type="curve" smooth="yes"/>
      <point x="779" y="-12"/>
      <point x="915" y="186"/>
      <point x="915" y="490" type="curve" smooth="yes"/>
      <point x="915" y="794"/>
      <point x="779" y="996"/>
    </contour>
    <contour>
      <point x="523" y="8" type="curve" smooth="yes"/>
      <point x="273" y="8"/>
      <point x="147" y="202"/>
      <point x="147" y="490" type="curve" smooth="yes"/>
      <point x="147" y="778"/>
      <point x="273" y="976"/>
      <point x="523" y="976" type="curve" smooth="yes"/>
      <point x="771" y="976"/>
      <point x="897" y="778"/>
      <point x="897" y="490" type="curve" smooth="yes"/>
      <point x="897" y="202"/>
      <point x="771" y="8"/>
    </contour>
    <contour>
      <point x="1287" y="996" type="curve" smooth="yes"/>
      <point x="1043" y="996"/>
      <point x="903" y="798"/>
      <point x="903" y="510" type="curve" smooth="yes"/>
      <point x="903" y="182"/>
      <point x="1047" y="-12"/>
      <point x="1291" y="-12" type="curve" smooth="yes"/>
      <point x="1429" y="-12"/>
      <point x="1559" y="60"/>
      <point x="1599" y="116" type="curve"/>
      <point x="1595" y="120" type="line" smooth="yes"/>
      <point x="1593" y="122"/>
      <point x="1591" y="124"/>
      <point x="1587" y="124" type="curve" smooth="yes"/>
      <point x="1575" y="124"/>
      <point x="1485" y="8"/>
      <point x="1291" y="8" type="curve" smooth="yes"/>
      <point x="1069" y="8"/>
      <point x="921" y="186"/>
      <point x="921" y="510" type="curve" smooth="yes"/>
      <point x="921" y="786"/>
      <point x="1055" y="976"/>
      <point x="1289" y="976" type="curve" smooth="yes"/>
      <point x="1463" y="976"/>
      <point x="1599" y="836"/>
      <point x="1599" y="562" type="curve"/>
      <point x="917" y="562" type="line"/>
      <point x="915" y="544" type="line"/>
      <point x="1609" y="544" type="line" smooth="yes"/>
      <point x="1615" y="544"/>
      <point x="1619" y="548"/>
      <point x="1619" y="554" type="curve" smooth="yes"/>
      <point x="1619" y="846"/>
      <point x="1473" y="996"/>
    </contour>
  </outline>
</glyph>
<glyph name="Tbar" format="2">
  <advance width="1178"/>
  <unicode hex="0166"/>
  <anchor x="591" y="1496" name="Top"/>
  <anchor x="591" y="1496" name="top"/>
  <anchor x="591" y="-70" name="bottom"/>
  <anchor x="589" y="700" name="Slash"/>
  <outline>
    <contour>
      <point x="219" y="828" type="line"/>
      <point x="959" y="828" type="line"/>
      <point x="959" y="848" type="line"/>
      <point x="219" y="848" type="line"/>
    </contour>
    <component base="T" xOffset="20"/>
  </outline>
</glyph>
<glyph name="tbar" format="2">
  <advance width="663"/>
  <unicode hex="0167"/>
  <anchor x="255" y="1400" name="top"/>
  <anchor x="428" y="-70" name="bottom"/>
  <anchor x="357" y="700" name="Slash"/>
  <anchor x="256" y="532" name="bar"/>
  <outline>
    <component base="t" xOffset="4"/>
    <contour>
      <point x="76" y="668" type="line"/>
      <point x="594" y="668" type="line"/>
      <point x="594" y="688" type="line"/>
      <point x="76" y="688" type="line"/>
    </contour>
  </outline>
</glyph>
<glyph name="longs" format="2">
  <advance width="488"/>
  <unicode hex="017F"/>
  <anchor x="469" y="1478" name="top"/>
  <anchor x="420" y="1496" name="Top"/>
  <anchor x="252" y="-70" name="bottom"/>
  <outline>
    <contour>
      <point x="264" y="0" type="line"/>
      <point x="264" y="1088" type="line" smooth="yes"/>
      <point x="264" y="1310"/>
      <point x="370" y="1394"/>
      <point x="508" y="1394" type="curve" smooth="yes"/>
      <point x="578" y="1394"/>
      <point x="614" y="1366"/>
      <point x="618" y="1384" type="curve"/>
      <point x="620" y="1392" type="line"/>
      <point x="592" y="1406"/>
      <point x="546" y="1414"/>
      <point x="508" y="1414" type="curve" smooth="yes"/>
      <point x="352" y="1414"/>
      <point x="240" y="1312"/>
      <point x="240" y="1088" type="curve" smooth="yes"/>
      <point x="240" y="0" type="line"/>
    </contour>
    <contour>
      <point x="260" y="918" type="line"/>
      <point x="260" y="938" type="line"/>
      <point x="64" y="938" type="line"/>
      <point x="64" y="930" type="line"/>
      <point x="64" y="926"/>
      <point x="68" y="922"/>
      <point x="76" y="922" type="curve"/>
      <point x="246" y="918" type="line"/>
      <point x="260" y="918" type="line"/>
    </contour>
  </outline>
</glyph>
<glyph name="bstroke" format="2">
  <advance width="1087"/>
  <unicode hex="0180"/>
  <anchor x="196" y="1496" name="Top"/>
  <anchor x="196" y="1496" name="top"/>
  <anchor x="455" y="-70" name="bottom"/>
  <outline>
    <contour>
      <point x="192" y="0" type="line" smooth="yes"/>
      <point x="202" y="0"/>
      <point x="204" y="8"/>
      <point x="204" y="14" type="curve"/>
      <point x="208" y="179" type="line"/>
      <point x="208" y="187" type="line"/>
      <point x="208" y="1440" type="line"/>
      <point x="184" y="1440" type="line"/>
      <point x="184" y="0" type="line"/>
    </contour>
    <contour>
      <point x="198" y="180" type="line"/>
      <point x="272" y="50"/>
      <point x="384" y="-12"/>
      <point x="534" y="-12" type="curve" smooth="yes"/>
      <point x="818" y="-12"/>
      <point x="964" y="212"/>
      <point x="964" y="496" type="curve" smooth="yes"/>
      <point x="964" y="836"/>
      <point x="826" y="996"/>
      <point x="572" y="996" type="curve" smooth="yes"/>
      <point x="418" y="996"/>
      <point x="284" y="904"/>
      <point x="196" y="760" type="curve"/>
      <point x="200" y="734" type="line"/>
      <point x="290" y="884"/>
      <point x="424" y="976"/>
      <point x="572" y="976" type="curve" smooth="yes"/>
      <point x="812" y="976"/>
      <point x="940" y="820"/>
      <point x="940" y="496" type="curve" smooth="yes"/>
      <point x="940" y="222"/>
      <point x="808" y="8"/>
      <point x="534" y="8" type="curve" smooth="yes"/>
      <point x="390" y="8"/>
      <point x="286" y="62"/>
      <point x="198" y="212" type="curve"/>
    </contour>
    <contour>
      <point x="26" y="1170" type="line"/>
      <point x="466" y="1170" type="line"/>
      <point x="466" y="1190" type="line"/>
      <point x="26" y="1190" type="line"/>
    </contour>
  </outline>
</glyph>
<glyph name="Bhook" format="2">
  <advance width="1478"/>
  <unicode hex="0181"/>
  <anchor x="652" y="1496" name="Top"/>
  <anchor x="652" y="1496" name="top"/>
  <anchor x="775" y="-70" name="bottom"/>
  <outline>
    <contour>
      <point x="889" y="0" type="line" smooth="yes"/>
      <point x="1175" y="0"/>
      <point x="1343" y="130"/>
      <point x="1343" y="368" type="curve" smooth="yes"/>
      <point x="1343" y="586"/>
      <point x="1169" y="716"/>
      <point x="897" y="716" type="curve"/>
      <point x="917" y="712" type="line"/>
      <point x="1121" y="712"/>
      <point x="1277" y="876"/>
      <point x="1277" y="1052" type="curve" smooth="yes"/>
      <point x="1277" y="1276"/>
      <point x="1131" y="1400"/>
      <point x="835" y="1400" type="curve" smooth="yes"/>
      <point x="471" y="1400" type="line"/>
      <point x="471" y="0" type="line"/>
      <point x="495" y="0" type="line"/>
      <point x="495" y="1380" type="line"/>
      <point x="835" y="1380" type="line" smooth="yes"/>
      <point x="1119" y="1380"/>
      <point x="1255" y="1260"/>
      <point x="1255" y="1052" type="curve" smooth="yes"/>
      <point x="1255" y="904"/>
      <point x="1143" y="720"/>
      <point x="845" y="720" type="curve"/>
      <point x="487" y="720" type="line"/>
      <point x="487" y="700" type="line"/>
      <point x="891" y="700" type="line" smooth="yes"/>
      <point x="1151" y="700"/>
      <point x="1319" y="572"/>
      <point x="1319" y="368" type="curve" smooth="yes"/>
      <point x="1319" y="138"/>
      <point x="1159" y="20"/>
      <point x="889" y="20" type="curve" smooth="yes"/>
      <point x="483" y="20" type="line"/>
      <point x="481" y="0" type="line"/>
    </contour>
    <contour>
      <point x="481" y="1380" type="line"/>
      <point x="481" y="1400" type="line"/>
      <point x="415" y="1400" type="line" smooth="yes"/>
      <point x="195" y="1400"/>
      <point x="75" y="1298"/>
      <point x="75" y="1136" type="curve" smooth="yes"/>
      <point x="75" y="1092"/>
      <point x="84" y="1049"/>
      <point x="101" y="1001" type="curve"/>
      <point x="110" y="1003" type="line" smooth="yes"/>
      <point x="120" y="1005"/>
      <point x="118" y="1014"/>
      <point x="115" y="1024" type="curve" smooth="yes"/>
      <point x="103" y="1061"/>
      <point x="96" y="1102"/>
      <point x="96" y="1136" type="curve" smooth="yes"/>
      <point x="96" y="1286"/>
      <point x="204" y="1380"/>
      <point x="415" y="1380" type="curve" smooth="yes"/>
    </contour>
  </outline>
</glyph>
<glyph name="Btopbar" format="2">
  <advance width="1197"/>
  <unicode hex="0182"/>
  <anchor x="503" y="1496" name="Top"/>
  <anchor x="503" y="1496" name="top"/>
  <anchor x="523" y="-70" name="bottom"/>
  <outline>
    <contour>
      <point x="1034" y="1400" type="line"/>
      <point x="232" y="1400" type="line"/>
      <point x="232" y="0" type="line"/>
      <point x="256" y="0" type="line"/>
      <point x="256" y="1380" type="line"/>
      <point x="1034" y="1380" type="line"/>
    </contour>
    <contour>
      <point x="246" y="740" type="line"/>
      <point x="246" y="720" type="line"/>
      <point x="632" y="720" type="line" smooth="yes"/>
      <point x="902" y="720"/>
      <point x="1050" y="608"/>
      <point x="1050" y="378" type="curve" smooth="yes"/>
      <point x="1050" y="148"/>
      <point x="900" y="20"/>
      <point x="630" y="20" type="curve" smooth="yes"/>
      <point x="244" y="20" type="line"/>
      <point x="242" y="0" type="line"/>
      <point x="630" y="0" type="line" smooth="yes"/>
      <point x="916" y="0"/>
      <point x="1074" y="140"/>
      <point x="1074" y="378" type="curve" smooth="yes"/>
      <point x="1074" y="616"/>
      <point x="918" y="740"/>
      <point x="632" y="740" type="curve"/>
    </contour>
  </outline>
</glyph>
<glyph name="Tonesix" format="2">
  <advance width="1223"/>
  <unicode hex="0184"/>
  <anchor x="265" y="1496" name="Top"/>
  <anchor x="265" y="1496" name="top"/>
  <anchor x="547" y="-70" name="bottom"/>
  <outline>
    <contour>
      <point x="269" y="820" type="line"/>
      <point x="269" y="800" type="line"/>
      <point x="653" y="800" type="line" smooth="yes"/>
      <point x="953" y="800"/>
      <point x="1111" y="622"/>
      <point x="1111" y="418" type="curve" smooth="yes"/>
      <point x="1111" y="188"/>
      <point x="961" y="20"/>
      <point x="651" y="20" type="curve" smooth="yes"/>
      <point x="277" y="20" type="line"/>
      <point x="277" y="170" type="line"/>
      <point x="277" y="1400" type="line"/>
      <point x="259" y="1400" type="line"/>
      <point x="253" y="1369" type="line"/>
      <point x="253" y="0" type="line"/>
      <point x="651" y="0" type="line" smooth="yes"/>
      <point x="977" y="0"/>
      <point x="1135" y="180"/>
      <point x="1135" y="418" type="curve" smooth="yes"/>
      <point x="1135" y="636"/>
      <point x="965" y="820"/>
      <point x="653" y="820" type="curve"/>
    </contour>
    <contour>
      <point x="263" y="1098" type="line"/>
      <point x="263" y="1098"/>
      <point x="263" y="1400"/>
      <point x="263" y="1400" type="curve"/>
      <point x="259" y="1400" type="line"/>
      <point x="118" y="1164" type="line"/>
      <point x="253" y="1098" type="line"/>
    </contour>
  </outline>
</glyph>
<glyph name="Oopen" format="2">
  <advance width="1385"/>
  <unicode hex="0186"/>
  <anchor x="612" y="1496" name="Top"/>
  <anchor x="612" y="1496" name="top"/>
  <anchor x="693" y="-70" name="bottom"/>
  <outline>
    <contour>
      <point x="119" y="189" type="curve" smooth="yes"/>
      <point x="116" y="189"/>
      <point x="114" y="188"/>
      <point x="112" y="186" type="curve"/>
      <point x="103" y="178" type="line"/>
      <point x="221" y="64"/>
      <point x="367" y="-16"/>
      <point x="599" y="-16" type="curve" smooth="yes"/>
      <point x="975" y="-16"/>
      <point x="1249" y="258"/>
      <point x="1249" y="700" type="curve" smooth="yes"/>
      <point x="1249" y="1128"/>
      <point x="977" y="1416"/>
      <point x="579" y="1416" type="curve" smooth="yes"/>
      <point x="394" y="1416"/>
      <point x="258" y="1359"/>
      <point x="131" y="1252" type="curve"/>
      <point x="135" y="1246" type="line"/>
      <point x="137" y="1242"/>
      <point x="141" y="1242"/>
      <point x="145" y="1242" type="curve" smooth="yes"/>
      <point x="164" y="1242"/>
      <point x="293" y="1396"/>
      <point x="579" y="1396" type="curve" smooth="yes"/>
      <point x="957" y="1396"/>
      <point x="1225" y="1128"/>
      <point x="1225" y="700" type="curve" smooth="yes"/>
      <point x="1225" y="266"/>
      <point x="957" y="4"/>
      <point x="599" y="4" type="curve" smooth="yes"/>
      <point x="371" y="4"/>
      <point x="251" y="70"/>
      <point x="127" y="184" type="curve"/>
      <point x="124" y="187"/>
      <point x="122" y="189"/>
    </contour>
  </outline>
</glyph>
<glyph name="Chook" format="2">
  <advance width="1369"/>
  <unicode hex="0187"/>
  <anchor x="815" y="1496" name="Top"/>
  <anchor x="815" y="1496" name="top"/>
  <anchor x="693" y="-70" name="bottom"/>
  <outline>
    <contour>
      <point x="1267" y="189" type="curve" smooth="yes"/>
      <point x="1264" y="189"/>
      <point x="1262" y="187"/>
      <point x="1259" y="184" type="curve"/>
      <point x="1135" y="70"/>
      <point x="1015" y="4"/>
      <point x="787" y="4" type="curve" smooth="yes"/>
      <point x="429" y="4"/>
      <point x="161" y="266"/>
      <point x="161" y="700" type="curve" smooth="yes"/>
      <point x="161" y="1128"/>
      <point x="429" y="1396"/>
      <point x="807" y="1396" type="curve" smooth="yes"/>
      <point x="1093" y="1396"/>
      <point x="1222" y="1242"/>
      <point x="1241" y="1242" type="curve" smooth="yes"/>
      <point x="1245" y="1242"/>
      <point x="1249" y="1242"/>
      <point x="1251" y="1246" type="curve"/>
      <point x="1255" y="1252" type="line"/>
      <point x="1128" y="1359"/>
      <point x="992" y="1416"/>
      <point x="807" y="1416" type="curve" smooth="yes"/>
      <point x="409" y="1416"/>
      <point x="137" y="1128"/>
      <point x="137" y="700" type="curve" smooth="yes"/>
      <point x="137" y="258"/>
      <point x="411" y="-16"/>
      <point x="787" y="-16" type="curve" smooth="yes"/>
      <point x="1019" y="-16"/>
      <point x="1165" y="64"/>
      <point x="1283" y="178" type="curve"/>
      <point x="1274" y="186" type="line"/>
      <point x="1272" y="188"/>
      <point x="1270" y="189"/>
    </contour>
    <contour>
      <point x="1255" y="1374" type="line" smooth="yes"/>
      <point x="1255" y="1547"/>
      <point x="1319" y="1654"/>
      <point x="1449" y="1654" type="curve" smooth="yes"/>
      <point x="1483" y="1654"/>
      <point x="1523" y="1648"/>
      <point x="1561" y="1635" type="curve"/>
      <point x="1571" y="1632"/>
      <point x="1580" y="1630"/>
      <point x="1582" y="1640" type="curve"/>
      <point x="1584" y="1648" type="line"/>
      <point x="1536" y="1665"/>
      <point x="1493" y="1674"/>
      <point x="1449" y="1674" type="curve" smooth="yes"/>
      <point x="1311" y="1674"/>
      <point x="1235" y="1560"/>
      <point x="1235" y="1374" type="curve" smooth="yes"/>
      <point x="1235" y="1335"/>
      <point x="1235" y="1299"/>
      <point x="1239" y="1252" type="curve"/>
      <point x="1255" y="1252" type="line"/>
    </contour>
  </outline>
</glyph>
<glyph name="chook" format="2">
  <advance width="934"/>
  <unicode hex="0188"/>
  <anchor x="544" y="1120" name="top"/>
  <anchor x="465" y="-70" name="bottom"/>
  <outline>
    <contour>
      <point x="829" y="894" type="line"/>
      <point x="763" y="954"/>
      <point x="669" y="996"/>
      <point x="551" y="996" type="curve" smooth="yes"/>
      <point x="281" y="996"/>
      <point x="123" y="794"/>
      <point x="123" y="490" type="curve" smooth="yes"/>
      <point x="123" y="174"/>
      <point x="283" y="-12"/>
      <point x="535" y="-12" type="curve" smooth="yes"/>
      <point x="687" y="-12"/>
      <point x="805" y="58"/>
      <point x="845" y="116" type="curve"/>
      <point x="841" y="120" type="line" smooth="yes"/>
      <point x="839" y="122"/>
      <point x="837" y="124"/>
      <point x="833" y="124" type="curve" smooth="yes"/>
      <point x="817" y="124"/>
      <point x="743" y="8"/>
      <point x="535" y="8" type="curve" smooth="yes"/>
      <point x="301" y="8"/>
      <point x="147" y="182"/>
      <point x="147" y="490" type="curve" smooth="yes"/>
      <point x="147" y="788"/>
      <point x="297" y="976"/>
      <point x="551" y="976" type="curve" smooth="yes"/>
      <point x="731" y="976"/>
      <point x="799" y="884"/>
      <point x="815" y="884" type="curve" smooth="yes"/>
      <point x="819" y="884"/>
      <point x="821" y="886"/>
      <point x="823" y="888" type="curve" smooth="yes"/>
    </contour>
    <contour>
      <point x="829" y="1032" type="line" smooth="yes"/>
      <point x="829" y="1175"/>
      <point x="871" y="1274"/>
      <point x="998" y="1274" type="curve" smooth="yes"/>
      <point x="1057" y="1274"/>
      <point x="1101" y="1251"/>
      <point x="1110" y="1251" type="curve" smooth="yes"/>
      <point x="1113" y="1251"/>
      <point x="1118" y="1251"/>
      <point x="1120" y="1259" type="curve"/>
      <point x="1122" y="1266" type="line"/>
      <point x="1079" y="1283"/>
      <point x="1039" y="1292"/>
      <point x="998" y="1292" type="curve" smooth="yes"/>
      <point x="857" y="1292"/>
      <point x="809" y="1188"/>
      <point x="809" y="1032" type="curve" smooth="yes"/>
      <point x="809" y="893" type="line"/>
      <point x="809" y="893"/>
      <point x="829" y="894"/>
      <point x="829" y="894" type="curve"/>
    </contour>
  </outline>
  <guideline angle="0" x="0" y="1406"/>
</glyph>
<glyph name="Dafrican" format="2">
  <advance width="1530"/>
  <unicode hex="0189"/>
  <anchor x="632" y="1496" name="Top"/>
  <anchor x="632" y="1496" name="top"/>
  <anchor x="595" y="-70" name="bottom"/>
  <outline>
    <contour>
      <point x="1391" y="700" type="curve" smooth="yes"/>
      <point x="1391" y="1142"/>
      <point x="1127" y="1400"/>
      <point x="743" y="1400" type="curve"/>
      <point x="243" y="1400" type="line"/>
      <point x="243" y="0" type="line"/>
      <point x="743" y="0" type="line"/>
      <point x="1127" y="0"/>
      <point x="1391" y="258"/>
    </contour>
    <contour>
      <point x="1365" y="700" type="curve" smooth="yes"/>
      <point x="1365" y="266"/>
      <point x="1111" y="20"/>
      <point x="743" y="20" type="curve"/>
      <point x="267" y="20" type="line"/>
      <point x="267" y="1380" type="line"/>
      <point x="743" y="1380" type="line"/>
      <point x="1111" y="1380"/>
      <point x="1365" y="1134"/>
    </contour>
    <contour>
      <point x="11" y="702" type="line"/>
      <point x="611" y="702" type="line"/>
      <point x="611" y="722" type="line"/>
      <point x="11" y="722" type="line"/>
    </contour>
  </outline>
</glyph>
<glyph name="Dhook" format="2">
  <advance width="1758"/>
  <unicode hex="018A"/>
  <anchor x="741" y="1496" name="Top"/>
  <anchor x="741" y="1496" name="top"/>
  <anchor x="823" y="-70" name="bottom"/>
  <outline>
    <contour>
      <point x="1619" y="700" type="curve" smooth="yes"/>
      <point x="1619" y="1142"/>
      <point x="1355" y="1400"/>
      <point x="971" y="1400" type="curve"/>
      <point x="471" y="1400" type="line"/>
      <point x="471" y="0" type="line"/>
      <point x="971" y="0" type="line"/>
      <point x="1355" y="0"/>
      <point x="1619" y="258"/>
    </contour>
    <contour>
      <point x="1593" y="700" type="curve" smooth="yes"/>
      <point x="1593" y="266"/>
      <point x="1339" y="20"/>
      <point x="971" y="20" type="curve"/>
      <point x="495" y="20" type="line"/>
      <point x="495" y="1380" type="line"/>
      <point x="971" y="1380" type="line"/>
      <point x="1339" y="1380"/>
      <point x="1593" y="1134"/>
    </contour>
    <contour>
      <point x="481" y="1380" type="line"/>
      <point x="481" y="1400" type="line"/>
      <point x="415" y="1400" type="line" smooth="yes"/>
      <point x="195" y="1400"/>
      <point x="75" y="1298"/>
      <point x="75" y="1136" type="curve" smooth="yes"/>
      <point x="75" y="1092"/>
      <point x="84" y="1049"/>
      <point x="101" y="1001" type="curve"/>
      <point x="110" y="1003" type="line" smooth="yes"/>
      <point x="120" y="1005"/>
      <point x="118" y="1014"/>
      <point x="115" y="1024" type="curve" smooth="yes"/>
      <point x="103" y="1061"/>
      <point x="96" y="1102"/>
      <point x="96" y="1136" type="curve" smooth="yes"/>
      <point x="96" y="1286"/>
      <point x="204" y="1380"/>
      <point x="415" y="1380" type="curve" smooth="yes"/>
    </contour>
  </outline>
</glyph>
<glyph name="Dtopbar" format="2">
  <advance width="1197"/>
  <unicode hex="018B"/>
  <anchor x="693" y="1496" name="Top"/>
  <anchor x="693" y="1496" name="top"/>
  <anchor x="674" y="-70" name="bottom"/>
  <outline>
    <contour>
      <point x="163" y="1380" type="line"/>
      <point x="941" y="1380" type="line"/>
      <point x="941" y="0" type="line"/>
      <point x="965" y="0" type="line"/>
      <point x="965" y="1400" type="line"/>
      <point x="163" y="1400" type="line"/>
    </contour>
    <contour>
      <point x="565" y="740" type="line"/>
      <point x="279" y="740"/>
      <point x="123" y="616"/>
      <point x="123" y="378" type="curve" smooth="yes"/>
      <point x="123" y="140"/>
      <point x="281" y="0"/>
      <point x="567" y="0" type="curve" smooth="yes"/>
      <point x="955" y="0" type="line"/>
      <point x="953" y="20" type="line"/>
      <point x="567" y="20" type="line" smooth="yes"/>
      <point x="297" y="20"/>
      <point x="147" y="148"/>
      <point x="147" y="378" type="curve" smooth="yes"/>
      <point x="147" y="608"/>
      <point x="295" y="720"/>
      <point x="565" y="720" type="curve" smooth="yes"/>
      <point x="951" y="720" type="line"/>
      <point x="951" y="740" type="line"/>
    </contour>
  </outline>
</glyph>
<glyph name="deltaturned" format="2">
  <advance width="981"/>
  <unicode hex="018D"/>
  <anchor x="488" y="1496" name="Top"/>
  <anchor x="488" y="1496" name="top"/>
  <anchor x="490" y="-70" name="bottom"/>
  <outline>
    <contour>
      <point x="205" y="15" type="line"/>
      <point x="294" y="-3"/>
      <point x="405" y="-12"/>
      <point x="474" y="-12" type="curve" smooth="yes"/>
      <point x="693" y="-12"/>
      <point x="754" y="78"/>
      <point x="754" y="165" type="curve" smooth="yes"/>
      <point x="754" y="450"/>
      <point x="98" y="465"/>
      <point x="98" y="981" type="curve" smooth="yes"/>
      <point x="98" y="1236"/>
      <point x="258" y="1390"/>
      <point x="486" y="1390" type="curve" smooth="yes"/>
      <point x="750" y="1390"/>
      <point x="882" y="1184"/>
      <point x="882" y="957" type="curve" smooth="yes"/>
      <point x="882" y="686"/>
      <point x="693" y="533"/>
      <point x="446" y="467" type="curve"/>
      <point x="465" y="456" type="line"/>
      <point x="743" y="532"/>
      <point x="906" y="701"/>
      <point x="906" y="955" type="curve" smooth="yes"/>
      <point x="906" y="1197"/>
      <point x="765" y="1410"/>
      <point x="486" y="1410" type="curve" smooth="yes"/>
      <point x="254" y="1410"/>
      <point x="74" y="1248"/>
      <point x="74" y="974" type="curve" smooth="yes"/>
      <point x="74" y="459"/>
      <point x="731" y="429"/>
      <point x="731" y="162" type="curve" smooth="yes"/>
      <point x="731" y="78"/>
      <point x="665" y="8"/>
      <point x="470" y="8" type="curve" smooth="yes"/>
      <point x="354" y="8"/>
      <point x="230" y="33"/>
      <point x="222" y="33" type="curve" smooth="yes"/>
      <point x="211" y="33"/>
      <point x="205" y="33"/>
      <point x="205" y="22" type="curve"/>
    </contour>
  </outline>
</glyph>
<glyph name="Ereversed" format="2">
  <advance width="1165"/>
  <unicode hex="018E"/>
  <anchor x="629" y="1496" name="Top"/>
  <anchor x="629" y="1496" name="top"/>
  <anchor x="603" y="-70" name="bottom"/>
  <outline>
    <contour>
      <point x="909" y="0" type="line"/>
      <point x="933" y="0" type="line"/>
      <point x="933" y="1400" type="line"/>
      <point x="909" y="1400" type="line"/>
    </contour>
    <contour>
      <point x="235" y="722" type="line"/>
      <point x="235" y="700" type="line"/>
      <point x="917" y="700" type="line"/>
      <point x="917" y="722" type="line"/>
    </contour>
    <contour>
      <point x="115" y="1400" type="line"/>
      <point x="115" y="1378" type="line"/>
      <point x="917" y="1378" type="line"/>
      <point x="917" y="1400" type="line"/>
    </contour>
    <contour>
      <point x="113" y="22" type="line"/>
      <point x="115" y="0" type="line"/>
      <point x="917" y="0" type="line"/>
      <point x="917" y="22" type="line"/>
    </contour>
  </outline>
</glyph>
<glyph name="Schwa" format="2">
  <advance width="1399"/>
  <unicode hex="018F"/>
  <anchor x="648" y="1496" name="Top"/>
  <anchor x="648" y="1496" name="top"/>
  <anchor x="665" y="-70" name="bottom"/>
  <outline>
    <contour>
      <point x="653" y="-10" type="curve" smooth="yes"/>
      <point x="1036" y="-10"/>
      <point x="1259" y="271"/>
      <point x="1259" y="679" type="curve" smooth="yes"/>
      <point x="1259" y="1143"/>
      <point x="1027" y="1418"/>
      <point x="647" y="1418" type="curve" smooth="yes"/>
      <point x="416" y="1418"/>
      <point x="264" y="1333"/>
      <point x="166" y="1237" type="curve"/>
      <point x="171" y="1232" type="line" smooth="yes"/>
      <point x="173" y="1230"/>
      <point x="176" y="1228"/>
      <point x="181" y="1228" type="curve" smooth="yes"/>
      <point x="208" y="1228"/>
      <point x="316" y="1398"/>
      <point x="647" y="1398" type="curve" smooth="yes"/>
      <point x="996" y="1398"/>
      <point x="1235" y="1138"/>
      <point x="1235" y="679" type="curve" smooth="yes"/>
      <point x="1235" y="280"/>
      <point x="1021" y="10"/>
      <point x="653" y="10" type="curve" smooth="yes"/>
      <point x="375" y="10"/>
      <point x="148" y="220"/>
      <point x="148" y="580" type="curve"/>
      <point x="1231" y="580" type="line"/>
      <point x="1234" y="602" type="line"/>
      <point x="143" y="602" type="line" smooth="yes"/>
      <point x="135" y="602"/>
      <point x="126" y="596"/>
      <point x="126" y="588" type="curve" smooth="yes"/>
      <point x="126" y="203"/>
      <point x="361" y="-10"/>
    </contour>
  </outline>
</glyph>
<glyph name="Fhook" format="2">
  <advance width="1128"/>
  <unicode hex="0191"/>
  <anchor x="508" y="1496" name="Top"/>
  <anchor x="508" y="1496" name="top"/>
  <anchor x="244" y="-421" name="bottom"/>
  <outline>
    <contour>
      <point x="256" y="1400" type="line"/>
      <point x="232" y="1400" type="line"/>
      <point x="232" y="0" type="line"/>
      <point x="256" y="0" type="line"/>
    </contour>
    <contour>
      <point x="248" y="702" type="line"/>
      <point x="248" y="680" type="line"/>
      <point x="950" y="680" type="line"/>
      <point x="950" y="702" type="line"/>
    </contour>
    <contour>
      <point x="248" y="1400" type="line"/>
      <point x="248" y="1378" type="line"/>
      <point x="1050" y="1378" type="line"/>
      <point x="1050" y="1400" type="line"/>
    </contour>
    <contour>
      <point x="232" y="-76" type="line" smooth="yes"/>
      <point x="232" y="-249"/>
      <point x="168" y="-356"/>
      <point x="38" y="-356" type="curve" smooth="yes"/>
      <point x="4" y="-356"/>
      <point x="-36" y="-350"/>
      <point x="-74" y="-337" type="curve"/>
      <point x="-84" y="-334"/>
      <point x="-93" y="-332"/>
      <point x="-95" y="-342" type="curve"/>
      <point x="-97" y="-350" type="line"/>
      <point x="-49" y="-367"/>
      <point x="-6" y="-376"/>
      <point x="38" y="-376" type="curve" smooth="yes"/>
      <point x="176" y="-376"/>
      <point x="256" y="-262"/>
      <point x="256" y="-76" type="curve" smooth="yes"/>
      <point x="256" y="46" type="line"/>
      <point x="232" y="46" type="line"/>
    </contour>
  </outline>
</glyph>
<glyph name="florin" format="2">
  <advance width="620"/>
  <unicode hex="0192"/>
  <anchor x="391" y="1496" name="Top"/>
  <anchor x="391" y="1496" name="top"/>
  <anchor x="223" y="-421" name="bottom"/>
  <outline>
    <contour>
      <point x="235" y="2" type="line"/>
      <point x="235" y="926" type="line"/>
      <point x="235" y="934" type="line"/>
      <point x="235" y="1088" type="line" smooth="yes"/>
      <point x="235" y="1310"/>
      <point x="340" y="1394"/>
      <point x="478" y="1394" type="curve" smooth="yes"/>
      <point x="558" y="1394"/>
      <point x="584" y="1366"/>
      <point x="588" y="1384" type="curve"/>
      <point x="590" y="1392" type="line"/>
      <point x="562" y="1406"/>
      <point x="516" y="1414"/>
      <point x="478" y="1414" type="curve" smooth="yes"/>
      <point x="322" y="1414"/>
      <point x="211" y="1312"/>
      <point x="211" y="1088" type="curve" smooth="yes"/>
      <point x="211" y="2" type="line"/>
    </contour>
    <contour>
      <point x="584" y="918" type="line"/>
      <point x="584" y="938" type="line"/>
      <point x="35" y="938" type="line"/>
      <point x="35" y="930" type="line" smooth="yes"/>
      <point x="35" y="926"/>
      <point x="39" y="922"/>
      <point x="47" y="922" type="curve"/>
      <point x="217" y="918" type="line"/>
      <point x="231" y="918" type="line"/>
    </contour>
    <contour>
      <point x="211" y="-106" type="line" smooth="yes"/>
      <point x="211" y="-285"/>
      <point x="130" y="-376"/>
      <point x="-9" y="-376" type="curve" smooth="yes"/>
      <point x="-76" y="-376"/>
      <point x="-117" y="-355"/>
      <point x="-126" y="-355" type="curve" smooth="yes"/>
      <point x="-129" y="-355"/>
      <point x="-134" y="-355"/>
      <point x="-136" y="-363" type="curve"/>
      <point x="-138" y="-370" type="line"/>
      <point x="-95" y="-387"/>
      <point x="-54" y="-396"/>
      <point x="-8" y="-396" type="curve" smooth="yes"/>
      <point x="148" y="-396"/>
      <point x="235" y="-292"/>
      <point x="235" y="-106" type="curve"/>
      <point x="235" y="12" type="line"/>
      <point x="211" y="12" type="line"/>
    </contour>
  </outline>
</glyph>
<glyph name="Ghook" format="2">
  <advance width="1483"/>
  <unicode hex="0193"/>
  <anchor x="839" y="1496" name="Top"/>
  <anchor x="839" y="1496" name="top"/>
  <anchor x="820" y="-70" name="bottom"/>
  <outline>
    <contour>
      <point x="1319" y="152" type="line"/>
      <point x="1171" y="58"/>
      <point x="1039" y="4"/>
      <point x="805" y="4" type="curve" smooth="yes"/>
      <point x="421" y="4"/>
      <point x="161" y="266"/>
      <point x="161" y="700" type="curve" smooth="yes"/>
      <point x="161" y="1134"/>
      <point x="421" y="1396"/>
      <point x="827" y="1396" type="curve" smooth="yes"/>
      <point x="1151" y="1396"/>
      <point x="1261" y="1244"/>
      <point x="1279" y="1244" type="curve" smooth="yes"/>
      <point x="1285" y="1244"/>
      <point x="1287" y="1246"/>
      <point x="1289" y="1250" type="curve"/>
      <point x="1293" y="1256" type="line"/>
      <point x="1167" y="1366"/>
      <point x="1035" y="1416"/>
      <point x="827" y="1416" type="curve" smooth="yes"/>
      <point x="403" y="1416"/>
      <point x="137" y="1140"/>
      <point x="137" y="700" type="curve" smooth="yes"/>
      <point x="137" y="258"/>
      <point x="403" y="-16"/>
      <point x="805" y="-16" type="curve" smooth="yes"/>
      <point x="1043" y="-16"/>
      <point x="1195" y="44"/>
      <point x="1333" y="138" type="curve"/>
      <point x="1333" y="602" type="line"/>
      <point x="985" y="602" type="line"/>
      <point x="985" y="592" type="line" smooth="yes"/>
      <point x="985" y="588"/>
      <point x="991" y="582"/>
      <point x="997" y="582" type="curve" smooth="yes"/>
      <point x="1311" y="582" type="line"/>
      <point x="1311" y="132" type="line"/>
    </contour>
    <contour>
      <point x="1293" y="1374" type="line" smooth="yes"/>
      <point x="1293" y="1547"/>
      <point x="1357" y="1654"/>
      <point x="1487" y="1654" type="curve" smooth="yes"/>
      <point x="1521" y="1654"/>
      <point x="1561" y="1648"/>
      <point x="1599" y="1635" type="curve"/>
      <point x="1609" y="1632"/>
      <point x="1618" y="1630"/>
      <point x="1620" y="1640" type="curve"/>
      <point x="1622" y="1648" type="line"/>
      <point x="1574" y="1665"/>
      <point x="1531" y="1674"/>
      <point x="1487" y="1674" type="curve" smooth="yes"/>
      <point x="1349" y="1674"/>
      <point x="1273" y="1560"/>
      <point x="1273" y="1374" type="curve" smooth="yes"/>
      <point x="1273" y="1335"/>
      <point x="1273" y="1303"/>
      <point x="1277" y="1256" type="curve"/>
      <point x="1293" y="1256" type="line"/>
    </contour>
  </outline>
</glyph>
<glyph name="Gammaafrican" format="2">
  <advance width="1240"/>
  <unicode hex="0194"/>
  <anchor x="620" y="1496" name="Top"/>
  <anchor x="620" y="1496" name="top"/>
  <anchor x="620" y="-70" name="bottom"/>
  <outline>
    <contour>
      <point x="608" y="498" type="line"/>
      <point x="635" y="498" type="line"/>
      <point x="38" y="1387" type="line"/>
      <point x="35" y="1392"/>
      <point x="29" y="1401"/>
      <point x="19" y="1401" type="curve" smooth="yes"/>
      <point x="-3" y="1401" type="line"/>
    </contour>
    <contour>
      <point x="1243" y="1401" type="line"/>
      <point x="1221" y="1401" type="line" smooth="yes"/>
      <point x="1213" y="1401"/>
      <point x="1207" y="1393"/>
      <point x="1203" y="1387" type="curve" smooth="yes"/>
      <point x="627" y="530" type="line"/>
      <point x="620" y="518"/>
      <point x="618" y="510"/>
      <point x="618" y="498" type="curve"/>
      <point x="632" y="498" type="line"/>
    </contour>
    <contour>
      <point x="632" y="510" type="line"/>
      <point x="605" y="510" type="line"/>
      <point x="930" y="36" type="line" smooth="yes"/>
      <point x="939" y="23"/>
      <point x="953" y="14"/>
      <point x="963" y="14" type="curve"/>
      <point x="965" y="0" type="line"/>
      <point x="985" y="0" type="line"/>
    </contour>
    <contour>
      <point x="256" y="0" type="line"/>
      <point x="288" y="0" type="line"/>
      <point x="286" y="18" type="line"/>
      <point x="294" y="18"/>
      <point x="302" y="26"/>
      <point x="307" y="33" type="curve" smooth="yes"/>
      <point x="612" y="478" type="line" smooth="yes"/>
      <point x="620" y="490"/>
      <point x="620" y="496"/>
      <point x="622" y="510" type="curve"/>
      <point x="608" y="510" type="line"/>
    </contour>
    <contour>
      <point x="276" y="0" type="line"/>
      <point x="968" y="0" type="line"/>
      <point x="968" y="20" type="line"/>
      <point x="276" y="20" type="line"/>
    </contour>
  </outline>
</glyph>
<glyph name="hv" format="2">
  <advance width="1720"/>
  <unicode hex="0195"/>
  <anchor x="196" y="1496" name="Top"/>
  <anchor x="196" y="1496" name="top"/>
  <anchor x="792" y="-70" name="bottom"/>
  <outline>
    <contour>
      <point x="208" y="0" type="line"/>
      <point x="208" y="1440" type="line"/>
      <point x="184" y="1440" type="line"/>
      <point x="184" y="0" type="line"/>
    </contour>
    <contour>
      <point x="914" y="352" type="line"/>
      <point x="914" y="628" type="line"/>
      <point x="890" y="628" type="line"/>
      <point x="890" y="352" type="line"/>
    </contour>
    <contour>
      <point x="914" y="628" type="line"/>
      <point x="914" y="860"/>
      <point x="808" y="996"/>
      <point x="590" y="996" type="curve" smooth="yes"/>
      <point x="430" y="996"/>
      <point x="288" y="902"/>
      <point x="196" y="758" type="curve"/>
      <point x="200" y="734" type="line"/>
      <point x="298" y="884"/>
      <point x="434" y="976"/>
      <point x="590" y="976" type="curve" smooth="yes"/>
      <point x="794" y="976"/>
      <point x="890" y="846"/>
      <point x="890" y="628" type="curve"/>
    </contour>
    <contour>
      <point x="1524" y="980" type="line"/>
      <point x="1524" y="352" type="line"/>
      <point x="1548" y="352" type="line"/>
      <point x="1548" y="980" type="line"/>
    </contour>
    <contour>
      <point x="1524" y="352" type="line"/>
      <point x="1524" y="134"/>
      <point x="1423" y="4"/>
      <point x="1219" y="4" type="curve"/>
      <point x="1219" y="-16" type="line"/>
      <point x="1437" y="-16"/>
      <point x="1548" y="120"/>
      <point x="1548" y="352" type="curve"/>
    </contour>
    <contour>
      <point x="890" y="352" type="line"/>
      <point x="890" y="120"/>
      <point x="1001" y="-16"/>
      <point x="1219" y="-16" type="curve"/>
      <point x="1219" y="4" type="line"/>
      <point x="1015" y="4"/>
      <point x="914" y="134"/>
      <point x="914" y="352" type="curve"/>
    </contour>
  </outline>
</glyph>
<glyph name="Iotaafrican" format="2">
  <advance width="551"/>
  <unicode hex="0196"/>
  <anchor x="235" y="1496" name="Top"/>
  <anchor x="235" y="1496" name="top"/>
  <anchor x="353" y="-70" name="bottom"/>
  <outline>
    <contour>
      <point x="223" y="242" type="line" smooth="yes"/>
      <point x="223" y="79"/>
      <point x="310" y="-13"/>
      <point x="463" y="-13" type="curve" smooth="yes"/>
      <point x="519" y="-13"/>
      <point x="523" y="-8"/>
      <point x="523" y="-3" type="curve" smooth="yes"/>
      <point x="523" y="7" type="line"/>
      <point x="464" y="7" type="line" smooth="yes"/>
      <point x="323" y="7"/>
      <point x="247" y="87"/>
      <point x="247" y="242" type="curve"/>
      <point x="247" y="1400" type="line"/>
      <point x="223" y="1400" type="line"/>
    </contour>
  </outline>
</glyph>
<glyph name="Istroke" format="2">
  <advance width="516"/>
  <unicode hex="0197"/>
  <anchor x="260" y="1496" name="Top"/>
  <anchor x="260" y="1496" name="top"/>
  <anchor x="258" y="-70" name="bottom"/>
  <outline>
    <contour>
      <point x="270" y="1400" type="line"/>
      <point x="246" y="1400" type="line"/>
      <point x="246" y="0" type="line"/>
      <point x="270" y="0" type="line"/>
    </contour>
    <contour>
      <point x="6" y="725" type="line"/>
      <point x="510" y="725" type="line"/>
      <point x="510" y="743" type="line"/>
      <point x="6" y="743" type="line"/>
    </contour>
  </outline>
</glyph>
<glyph name="Khook" format="2">
  <advance width="1261"/>
  <unicode hex="0198"/>
  <anchor x="637" y="1496" name="Top"/>
  <anchor x="637" y="1496" name="top"/>
  <anchor x="681" y="-70" name="bottom"/>
  <outline>
    <contour>
      <point x="256" y="1402" type="line"/>
      <point x="232" y="1402" type="line"/>
      <point x="232" y="0" type="line"/>
      <point x="256" y="0" type="line"/>
    </contour>
    <contour>
      <point x="248" y="704" type="line"/>
      <point x="367" y="704" type="line" smooth="yes"/>
      <point x="431" y="704"/>
      <point x="447" y="686"/>
      <point x="480" y="654" type="curve" smooth="yes"/>
      <point x="1142" y="14" type="line" smooth="yes"/>
      <point x="1152" y="4"/>
      <point x="1158" y="0"/>
      <point x="1178" y="0" type="curve" smooth="yes"/>
      <point x="1188" y="0" type="line"/>
      <point x="493" y="674" type="line" smooth="yes"/>
      <point x="457" y="708"/>
      <point x="433" y="718"/>
      <point x="373" y="718" type="curve"/>
      <point x="350" y="710" type="line"/>
      <point x="422" y="712"/>
      <point x="444" y="719"/>
      <point x="476" y="759" type="curve"/>
      <point x="878" y="1285" type="line"/>
      <point x="938" y="1360"/>
      <point x="1005" y="1394"/>
      <point x="1090" y="1394" type="curve" smooth="yes"/>
      <point x="1129" y="1394"/>
      <point x="1163" y="1387"/>
      <point x="1190" y="1377" type="curve" smooth="yes"/>
      <point x="1207" y="1371"/>
      <point x="1216" y="1370"/>
      <point x="1218" y="1380" type="curve"/>
      <point x="1220" y="1388" type="line"/>
      <point x="1183" y="1404"/>
      <point x="1139" y="1414"/>
      <point x="1091" y="1414" type="curve" smooth="yes"/>
      <point x="991" y="1414"/>
      <point x="918" y="1372"/>
      <point x="861" y="1297" type="curve" smooth="yes"/>
      <point x="457" y="767" type="line"/>
      <point x="423" y="725"/>
      <point x="400" y="724"/>
      <point x="350" y="724" type="curve" smooth="yes"/>
      <point x="248" y="724" type="line"/>
    </contour>
  </outline>
</glyph>
